<svg width="101" height="33" viewBox="0 0 101 33" fill="none" xmlns="http://www.w3.org/2000/svg">
<path d="M11.7553 11.9044V13.1302H6.53125V11.9044H11.7553ZM6.53125 15.6031H11.1022V16.8127H7.83746V20.4937H6.53125V15.6031Z" fill="#979FA8"/>
<path d="M22.3029 20.4937H20.7793L18.5075 17.5281H17.0789V20.4937H15.7734V16.3016H19.0248C19.977 16.3016 20.7793 15.8414 20.7793 14.7292C20.7793 13.6044 20.0045 13.1317 19.0523 13.1317H15.7734V11.9044H18.5994C20.9802 11.9044 22.0823 13.0292 22.0823 14.6525C22.0823 15.98 21.3068 17.0679 19.9464 17.413L22.3029 20.4937Z" fill="#979FA8"/>
<path d="M34.6773 20.4922H33.2644L32.3805 18.6521H32.3758L30.3238 14.4083L28.275 18.6521H28.2703L27.3856 20.4922H25.9727L30.3238 11.6986L34.6773 20.4922Z" fill="#979FA8"/>
<path d="M66.7539 20.4907V11.9014H68.0601V20.4907H66.7539Z" fill="#979FA8"/>
<path d="M76.9107 11.8151V13.046C76.0875 13.1347 75.3277 13.5048 74.7762 14.0859C74.2246 14.6669 73.9198 15.4182 73.9198 16.1968C73.9198 16.9753 74.2246 17.7266 74.7762 18.3077C75.3277 18.8887 76.0875 19.2588 76.9107 19.3475V20.577C75.7383 20.4888 74.6442 19.9889 73.8463 19.1769C73.0485 18.3649 72.6055 17.3004 72.6055 16.1953C72.6055 15.0902 73.0485 14.0256 73.8463 13.2136C74.6442 12.4016 75.7383 11.9018 76.9107 11.8136V11.8151ZM81.9637 16.1968C81.963 17.302 81.5194 18.3664 80.721 19.1781C79.9227 19.9898 78.8283 20.4893 77.6557 20.577V19.3475C78.4789 19.2588 79.2386 18.8887 79.7902 18.3077C80.3417 17.7266 80.6465 16.9753 80.6465 16.1968C80.6465 15.4182 80.3417 14.6669 79.7902 14.0859C79.2386 13.5048 78.4789 13.1347 77.6557 13.046V11.8151C78.8285 11.9028 79.9232 12.4024 80.7216 13.2145C81.5199 14.0265 81.9634 15.0913 81.9637 16.1968V16.1968Z" fill="#979FA8"/>
<path d="M94.1065 11.9029V20.6972L86.4883 13.3905V11.6986L92.8011 17.7825V11.9029H94.1065ZM86.4883 14.4267L87.7945 15.6606V20.4922H86.4883V14.4267Z" fill="#979FA8"/>
<path d="M45.0145 12.5299V2.2966H45.3944V0.221924H43.1862V2.2966H43.7357V5.73424C41.7403 6.78015 40.0838 8.31439 38.9421 10.174C37.8004 12.0335 37.2162 14.1489 37.2515 16.2955C37.2869 18.442 37.9404 20.5394 39.1428 22.3649C40.3452 24.1904 42.0515 25.6758 44.0803 26.6632L45.0145 27.1182V19.6928L48.8263 16.1113L45.0145 12.5299ZM43.7357 19.1957V25.0886C42.1383 24.1205 40.8248 22.7915 39.9152 21.2233C39.0056 19.6551 38.5291 17.8976 38.5291 16.1117C38.5291 14.3257 39.0056 12.5683 39.9152 11.0001C40.8248 9.43183 42.1383 8.10291 43.7357 7.13481V13.0277L47.0177 16.1113L43.7357 19.1957Z" fill="#979FA8"/>
<path d="M46.6749 11.8834L49.8933 14.9066L53.1109 11.8834V4.01914H53.5756V1.94446H51.3675V4.01914H51.8322V11.3856L49.8933 13.2073L47.9544 11.3856V9.55653H48.4191V7.48185H46.2109V9.55653H46.6749V11.8834Z" fill="#979FA8"/>
<path d="M53.1109 20.3413L49.8933 17.3174L46.6749 20.3413V28.0249H46.2109V30.0996H48.4191V28.0249H47.9544V20.8384L49.8933 19.0167L51.8322 20.8384V21.9845H51.3675V24.0584H53.5756V21.9845H53.1109V20.3413Z" fill="#979FA8"/>
<path d="M62.5371 16.1112C62.5414 13.9325 61.9062 11.7949 60.7013 9.93344C59.4965 8.07196 57.7686 6.5587 55.7077 5.56004L54.7736 5.10498V12.5297L50.9609 16.1112L54.7736 19.6926V30.0985H54.3426V32.1732H56.5508V30.0985H56.0523V26.489C58.0214 25.4612 59.6615 23.9566 60.802 22.1315C61.9424 20.3064 62.5415 18.2276 62.5371 16.1112V16.1112ZM52.7695 16.1112L56.0523 13.0276V7.13467C57.6495 8.10289 58.9629 9.43186 59.8724 11.0001C60.7818 12.5683 61.2583 14.3257 61.2583 16.1115C61.2583 17.8974 60.7818 19.6548 59.8724 21.223C58.9629 22.7912 57.6495 24.1202 56.0523 25.0884V19.1955L52.7695 16.1112Z" fill="#979FA8"/>
</svg>
