<svg width="114" height="31" viewBox="0 0 114 31" fill="none" xmlns="http://www.w3.org/2000/svg">
<g clip-path="url(#clip0_1522_58227)">
<path d="M6.57126 14.8903C6.27779 15.3542 5.77812 15.622 5.08358 15.685V16.0921L4.52376 16.1488V15.6953C3.76872 15.6562 3.23563 15.3754 2.94435 14.8571C1.92674 13.0544 4.45116 8.9326 4.55952 8.75851L4.81234 8.34924L5.04529 8.76938C6.12755 10.7225 7.46064 13.4833 6.57126 14.8903Z" fill="#979FA8"/>
<path d="M9.9972 15.6576C9.81806 15.9384 9.52226 16.106 9.11234 16.1518V16.9858L8.77844 17.0183V16.5655C8.7403 16.5632 8.70221 16.5611 8.66429 16.5567V16.1604C8.21843 16.1278 7.90257 15.9516 7.72325 15.6357C7.10944 14.545 8.53065 12.1868 8.69318 11.9212L8.89708 11.5946L9.08308 11.9321C9.73734 13.1145 10.5462 14.7887 9.9972 15.6576Z" fill="#979FA8"/>
<path d="M26.37 17.4903C26.3588 17.5839 26.3453 17.6775 26.3297 17.7711C26.2755 18.1193 26.2033 18.4634 26.1168 18.8009C26.0922 18.9033 26.0653 19.0033 26.0339 19.1014C26.0115 19.1891 25.9848 19.2734 25.9577 19.3604C25.8241 19.7936 25.6648 20.219 25.4806 20.6342L24.8734 20.6233L23.5808 20.5993L22.1222 20.5732L17.339 20.4854L15.8782 20.4572L14.8834 20.4396L13.1808 19.3878L12.6766 19.0744L12.4189 18.9154L11.1367 18.0881L11.3049 17.8811L13.3161 15.4327L14.4357 13.9083L16.228 12.3841L17.3476 11.9487L17.7959 12.1665L19.14 13.6906L19.8121 14.7787L20.2602 15.4319L20.9323 14.561L21.8286 13.69L22.5007 13.4724L23.1728 13.69L24.0689 14.9964L25.1885 16.0846L25.8748 16.8989L26.37 17.4903Z" fill="#979FA8"/>
<path d="M13.8515 18.9412L9.76045 26.5228L9.49844 27.0082C9.27434 26.919 9.05473 26.8253 8.83965 26.723C8.71415 26.6665 8.58882 26.6054 8.46783 26.5424C8.41363 26.514 8.35947 26.4878 8.30872 26.4596C5.06682 24.7546 2.69644 21.6781 2.02664 18.0377L1.94141 17.4977C2.10953 17.4562 2.29319 17.4127 2.48804 17.3713C3.15959 17.2278 3.83871 17.1199 4.52236 17.0484V16.6528L5.08218 16.6419V16.9968C6.189 16.9141 7.41664 16.9266 8.66465 17.1296V16.568L9.11271 16.5594V17.2127C9.79492 17.346 10.4625 17.5421 11.1066 17.7983C11.2275 17.6154 11.409 17.3432 11.6398 17.0122L12.0633 17.3808C11.8997 17.6137 11.7518 17.8315 11.6241 18.0231C12.1148 18.2501 12.5849 18.517 13.0293 18.8209C13.1569 18.7332 13.287 18.6467 13.4191 18.564L13.8515 18.9412Z" fill="#979FA8"/>
<path d="M26.0357 19.1002C26.0133 19.188 25.9866 19.2722 25.9595 19.3593C25.7263 20.119 25.4141 20.8536 25.0277 21.5518C24.9784 21.6455 24.9267 21.7369 24.8707 21.8284C24.8326 21.8986 24.79 21.9655 24.7476 22.033C24.3444 22.6932 23.8761 23.3138 23.3495 23.8859C23.2263 24.0209 23.0986 24.1538 22.9686 24.2822C20.829 26.4137 17.8784 27.7747 14.6074 27.8877C14.4574 27.8944 14.3071 27.8965 14.157 27.8965C14.1209 27.8965 14.0832 27.8965 14.0472 27.8944C13.2571 27.8897 12.4692 27.8101 11.6949 27.6569C11.5785 27.6331 11.462 27.609 11.3477 27.583C11.2781 27.5678 11.2088 27.5502 11.1392 27.5328C10.3468 27.3393 9.57659 27.0679 8.84057 26.7229C8.71506 26.6664 8.58973 26.6053 8.46875 26.5423L8.57402 25.9783L8.83604 24.5762L9.95567 22.6166L10.6276 21.5284L12.42 19.5688L12.8211 19.3468L13.3498 19.0528L13.9891 18.6982L15.3334 17.8272L17.3496 17.3917L18.918 17.174L21.8306 17.3917L24.0709 18.045L25.4152 18.6982L25.5452 18.7831L26.0357 19.1002Z" fill="#979FA8"/>
<path d="M24.8707 21.8287C24.8326 21.899 24.79 21.9658 24.7476 22.0334C24.3444 22.6936 23.8761 23.3141 23.3495 23.8863C23.2263 24.0213 23.0986 24.1541 22.9686 24.2826C20.829 26.4141 17.8784 27.7751 14.6074 27.8881C14.4574 27.8948 14.3071 27.8969 14.157 27.8969C14.1209 27.8969 14.0832 27.8969 14.0472 27.8948C13.257 27.89 12.4692 27.8105 11.6949 27.6573C11.5784 27.6334 11.462 27.6094 11.3477 27.5834L11.5246 27.1892L11.5515 27.0695L11.9727 25.2296L12.8689 23.0523L14.6612 21.5283L15.7809 20.8751L17.5732 20.2219L19.5902 19.7866L21.1584 20.0043L22.9507 20.4398L24.0703 21.3107L24.4043 21.5262L24.8707 21.8287Z" fill="#979FA8"/>
<path d="M14.4375 27.6249L14.6616 26.1009L15.7818 24.359L17.5741 23.0526L19.8145 22.6172L21.6068 23.2704L22.5031 23.7058L22.9511 23.9236L21.6068 25.2298L19.3664 26.5362L16.902 27.4073L15.1097 27.6249H14.4375Z" fill="#979FA8"/>
<path d="M22.1968 6.85897C22.1946 6.8567 22.1924 6.8546 22.1924 6.8523C22.0266 6.71523 21.8563 6.58011 21.6837 6.44866H21.6816C21.6653 6.43387 21.6481 6.42004 21.6301 6.40725C21.6053 6.38969 21.5808 6.37215 21.5561 6.35284C21.5019 6.32459 21.4462 6.30019 21.3881 6.27667C21.1771 6.1918 20.953 6.14174 20.725 6.12855C20.6824 6.12644 20.6397 6.12416 20.5971 6.12416C20.483 6.12368 20.3691 6.13319 20.2567 6.15259C20.6061 6.35872 20.9441 6.58256 21.2693 6.82317C21.4676 6.91898 21.6419 7.05573 21.7801 7.22384C21.8452 7.27826 21.9078 7.33055 21.9705 7.38707C22.2125 7.59399 22.4433 7.8116 22.6674 8.03816C24.6793 10.0915 25.9179 12.8695 25.9179 15.9221C25.9179 16.118 25.9134 16.3141 25.9022 16.5099V16.5122C25.8955 16.6427 25.8867 16.7712 25.8755 16.8997C25.8643 17.0173 25.8529 17.1349 25.8394 17.2507C25.7894 17.6643 25.7161 18.075 25.6198 18.4808C25.5974 18.5831 25.5705 18.6833 25.5438 18.7835C25.5212 18.8683 25.4966 18.9532 25.4715 19.036C25.3155 19.5797 25.1158 20.1106 24.8743 20.6238C24.784 20.8241 24.6862 21.0201 24.5809 21.2117C24.5226 21.3182 24.4644 21.425 24.4039 21.5276C24.3725 21.5822 24.3411 21.6366 24.3075 21.691C23.9103 22.3509 23.4457 22.9702 22.9207 23.5396C22.7974 23.6745 22.6679 23.8074 22.5354 23.938C20.5032 25.9432 17.7184 27.2258 14.6289 27.3427C14.4722 27.3512 14.3152 27.3535 14.1561 27.3535C14.1271 27.3535 14.098 27.3535 14.0687 27.3512C13.2818 27.3479 12.4974 27.2664 11.7276 27.1078C11.6693 27.097 11.6088 27.0838 11.5506 27.0708C11.4242 27.0425 11.302 27.0141 11.1786 26.9815C10.6963 26.8587 10.2226 26.706 9.76045 26.5243C9.47604 26.4132 9.19361 26.2891 8.92038 26.1557C8.80389 26.0992 8.6874 26.0404 8.57311 25.9802C8.51262 25.9499 8.45428 25.9193 8.39613 25.8867C5.38502 24.237 3.19161 21.3339 2.57328 17.9111C2.53969 17.7326 2.51278 17.5541 2.48804 17.3734C2.29319 17.4148 2.10881 17.4583 1.94141 17.4997L2.02664 18.0398C2.69644 21.6801 5.06683 24.7566 8.30872 26.4614C8.36019 26.4897 8.41399 26.5159 8.46783 26.5443C8.58881 26.6073 8.71414 26.6684 8.83965 26.7249C9.05473 26.8272 9.27434 26.9209 9.49844 27.0101C10.0314 27.2231 10.5794 27.3985 11.1383 27.5348C11.2079 27.5524 11.2772 27.5699 11.3468 27.585C11.4611 27.611 11.5775 27.635 11.694 27.6589C12.4683 27.812 13.256 27.8914 14.0461 27.896C14.0823 27.8981 14.1202 27.8981 14.1559 27.8981C14.306 27.8981 14.4563 27.896 14.6063 27.8893C17.8773 27.7761 20.8279 26.4151 22.9675 24.2839C23.0975 24.1554 23.2252 24.0225 23.3484 23.8876C23.8751 23.3153 24.3433 22.6946 24.7465 22.0343C24.7889 21.9667 24.8315 21.8993 24.8697 21.8296C24.9256 21.7382 24.978 21.6468 25.0266 21.5531C25.1923 21.2547 25.3446 20.9478 25.4813 20.6343C25.6653 20.2192 25.8245 19.794 25.9579 19.3609C25.9849 19.2732 26.012 19.1889 26.0341 19.1019C26.0655 19.0038 26.0924 18.9037 26.117 18.8014C26.2044 18.4639 26.276 18.1198 26.3299 17.7716C26.3455 17.678 26.3589 17.5844 26.3701 17.4908C26.3925 17.3493 26.4082 17.2077 26.4218 17.0641C26.4597 16.6873 26.4778 16.3095 26.4778 15.9234C26.4783 12.3042 24.8182 9.0536 22.1968 6.85897Z" fill="#979FA8"/>
<path d="M21.9974 7.60155C21.9939 7.52928 21.9856 7.45729 21.9727 7.38603C21.9192 7.05176 21.779 6.73628 21.5651 6.4694C21.5537 6.45413 21.5403 6.43676 21.527 6.42149C21.5246 6.41938 21.5225 6.4171 21.5225 6.41499C21.4798 6.36708 21.4372 6.31917 21.3903 6.27565C21.2489 6.13849 21.0873 6.02257 20.9108 5.93167C20.9097 5.93039 20.908 5.92957 20.9063 5.92938C20.9018 5.92289 20.8929 5.92078 20.8861 5.9164C20.5902 5.76604 20.2611 5.68775 19.9271 5.68825C19.8131 5.68779 19.6991 5.69724 19.5867 5.7165C19.1969 5.77968 18.8337 5.94991 18.5401 6.20712C18.2465 6.46432 18.0348 6.79779 17.9299 7.16811C17.8249 7.53847 17.8311 7.93027 17.9478 8.29728C18.0645 8.66428 18.2868 8.99119 18.5885 9.23947C18.8901 9.48771 19.2585 9.64692 19.6502 9.69834C20.0419 9.74975 20.4406 9.69121 20.7992 9.52963C21.1578 9.36801 21.4613 9.11012 21.674 8.78636C21.8867 8.46256 21.9997 8.08641 21.9996 7.70229C21.9996 7.6691 21.9996 7.63648 21.9974 7.60155ZM19.9271 9.17139C19.5261 9.17139 19.1415 9.01655 18.8578 8.74095C18.5743 8.46532 18.4149 8.09154 18.4149 7.70176C18.4149 7.31198 18.5743 6.93817 18.8578 6.66257C19.1415 6.38696 19.5261 6.23212 19.9271 6.23212C20.1607 6.23106 20.3911 6.28406 20.5993 6.38674C20.7976 6.48244 20.972 6.61912 21.1102 6.78724C21.2875 7.00349 21.3985 7.26399 21.4302 7.53878C21.4619 7.81361 21.4132 8.09154 21.2896 8.34059C21.166 8.58967 20.9726 8.79981 20.7316 8.94676C20.4905 9.09374 20.2117 9.1716 19.9271 9.17139Z" fill="#979FA8"/>
<path d="M13.4997 19.1675C13.3405 19.2742 13.184 19.3854 13.0302 19.501C12.8756 19.3834 12.7165 19.2728 12.5574 19.1675C10.1747 17.6042 7.36316 17.3648 5.08218 17.5418C4.89165 17.5571 4.70294 17.5747 4.52236 17.5945C3.86732 17.6659 3.21669 17.7713 2.57328 17.9104C2.37825 17.9541 2.19405 17.9982 2.02664 18.0391L1.94141 17.4998C2.10953 17.4583 2.29319 17.4148 2.48804 17.3734C3.15959 17.2298 3.83871 17.122 4.52236 17.0505C4.70385 17.0287 4.89202 17.0113 5.08218 16.9978C6.189 16.9151 7.41664 16.9276 8.66465 17.1307C8.7452 17.1436 8.82593 17.1589 8.90665 17.1742L9.11271 17.2135C9.79492 17.3469 10.4625 17.543 11.1066 17.7991C11.2792 17.8693 11.4538 17.9429 11.6241 18.0234C12.1149 18.251 12.5849 18.5185 13.0293 18.823C13.1884 18.9324 13.3451 19.0478 13.4997 19.1675Z" fill="#979FA8"/>
<path d="M26.421 17.0617C26.4075 17.2053 26.3918 17.3469 26.3694 17.4883C26.3582 17.5819 26.3447 17.6755 26.3291 17.7691C26.1969 17.6275 26.029 17.4511 25.8384 17.2488C24.9043 16.2625 23.4412 14.6947 22.8407 13.9669C22.6906 13.7841 22.5539 13.6926 22.4329 13.6926C22.2941 13.6926 22.1328 13.8037 21.9625 13.9692C21.7922 14.1347 21.6131 14.3523 21.4361 14.5678C21.2322 14.8162 21.0238 15.0729 20.793 15.2951C20.708 15.378 20.4499 15.6305 20.1232 15.5826C19.74 15.528 19.5295 15.1428 19.2113 14.5613C18.8976 13.9866 18.4653 13.2005 17.7102 12.4647C17.5623 12.323 17.3899 12.2665 17.1685 12.2906C15.7816 12.445 13.3911 15.478 12.0625 17.3788C11.8989 17.6117 11.751 17.8295 11.6234 18.0212C11.5629 18.1126 11.5069 18.1996 11.4554 18.2802L11.1372 18.0871L10.9805 17.9913C11.0072 17.9478 11.0498 17.8825 11.1058 17.7983C11.2268 17.6154 11.4083 17.3432 11.6391 17.0122C12.8512 15.2747 15.3807 11.9413 17.1056 11.752C17.4933 11.7083 17.8406 11.8237 18.105 12.0829C18.9227 12.8753 19.3752 13.7028 19.7068 14.3079C19.8726 14.6107 20.1012 15.0287 20.2065 15.0461C20.2065 15.0461 20.2625 15.044 20.3992 14.9134C20.6052 14.7109 20.8046 14.4669 20.9973 14.2317C21.4522 13.6744 21.8822 13.1498 22.4311 13.1498H22.4333C22.7315 13.1498 23.0182 13.3109 23.2803 13.6288C23.7911 14.2514 24.9875 15.5382 25.9015 16.5092V16.5115C26.0895 16.711 26.2664 16.8962 26.421 17.0617Z" fill="#979FA8"/>
<path d="M13.4427 17.8611L12.9648 17.5758C13.0394 17.458 14.8068 14.68 15.9718 14.0013L16.2608 14.4682C15.3891 14.9759 13.9303 17.0894 13.4427 17.8611Z" fill="#979FA8"/>
<path d="M15.1822 7.21399L15.1797 7.75837L17.42 7.76825L17.4226 7.22384L15.1822 7.21399Z" fill="#979FA8"/>
<path d="M17.5773 8.40979L15.4453 9.07862L15.6174 9.5967L17.7494 8.92787L17.5773 8.40979Z" fill="#979FA8"/>
<path d="M15.7207 5.19482L15.4492 5.67102L17.4088 6.72623L17.6804 6.25005L15.7207 5.19482Z" fill="#979FA8"/>
<path d="M17.1963 3.85364L16.7617 4.19712L18.1753 5.88629L18.6099 5.54281L17.1963 3.85364Z" fill="#979FA8"/>
<path d="M19.3791 3.10291L18.8242 3.17773L19.1321 5.33432L19.687 5.2595L19.3791 3.10291Z" fill="#979FA8"/>
<path d="M20.8279 3.0968L20.2734 5.20631L20.8162 5.34105L21.3707 3.23154L20.8279 3.0968Z" fill="#979FA8"/>
<path d="M22.6016 3.83252L21.2812 5.5915L21.7338 5.91233L23.0542 4.15335L22.6016 3.83252Z" fill="#979FA8"/>
<path d="M24.5832 21.2105C24.2659 20.983 23.932 20.7785 23.584 20.5985C22.4036 19.983 21.0896 19.6491 19.7503 19.6245C18.4109 19.5999 17.0849 19.8853 15.8814 20.457C13.325 21.6741 11.4903 24.1104 11.1809 26.9802C11.1609 27.1631 11.1473 27.3487 11.1406 27.5332C11.2102 27.5507 11.2795 27.5683 11.3491 27.5834C11.4633 27.6093 11.5798 27.6334 11.6963 27.6573C11.7008 27.4723 11.712 27.2887 11.7299 27.1065C12.0391 23.9581 14.3123 21.3607 17.3422 20.4853C18.5197 20.1442 19.7631 20.0754 20.9729 20.2845C22.1827 20.4936 23.3254 20.9747 24.3097 21.6894C24.4598 21.7982 24.6077 21.9137 24.749 22.0334C24.7914 21.9658 24.834 21.8984 24.8721 21.8287C24.9281 21.7373 24.9805 21.6459 25.0291 21.5521C24.8856 21.4325 24.7354 21.3193 24.5832 21.2105Z" fill="#979FA8"/>
<path d="M22.9196 23.5373C21.9606 22.8325 20.7906 22.4519 19.5882 22.4536C16.7002 22.4536 14.3232 24.6093 14.0676 27.3501C14.0505 27.5133 14.0423 27.6774 14.0431 27.8415C14.0427 27.859 14.0434 27.8766 14.0452 27.8941C14.0813 27.8962 14.1193 27.8962 14.155 27.8962C14.3051 27.8962 14.4553 27.8941 14.6054 27.8875C14.6036 27.8723 14.6029 27.8571 14.6033 27.8418C14.6033 27.672 14.6121 27.5043 14.6278 27.3411C14.8869 24.9047 17.0139 22.9977 19.5882 22.9977C20.6482 22.9964 21.6807 23.3252 22.5343 23.9361C22.6853 24.043 22.8297 24.1587 22.9666 24.2823C23.0966 24.1539 23.2243 24.021 23.3474 23.886C23.2111 23.7627 23.0683 23.6463 22.9196 23.5373Z" fill="#979FA8"/>
<path d="M25.6202 18.4799C23.7894 17.3631 21.6684 16.7777 19.5069 16.7928C17.3453 16.8078 15.2332 17.4226 13.419 18.5648C13.2869 18.6475 13.1568 18.7346 13.0291 18.8218C12.9103 18.9044 12.7917 18.9894 12.6773 19.0743L12.5564 19.1658C10.4168 20.8074 8.89786 23.1763 8.396 25.885C8.3624 26.0743 8.33329 26.2658 8.30859 26.4597C8.36006 26.488 8.41387 26.5141 8.46771 26.5426C8.58869 26.6056 8.71402 26.6666 8.83953 26.7231C8.85973 26.5338 8.88665 26.3421 8.92025 26.1549C9.36827 23.4522 10.8829 21.0949 13.0291 19.4989C13.0806 19.4618 13.1299 19.4248 13.1815 19.3878C13.2869 19.3116 13.3921 19.2376 13.4996 19.1658C13.6162 19.0896 13.7327 19.0134 13.8514 18.9415C15.5955 17.8773 17.6166 17.3207 19.6759 17.3372C21.7352 17.3538 23.7466 17.943 25.4723 19.0352C25.6381 19.1375 25.7995 19.2458 25.9584 19.3595C25.9855 19.2718 26.0126 19.1875 26.0347 19.1005C26.0661 19.0024 26.093 18.9023 26.1175 18.8C25.9541 18.6889 25.7905 18.5822 25.6202 18.4799Z" fill="#979FA8"/>
<path d="M5.08326 13.6895V17.5397C4.89274 17.555 4.70402 17.5726 4.52344 17.5924V13.6895H5.08326Z" fill="#979FA8"/>
<path d="M5.04552 8.76938L4.81238 8.34924L4.55956 8.75851C4.4512 8.9326 1.92696 13.0544 2.94421 14.8571C3.23549 15.3754 3.76859 15.6562 4.52362 15.6953C4.55504 15.6976 4.58647 15.6997 4.62005 15.6997C4.65816 15.702 4.69391 15.702 4.72985 15.702C4.84809 15.703 4.96628 15.6971 5.0838 15.6845C5.77834 15.6214 6.27801 15.3536 6.57148 14.8898C7.46068 13.4833 6.12759 10.7225 5.04552 8.76938ZM6.09456 14.6046C5.90188 14.9072 5.57085 15.0858 5.08326 15.1379C4.93374 15.154 4.78324 15.1599 4.63288 15.1555C4.59477 15.1555 4.55902 15.1532 4.52308 15.1511C3.9833 15.116 3.62701 14.9356 3.43649 14.5958C2.79577 13.4616 4.02809 10.8117 4.78981 9.46175C6.17238 12.0572 6.61155 13.7859 6.09456 14.6046Z" fill="#979FA8"/>
<path d="M9.11602 14.9095H8.66797V17.3916H9.11602V14.9095Z" fill="#979FA8"/>
<path d="M9.08326 11.9321L8.89726 11.5946L8.69318 11.9212C8.53065 12.1868 7.10944 14.545 7.72325 15.6357C7.90257 15.9516 8.21843 16.1271 8.66429 16.1604C8.70127 16.1667 8.73872 16.1696 8.77625 16.1692H8.84342C8.93338 16.1701 9.02331 16.1642 9.11234 16.1517C9.52226 16.1059 9.81806 15.9382 9.9972 15.6574C10.5462 14.7887 9.73734 13.1145 9.08326 11.9321ZM9.61416 15.4289C9.51557 15.5813 9.35197 15.6794 9.11234 15.7164C9.00484 15.7326 8.89597 15.7384 8.78728 15.734C8.74465 15.7317 8.70203 15.7296 8.66411 15.7273C8.39522 15.699 8.21591 15.599 8.11729 15.4268C7.7561 14.7912 8.4243 13.3128 8.87918 12.4897C9.66114 13.9769 9.90997 14.963 9.61416 15.4289Z" fill="#979FA8"/>
<path d="M21.6861 6.44887C21.6861 6.44887 21.1279 6.01784 20.9194 5.93483C20.7108 5.85182 20.7109 6.28741 20.7109 6.28741L21.3831 6.50521L21.6861 6.44887Z" fill="#979FA8"/>
<path d="M19.9265 9.33576C20.8545 9.33576 21.6068 8.60462 21.6068 7.70273C21.6068 6.80085 20.8545 6.0697 19.9265 6.0697C18.9984 6.0697 18.2461 6.80085 18.2461 7.70273C18.2461 8.60462 18.9984 9.33576 19.9265 9.33576Z" fill="#979FA8"/>
</g>
<path d="M33.9293 20.1984V11.4615H35.4914V18.8845H39.4996V20.1984H33.9293ZM40.535 20.1984L43.635 11.4615H45.3969L48.4969 20.1984H46.8621L46.1295 17.94H42.8963L42.1697 20.1984H40.535ZM44.4645 13.0841L43.2898 16.7351H45.742L44.5674 13.0841H44.4645ZM49.9984 20.1984V11.4615H51.3547L55.6475 17.4798H55.7443V11.4615H57.2459V20.1984H55.8957L51.6029 14.18H51.5061V20.1984H49.9984ZM59.4074 20.1984V11.4615H62.683C65.2805 11.4615 66.7941 13.0478 66.7941 15.7845V15.7966C66.7941 18.5939 65.2986 20.1984 62.683 20.1984H59.4074ZM60.9695 18.8845H62.4771C64.2148 18.8845 65.2018 17.7825 65.2018 15.8208V15.8087C65.2018 13.8894 64.1906 12.7753 62.4771 12.7753H60.9695V18.8845ZM71.6197 20.4163C69.5914 20.4163 68.3018 19.4173 68.1928 17.9097L68.1867 17.8249H69.7004L69.7064 17.8855C69.7791 18.6181 70.5602 19.1025 71.6682 19.1025C72.7217 19.1025 73.4604 18.5818 73.4604 17.831V17.8249C73.4604 17.1952 73.0063 16.8138 71.8801 16.5716L70.9416 16.3779C69.1555 16.0025 68.3805 15.1669 68.3805 13.8652V13.8591C68.3805 12.297 69.7246 11.2435 71.6137 11.2435C73.5512 11.2435 74.7561 12.3031 74.865 13.7077L74.8711 13.7865H73.3756L73.3635 13.7138C73.2545 13.0357 72.6066 12.5513 71.6076 12.5573C70.6389 12.5573 69.9486 13.0115 69.9486 13.7562V13.7622C69.9486 14.3798 70.3906 14.7673 71.4805 14.9974L72.4189 15.1972C74.2596 15.5847 75.0285 16.3234 75.0285 17.6433V17.6493C75.0285 19.3507 73.7146 20.4163 71.6197 20.4163ZM76.7844 20.1984V11.4615H78.3465V15.0943H82.5969V11.4615H84.1529V20.1984H82.5969V16.4081H78.3465V20.1984H76.7844ZM85.6666 20.1984L88.7666 11.4615H90.5285L93.6285 20.1984H91.9937L91.2611 17.94H88.0279L87.3014 20.1984H85.6666ZM89.5961 13.0841L88.4215 16.7351H90.8736L89.699 13.0841H89.5961ZM95.1301 20.1984V11.4615H98.66C100.537 11.4615 101.663 12.5089 101.663 14.174V14.1861C101.663 15.3425 101.052 16.2991 100.016 16.6745L101.923 20.1984H100.137L98.4238 16.9107H96.6922V20.1984H95.1301ZM96.6922 15.7118H98.4965C99.4834 15.7118 100.059 15.1609 100.059 14.2224V14.2103C100.059 13.296 99.4592 12.7269 98.4662 12.7269H96.6922V15.7118ZM103.558 20.1984V11.4615H109.213V12.7753H105.12V15.1427H108.989V16.3839H105.12V18.8845H109.213V20.1984H103.558Z" fill="#979FA8"/>
<defs>
<clipPath id="clip0_1522_58227">
<rect width="24.8" height="24.8" fill="white" transform="translate(1.85156 3.09839)"/>
</clipPath>
</defs>
</svg>
