<svg width="117" height="31" viewBox="0 0 117 31" fill="none" xmlns="http://www.w3.org/2000/svg">
<path d="M52.8034 22.0445L50.3446 19.3461H46.0185C45.3893 19.3595 44.7612 19.2897 44.1529 19.1389C43.6871 19.0229 43.2627 18.7929 42.9234 18.4725C42.5905 18.1373 42.3574 17.7261 42.2476 17.2802C42.1006 16.6935 42.0323 16.092 42.0443 15.4895V11.3036C42.0323 10.7011 42.1006 10.0996 42.2476 9.51288C42.3579 9.06665 42.5909 8.65514 42.9234 8.3191C43.2631 7.99923 43.6873 7.76927 44.1529 7.65262C44.7614 7.50259 45.3893 7.43284 46.0185 7.44541H52.7291C53.3588 7.43292 53.9872 7.50266 54.5963 7.65262C55.0619 7.76927 55.4861 7.99923 55.8258 8.3191C56.1591 8.65508 56.3932 9.06652 56.5049 9.51288C56.6519 10.0996 56.7202 10.7011 56.7082 11.3036V15.4895C56.7185 16.0645 56.6598 16.6387 56.533 17.2014C56.4404 17.6275 56.2372 18.0257 55.9414 18.3611C55.6446 18.6728 55.2649 18.9054 54.8409 19.0353C54.297 19.1995 53.7301 19.287 53.1587 19.2951L54.7864 21.0069L52.8034 22.0445ZM54.208 11.3206C54.208 10.733 54.0973 10.3309 53.8775 10.1175C53.6578 9.90411 53.2678 9.79741 52.7208 9.79741H46.0284C45.4776 9.79741 45.092 9.90411 44.8717 10.1175C44.6486 10.3309 44.5412 10.736 44.5412 11.3206V15.5065C44.5355 15.7533 44.5604 15.9998 44.6155 16.2411C44.6534 16.4136 44.7395 16.5737 44.8651 16.705C44.9915 16.8251 45.152 16.9089 45.3277 16.9462C45.5606 16.997 45.7993 17.0203 46.0383 17.0158H52.7043C53.2716 17.0158 53.6627 16.9127 53.8775 16.7065C54.094 16.4993 54.208 16.1003 54.208 15.5127V11.3206Z" fill="#979FA8"/>
<path d="M62.7115 19.3465C62.0968 19.3609 61.4835 19.2852 60.8938 19.1223C60.4431 18.9946 60.0377 18.7552 59.7205 18.4295C59.4108 18.0939 59.1921 17.6934 59.0827 17.262C58.9434 16.7214 58.8778 16.1665 58.8877 15.6105V10.0081H61.3465V15.9058C61.3465 16.3899 61.449 16.7517 61.6522 16.9883C61.8555 17.2249 62.2091 17.344 62.7148 17.344H65.6346C65.7874 17.3522 65.9405 17.332 66.0848 17.2844C66.2292 17.2369 66.3621 17.1631 66.4757 17.0672C66.6778 16.8843 66.8166 16.6489 66.874 16.3914V10.0081H69.3527V19.348C69.1545 19.3485 68.9576 19.3193 68.7693 19.2614C68.58 19.2046 68.4043 19.1137 68.2521 18.9939C68.0921 18.864 67.9603 18.7065 67.8638 18.53C67.7521 18.319 67.6863 18.0893 67.6705 17.8543C67.5236 18.3316 67.1816 18.7355 66.7187 18.9785C66.256 19.2217 65.595 19.3429 64.7357 19.3418L62.7115 19.3465Z" fill="#979FA8"/>
<path d="M74.5064 19.3459C73.3342 19.3459 72.5053 19.1614 72.0194 18.7924C71.5336 18.4233 71.2902 17.847 71.2891 17.0635V16.0383C71.2891 15.2414 71.5386 14.6744 72.0376 14.3373C72.5367 14.0002 73.3469 13.8301 74.4684 13.827H77.9071C78.2866 13.8143 78.6661 13.8523 79.0341 13.9399C79.2625 14.0034 79.4839 14.0873 79.6951 14.1904V13.1002C79.6951 12.6626 79.553 12.3734 79.2704 12.2358C78.9878 12.0982 78.5053 12.0271 77.8278 12.0271H72.0608L72.3053 10.0075H78.1533C78.8281 9.99001 79.5018 10.0687 80.1512 10.241C80.6012 10.3607 81.0153 10.5767 81.3608 10.8719C81.6439 11.1271 81.8512 11.4469 81.9622 11.7997C82.0724 12.1728 82.1253 12.5586 82.1192 12.9456V19.3459C81.7467 19.3426 81.3846 19.2307 81.0831 19.0259C80.7527 18.814 80.5345 18.429 80.437 17.8769C80.2855 18.3067 79.9863 18.6775 79.586 18.9315C79.1663 19.2078 78.5868 19.3459 77.8476 19.3459H74.5064ZM79.7 15.5234C79.4676 15.4368 79.2261 15.3731 78.9796 15.3332C78.6189 15.2806 78.254 15.2573 77.889 15.2636H74.8749C74.4816 15.2636 74.1974 15.3363 74.0255 15.4801C73.8537 15.6239 73.7661 15.8991 73.7661 16.3027C73.7661 16.7063 73.857 16.9661 74.0222 17.1207C74.1875 17.2754 74.4717 17.3465 74.8484 17.3465H77.8625C78.2705 17.3525 78.6756 17.2821 79.0539 17.1393C79.2263 17.0716 79.3763 16.9622 79.4885 16.8222C79.6006 16.6822 79.6708 16.5168 79.6918 16.3429L79.7 15.5234Z" fill="#979FA8"/>
<path d="M84.3008 19.3439V10.0055H86.6869V11.2843C86.876 10.846 87.2218 10.4825 87.6652 10.256C88.1225 10.037 88.6305 9.92705 89.1441 9.93592C89.402 9.93481 89.6592 9.96075 89.9108 10.0132C90.1291 10.0586 90.3417 10.1249 90.5454 10.2112L90.1984 12.2864C90.0277 12.1495 89.8251 12.052 89.6068 12.0019C89.3033 11.9417 88.9932 11.9152 88.6831 11.923C88.1157 11.923 87.6718 12.0328 87.3512 12.2524C87.1948 12.3576 87.0632 12.4917 86.9645 12.6466C86.8659 12.8014 86.8023 12.9735 86.7778 13.1523V19.3378L84.3008 19.3439Z" fill="#979FA8"/>
<path d="M91.8672 19.344V10.0055H94.2467V11.2844C94.4364 10.8458 94.7827 10.4824 95.2266 10.256C95.6833 10.0368 96.1908 9.92688 96.7039 9.93594C96.9623 9.93486 97.22 9.9608 97.4723 10.0133C97.6916 10.0593 97.9053 10.1262 98.1102 10.2127L97.7582 12.2879C97.5877 12.1507 97.385 12.0532 97.1666 12.0034C96.8631 11.9433 96.553 11.9168 96.2429 11.9246C95.6755 11.9246 95.2316 12.0343 94.911 12.2539C94.756 12.3594 94.6258 12.4935 94.5285 12.6481C94.4313 12.8027 94.3691 12.9743 94.3459 13.1524V19.3378L91.8672 19.344Z" fill="#979FA8"/>
<path d="M99.0156 10.0081H101.75L105.207 16.9264L108.443 10.0081H111.067L106.427 19.1068C106.202 19.5561 105.934 19.9848 105.624 20.3872C105.355 20.7361 105.03 21.0447 104.662 21.3026C104.307 21.5469 103.91 21.734 103.489 21.8562C103.006 21.9901 102.505 22.0543 102.002 22.0464C101.62 22.0464 101.207 22.0263 100.762 21.9861C100.313 21.9441 99.8758 21.8301 99.4684 21.649L100.625 19.4686C100.865 19.581 101.12 19.6652 101.382 19.7192C101.681 19.7739 101.985 19.7998 102.289 19.7965C102.637 19.8056 102.981 19.722 103.281 19.5552C103.551 19.4 103.772 19.1787 103.918 18.9151L99.0156 10.0081Z" fill="#979FA8"/>
<path d="M23.3125 17.8239L34.9871 11.5612V17.5146L28.8747 20.8269V27.4793L23.3786 30.3942L23.3125 17.8239Z" fill="#979FA8"/>
<path d="M22.7138 10.5982L16.8707 13.7574L11.2656 10.7761L22.7105 4.58911L28.4627 7.6246L34.471 10.8487L28.8361 13.8951L22.7138 10.5982Z" fill="#979FA8"/>
<path d="M22.3155 30.2075L10.7533 24.0577L10.6442 17.88L10.5781 11.3977L16.2345 14.4085L16.2923 21.016L22.4725 24.3036L22.4642 30.2849L22.3155 30.2075Z" fill="#979FA8"/>
<path d="M38.0127 25.8713L34.5227 27.7641L31.0261 25.8837L31.0195 22.109L34.5095 20.2163L38.0044 22.0982L38.0127 25.8713Z" fill="#979FA8"/>
<path d="M12.9184 8.17442L10.0646 9.72232L7.20418 8.1837L7.19922 5.09718L10.053 3.54773L12.9134 5.0879L12.9184 8.17442Z" fill="#979FA8"/>
<path d="M6.03986 7.56877L4.40393 8.45483L2.66721 7.41568L2.56641 5.48738L4.20068 4.60132L5.93741 5.64201L6.03986 7.56877Z" fill="#979FA8"/>
<path d="M7.28939 3.37011L6.11284 4.0103L4.93134 3.37475L4.92969 2.10056L6.10789 1.46191L7.28774 2.09747L7.28939 3.37011Z" fill="#979FA8"/>
<path d="M42.5273 28.3108V21.3243H45.9843C47.0518 21.3243 47.7755 21.5444 48.1556 21.9846C48.5357 22.4248 48.7251 23.2676 48.724 24.5129C48.724 26.0283 48.5555 27.0402 48.2184 27.5484C47.8813 28.0566 47.2076 28.3108 46.1974 28.3108H42.5273ZM43.3684 27.6458H45.8042C46.6965 27.6458 47.2726 27.4788 47.5326 27.1448C47.7926 26.8108 47.922 26.0649 47.9209 24.9072C47.9209 23.6382 47.8108 22.8346 47.5905 22.4965C47.3701 22.1583 46.8331 21.9893 45.9793 21.9893H43.3684V27.6458Z" fill="#979FA8"/>
<path d="M54.0793 23.4192L52.5921 28.5933C52.3838 29.3242 52.1536 29.8262 51.9013 30.0994C51.7638 30.2387 51.5948 30.3475 51.4068 30.4181C51.2187 30.4887 51.0163 30.5193 50.814 30.5077C50.6914 30.5056 50.5692 30.4937 50.4488 30.4721V29.8783C50.5368 29.8972 50.6264 29.9091 50.7165 29.9139C51.1285 29.9355 51.4348 29.6263 51.6353 28.9861L51.7824 28.5051C51.7824 28.4866 51.8022 28.4263 51.8319 28.3196H51.5461L49.6523 23.4269H50.4687L51.2717 25.6073L51.6766 26.6897L51.8732 27.2371L52.0765 27.7799H52.098L52.2401 27.2371L52.3772 26.6897L52.673 25.6073L53.263 23.4269L54.0793 23.4192Z" fill="#979FA8"/>
<path d="M55.2812 23.4192H56.0182L55.9968 24.0842L56.0182 24.0996C56.2529 23.5986 56.8329 23.3476 57.7583 23.3466C58.5074 23.3466 59.0136 23.4698 59.2769 23.7161C59.5402 23.9625 59.6724 24.4331 59.6735 25.128V28.3119H58.9067V25.0073C58.9067 24.5867 58.8208 24.3053 58.6506 24.1599C58.4804 24.0146 58.1549 23.9419 57.6591 23.9419C56.5839 23.9419 56.0458 24.4182 56.0447 25.3707V28.3088H55.2812V23.4192Z" fill="#979FA8"/>
<path d="M62.4179 24.7909H61.6561C61.6561 24.2202 61.7949 23.8383 62.0692 23.6419C62.3435 23.4455 62.8838 23.3466 63.6869 23.3466C64.5583 23.3466 65.1472 23.4672 65.4534 23.7084C65.7591 23.9481 65.9128 24.4074 65.9128 25.0831V28.3119H65.1477L65.2072 27.7846H65.1907C64.8987 28.1877 64.3061 28.3892 63.4126 28.3892C62.0907 28.3892 61.4297 27.8923 61.4297 26.8985C61.4297 26.3089 61.5773 25.9011 61.8725 25.6754C62.1678 25.4496 62.7021 25.3372 63.4754 25.3383C64.3942 25.3383 64.945 25.5068 65.1279 25.8439H65.1444V25.2501C65.1444 24.6903 65.0623 24.3295 64.8982 24.1677C64.7329 24.0022 64.3744 23.9187 63.8191 23.9187C62.8794 23.9187 62.409 24.1661 62.4079 24.661C62.4112 24.6718 62.4129 24.7197 62.4179 24.7909ZM63.6473 25.8919C63.0601 25.8919 62.6784 25.9496 62.5021 26.065C62.3259 26.1805 62.2372 26.4295 62.2361 26.8119C62.2361 27.2078 62.3237 27.4702 62.4988 27.599C62.674 27.7258 63.0293 27.7908 63.5663 27.7908C64.6448 27.7908 65.1846 27.4815 65.1857 26.863C65.1857 26.4764 65.08 26.2181 64.8701 26.0898C64.6602 25.9614 64.2537 25.8919 63.6473 25.8919V25.8919Z" fill="#979FA8"/>
<path d="M67.8872 23.4192H68.6539L68.6374 24.1553L68.6539 24.1708C68.948 23.6218 69.5181 23.3466 70.3592 23.3466C71.2472 23.3466 71.7853 23.6213 71.9737 24.1708H71.9952C72.3257 23.6213 72.9255 23.3466 73.7947 23.3466C75.0274 23.3466 75.6438 23.9352 75.6438 25.1125V28.3119H74.8787V25.046C74.8787 24.6161 74.7961 24.3254 74.6325 24.1708C74.4689 24.0161 74.1582 23.9404 73.7021 23.9404C73.0973 23.9404 72.6859 24.0471 72.4711 24.2605C72.2563 24.4738 72.1488 24.879 72.1488 25.4821V28.3119H71.3755V25.1125L71.3656 24.8883C71.3656 24.2574 70.98 23.9414 70.2089 23.9404C69.1656 23.9404 68.6445 24.4713 68.6456 25.5331V28.3165H67.8789L67.8872 23.4192Z" fill="#979FA8"/>
<path d="M78.4643 21.3243V22.1284H77.6992V21.3243H78.4643ZM78.4643 23.4181V28.3108H77.6992V23.4181H78.4643Z" fill="#979FA8"/>
<path d="M83.9581 26.5521H84.7249V26.818C84.7249 27.8665 83.9917 28.3907 82.5254 28.3907C81.5857 28.3907 80.9639 28.2252 80.6598 27.8943C80.3558 27.5634 80.2049 26.8804 80.2071 25.8454C80.2071 24.8774 80.3607 24.2197 80.6681 23.8722C80.9754 23.5248 81.5621 23.3516 82.428 23.3527C83.2773 23.3527 83.8568 23.4697 84.1663 23.7037C84.4759 23.9377 84.6312 24.3774 84.6323 25.0227H83.8656V24.8944C83.8656 24.516 83.7653 24.2635 83.5648 24.1367C83.3643 24.0099 82.965 23.9465 82.3668 23.9465C81.7918 23.9465 81.42 24.0671 81.2564 24.3052C81.0928 24.5434 81.0101 25.0784 81.0101 25.9134C81.0101 26.7485 81.1043 27.2417 81.2927 27.4598C81.4811 27.6778 81.919 27.7922 82.6147 27.7922C83.1974 27.7922 83.5676 27.7196 83.7251 27.5742C83.8827 27.4289 83.9603 27.0881 83.9581 26.5521Z" fill="#979FA8"/>
<path d="M90.4103 24.6965H89.6452C89.6452 24.3563 89.5708 24.1445 89.4237 24.0625C89.2767 23.9806 88.895 23.9388 88.2835 23.9388C87.7135 23.9388 87.3532 23.9821 87.1995 24.0702C87.0459 24.1584 86.9698 24.3656 86.9698 24.6965C86.9698 25.1996 87.2271 25.4625 87.7416 25.4852L88.3596 25.5161L89.1412 25.5517C90.0897 25.596 90.5639 26.0599 90.5639 26.9434C90.5639 27.4939 90.407 27.8712 90.093 28.0753C89.779 28.2794 89.2051 28.3825 88.3711 28.3846C87.513 28.3846 86.923 28.2872 86.6014 28.0923C86.2709 27.8975 86.1172 27.5418 86.1172 27.0222V26.7563H86.9104V26.9867C86.9104 27.3068 86.9979 27.5217 87.1731 27.6284C87.3483 27.7351 87.6936 27.7908 88.2075 27.7908C88.8388 27.7908 89.2535 27.7341 89.4518 27.6207C89.6501 27.5093 89.7493 27.2727 89.7493 26.9155C89.7493 26.3991 89.4998 26.1424 89.0007 26.1424C87.8374 26.1424 87.0723 26.0501 86.7055 25.8656C86.3386 25.681 86.1552 25.2991 86.1552 24.7197C86.1552 24.1692 86.3006 23.8043 86.5914 23.6203C86.8823 23.4362 87.4573 23.3466 88.3216 23.3466C89.7074 23.3466 90.4003 23.7373 90.4003 24.5187L90.4103 24.6965Z" fill="#979FA8"/>
</svg>
