<svg width="119" height="31" viewBox="0 0 119 31" fill="none" xmlns="http://www.w3.org/2000/svg">
<path fill-rule="evenodd" clip-rule="evenodd" d="M27.9302 15.2767C28.1187 15.4185 28.2511 15.6098 28.308 15.8226C28.9001 17.8911 26.2446 20.2974 22.8688 20.3001C21.9888 20.2982 21.1182 20.1396 20.3092 19.8338C20.3092 19.8338 20.2948 19.8684 20.2669 19.9249C19.9883 20.4741 18.3356 23.4451 14.8464 24.2866H14.8402C14.4736 24.3628 14.0984 24.4016 13.7218 24.4023C12.6695 24.4023 11.7234 24.0726 11.1219 23.3212C9.40723 21.1972 10.4606 16.3418 10.8516 14.8017C10.8995 14.5955 11.013 14.4056 11.1787 14.2543C11.3444 14.103 11.5556 13.9965 11.7874 13.9473C11.8547 13.9317 11.9241 13.9244 11.9937 13.9255C12.6344 13.9255 12.9037 14.5749 13.0068 15.1742C13.088 15.6426 13.0845 16.1194 12.9965 16.5868C12.3218 20.3903 13.0564 23.691 15.0042 23.691C15.6903 23.691 16.5342 23.2748 17.5195 22.3184C18.3742 21.4934 19.0799 20.557 19.6118 19.5423C19.0786 19.281 18.5788 18.9699 18.121 18.6142C13.5908 15.1396 15.1311 6.97339 18.1911 6.97339C18.7751 6.97339 19.4188 7.27213 20.0833 7.95796C23.199 11.1812 21.6834 16.4192 20.7446 18.81C21.4258 19.1082 22.1756 19.264 22.9359 19.2654C24.0663 19.2736 25.1583 18.9032 25.9918 18.229C27.8014 16.7289 26.975 15.993 26.4045 15.7079C26.3611 15.6864 26.3247 15.6556 26.2986 15.6183C26.2725 15.581 26.2575 15.5385 26.2551 15.4946C26.2528 15.4508 26.2631 15.4072 26.285 15.3679C26.307 15.3286 26.3399 15.2948 26.3807 15.2698C26.6148 15.1193 26.896 15.0369 27.1855 15.0339C27.2102 15.0325 27.235 15.0325 27.2598 15.0339C27.5068 15.0498 27.7417 15.1348 27.9302 15.2767ZM20.0976 18.4715C21.1696 15.7708 21.0859 12.9347 20.7146 10.6621C20.7158 10.657 20.7158 10.6517 20.7146 10.6466C20.7131 10.6394 20.7131 10.632 20.7146 10.6248C20.4258 9.3797 19.7748 8.03537 18.3015 8.27491C18.125 8.30995 17.9586 8.3766 17.8125 8.47073C16.8809 9.1347 16.2371 10.8397 16.8912 13.6304C17.4601 16.0716 18.686 17.6266 20.0976 18.4715ZM5.03909 21.4235C7.68242 20.7696 9.95411 16.552 10.2491 15.9902C10.0379 17.0068 9.90755 18.0352 9.85911 19.0678C8.84186 21.0488 5.61265 23.2656 3.54925 23.476C1.33316 23.7065 2.5712 22.0015 2.5712 22.0015C2.65132 21.8806 2.72401 21.7604 2.79691 21.6398C2.81414 21.6113 2.83138 21.5828 2.84872 21.5543C3.183 20.9632 4.59745 18.3811 5.27218 15.8627C5.45729 15.0956 5.57832 14.3175 5.63431 13.5347C5.64153 12.2706 5.22886 11.2341 4.09399 10.7896C3.55881 10.5915 2.96568 10.5503 2.40199 10.6721C1.93901 10.7623 1.48196 10.8748 1.03293 11.0091C1.00602 11.0166 0.977497 11.0183 0.949679 11.0142C0.921861 11.0101 0.895558 11.0002 0.872906 10.9854C0.850255 10.9705 0.831914 10.9511 0.819382 10.9288C0.80685 10.9065 0.800466 10.8819 0.800793 10.857C0.800793 10.7569 0.928155 10.6746 1.02264 10.6136C1.03903 10.603 1.05443 10.5931 1.06801 10.5838C1.32758 10.4163 1.60383 10.27 1.89337 10.1466C2.29609 9.94962 2.71888 9.78647 3.15617 9.65931C3.59252 9.54797 4.0433 9.48675 4.49738 9.47716C11.7038 9.30866 5.30933 20.9367 5.04625 21.4085C5.04235 21.4129 5.03987 21.418 5.03909 21.4235ZM49.1605 8.28055H49.2853V8.12298H46.0447V8.27781H46.1861C46.4103 8.27781 46.5699 8.34035 46.6648 8.46544C46.7512 8.57035 46.8004 8.69556 46.8061 8.8252C46.8018 8.95893 46.7718 9.09105 46.7174 9.21593L44.7438 15.0159L41.5744 7.88799L41.397 7.87251L38.405 15.4849L36.0507 9.12303C36.0143 9.01671 35.9963 8.90619 35.997 8.79514C36.0035 8.66609 36.0633 8.54361 36.1652 8.45086C36.2267 8.39194 36.3023 8.34589 36.3866 8.31611C36.4708 8.28633 36.5616 8.27355 36.6521 8.27872H36.7935V8.12298H33.1464V8.27599H33.2878C33.9611 8.27599 34.4333 8.56259 34.7043 9.13578L38.4184 17.6863H38.5732C38.614 17.0966 38.7449 16.5145 38.9621 15.9558L41.2587 10.246L44.5519 17.6863H44.7293C44.7445 17.1896 44.882 16.6128 45.142 15.9558L47.7089 9.20318C47.9689 8.58809 48.4527 8.28055 49.1605 8.28055ZM52.836 17.1306C52.6213 17.2821 52.3535 17.3626 52.0787 17.3583H51.8569V17.5004H55.5141L55.4976 17.3583H55.2913C55.0178 17.3631 54.7507 17.2853 54.534 17.1379C54.4356 17.0773 54.354 16.9978 54.2954 16.9054C54.2368 16.8129 54.2027 16.71 54.1957 16.6042V9.84794C54.207 9.74331 54.2439 9.64209 54.3037 9.55122C54.3635 9.46035 54.4449 9.38198 54.5423 9.3215C54.7575 9.17776 55.0215 9.10263 55.2913 9.10838H55.4976V8.96538H51.8569V9.10838H52.0633C52.3429 9.10221 52.6162 9.18242 52.836 9.33516C52.9342 9.39658 53.0146 9.47758 53.0707 9.57158C53.1268 9.66558 53.157 9.76993 53.1589 9.87617V16.5896C53.157 16.6959 53.1268 16.8002 53.0707 16.8942C53.0146 16.9882 52.9342 17.0692 52.836 17.1306ZM59.1048 17.3583C59.3465 17.3634 59.5807 17.2842 59.7568 17.1379C59.8419 17.0702 59.9107 16.988 59.959 16.8963C60.0074 16.8046 60.0344 16.7053 60.0384 16.6042V9.87617C60.0331 9.77282 60.0039 9.67153 59.9526 9.5785C59.9013 9.48547 59.8291 9.40266 59.7403 9.33516C59.559 9.18614 59.3194 9.10487 59.0718 9.10838H58.8789V8.96538H62.2141V9.10838H62.0202C61.7726 9.10487 61.533 9.18614 61.3517 9.33516C61.2632 9.40198 61.1922 9.48496 61.1436 9.57836C61.095 9.67177 61.0699 9.77338 61.0701 9.87617V17.0596H63.5831C64.0163 17.0707 64.4465 16.9928 64.8397 16.8319C65.1442 16.7073 65.4119 16.5222 65.6217 16.2909C65.83 16.0341 66.0054 15.7576 66.1447 15.4666H66.3057L65.4195 17.5013H58.8789V17.3592L59.1048 17.3583ZM69.6168 17.1379C69.4405 17.2844 69.2059 17.3636 68.9638 17.3583L68.7389 17.3592V17.5013H75.2796L76.1657 15.4666H76.0048C75.8647 15.7572 75.6893 16.0336 75.4818 16.2909C75.2719 16.5222 75.0043 16.7073 74.6998 16.8319C74.3066 16.9928 73.8764 17.0707 73.4432 17.0596H70.9301V9.87617C70.9299 9.77338 70.955 9.67177 71.0037 9.57836C71.0523 9.48496 71.1233 9.40198 71.2118 9.33516C71.3931 9.18614 71.6326 9.10487 71.8803 9.10838H72.0742V8.96538H68.7389V9.10838H68.9318C69.1795 9.10487 69.4191 9.18614 69.6003 9.33516C69.6892 9.40266 69.7614 9.48547 69.8127 9.5785C69.8639 9.67153 69.8931 9.77282 69.8985 9.87617V16.6042C69.8945 16.7053 69.8675 16.8046 69.8191 16.8963C69.7707 16.988 69.7019 17.0702 69.6168 17.1379ZM81.5315 9.33061C82.381 8.9609 83.3153 8.7686 84.2623 8.7686C85.2094 8.7686 86.1437 8.9609 86.9931 9.33061C87.8038 9.68997 88.4878 10.2383 88.9707 10.9163C89.4506 11.6154 89.7043 12.4173 89.7043 13.2347C89.7043 14.0522 89.4506 14.854 88.9707 15.5532C88.4874 16.2309 87.8036 16.7791 86.9931 17.1388C86.2082 17.5038 85.3351 17.6962 84.448 17.6999C83.6639 17.7128 82.8834 17.602 82.1433 17.3729C81.5057 17.1698 80.918 16.8606 80.4122 16.4621C79.9172 16.0663 79.5218 15.5832 79.2516 15.044C78.9669 14.4848 78.8245 13.8281 78.8245 13.074C78.8285 12.3082 79.0832 11.5598 79.558 10.919C80.0392 10.2403 80.7217 9.691 81.5315 9.33061ZM81.2334 16.1433C82.0443 16.8975 83.0512 17.2746 84.2541 17.2746C84.8207 17.285 85.3834 17.1896 85.9054 16.9947C86.4274 16.7997 86.8968 16.5096 87.283 16.1433C88.0993 15.3898 88.5075 14.4204 88.5075 13.2352C88.5075 12.0499 88.0993 11.0802 87.283 10.3261C86.8968 9.95985 86.4274 9.66975 85.9054 9.4748C85.3834 9.27986 84.8207 9.18448 84.2541 9.1949C83.0512 9.1949 82.0443 9.57197 81.2334 10.3261C80.4225 11.0802 80.0171 12.0499 80.0171 13.2352C80.0171 14.4204 80.4225 15.3898 81.2334 16.1433ZM105.123 9.94417H105.227L105.225 9.81211H102.568V9.94053H102.685C102.759 9.93411 102.835 9.94492 102.904 9.9719C102.972 9.99887 103.032 10.0411 103.077 10.0945C103.147 10.1801 103.188 10.2826 103.192 10.3886C103.189 10.4984 103.165 10.6068 103.12 10.7092L101.494 15.4645L98.8953 9.61993L98.7498 9.60718L96.2966 15.8488L94.3695 10.64C94.3398 10.5513 94.3252 10.4592 94.3261 10.3668C94.3314 10.2611 94.3806 10.1609 94.4644 10.0853C94.5148 10.037 94.5768 9.99929 94.6459 9.97486C94.715 9.95044 94.7894 9.93995 94.8636 9.94417H94.9792V9.81302H91.9874V9.94144H92.104C92.6556 9.94144 93.0428 10.1764 93.2656 10.6464L96.3141 17.6595H96.4451C96.4781 17.1747 96.5853 16.6962 96.7639 16.2368L98.6518 11.5581L101.352 17.6604H101.494C101.521 17.1738 101.633 16.6938 101.827 16.2377L103.933 10.7001C104.145 10.1962 104.542 9.94417 105.123 9.94417ZM107.543 17.0326C107.501 16.8023 107.485 16.569 107.495 16.3359C107.496 15.9727 107.566 15.6124 107.701 15.2693H107.895C107.884 15.3543 107.878 15.4397 107.878 15.5253C107.869 15.7586 107.916 15.9911 108.014 16.2078C108.112 16.4245 108.261 16.6207 108.45 16.784C108.832 17.1113 109.361 17.2749 110.038 17.2749C110.746 17.2749 111.299 17.1304 111.696 16.8414C111.888 16.7076 112.041 16.5365 112.145 16.3414C112.248 16.1464 112.299 15.9328 112.293 15.7174C112.298 15.5006 112.249 15.2855 112.149 15.0875C112.048 14.8895 111.9 14.7136 111.713 14.5726L108.49 12.3821C107.975 11.9935 107.717 11.4719 107.717 10.8174C107.716 10.4531 107.836 10.0965 108.064 9.79273C108.305 9.47193 108.639 9.21402 109.031 9.04588C109.485 8.85434 109.985 8.7607 110.488 8.77265C110.986 8.76745 111.483 8.81021 111.971 8.90016H112.502L112.534 10.4485H112.358C112.358 10.0496 112.202 9.74112 111.89 9.52314C111.579 9.30516 111.132 9.19616 110.549 9.19616C109.97 9.19616 109.492 9.32671 109.116 9.5878C108.938 9.70409 108.793 9.8565 108.695 10.0322C108.597 10.208 108.548 10.4019 108.552 10.5979C108.552 11.0096 108.758 11.3684 109.18 11.6717L112.435 13.8904C112.928 14.2511 113.175 14.7535 113.176 15.3978C113.182 15.7076 113.111 16.0148 112.968 16.298C112.826 16.5812 112.615 16.8334 112.351 17.0372C111.8 17.4824 111.075 17.722 110.329 17.7057C109.796 17.7052 109.266 17.648 108.749 17.5354C108.22 17.4182 107.818 17.2506 107.543 17.0326ZM41.226 20.6973V22.6455H41.8099V19.7064H41.3013L40.0035 21.6546L38.682 19.7064H38.1733V22.6455H38.7624V20.7228L39.856 22.3094H40.1325L41.226 20.6973ZM44.2887 22.5289C44.0877 22.4346 43.9205 22.2927 43.8059 22.119C43.6926 21.9377 43.6332 21.7341 43.6332 21.527C43.6332 21.3199 43.6926 21.1163 43.8059 20.935C43.9213 20.7626 44.0884 20.6217 44.2887 20.5279C44.5049 20.4316 44.7436 20.3815 44.9856 20.3815C45.2277 20.3815 45.4664 20.4316 45.6825 20.5279C45.8826 20.6217 46.0494 20.7626 46.1643 20.935C46.2783 21.1161 46.3381 21.3198 46.3381 21.527C46.3381 21.7342 46.2783 21.9379 46.1643 22.119C46.0501 22.2926 45.8832 22.4345 45.6825 22.5289C45.4664 22.6251 45.2277 22.6753 44.9856 22.6753C44.7436 22.6753 44.5049 22.6251 44.2887 22.5289ZM45.5267 22.0334C45.6652 21.8923 45.7415 21.7119 45.7415 21.5252C45.7415 21.3385 45.6652 21.158 45.5267 21.017C45.3817 20.8932 45.1878 20.824 44.9861 20.824C44.7844 20.824 44.5906 20.8932 44.4455 21.017C44.309 21.1589 44.2341 21.339 44.2341 21.5252C44.2341 21.7114 44.309 21.8915 44.4455 22.0334C44.5906 22.1572 44.7844 22.2263 44.9861 22.2263C45.1878 22.2263 45.3817 22.1572 45.5267 22.0334ZM50.5991 21.3608C50.5984 21.0365 50.5018 20.7918 50.3092 20.6267C50.2063 20.5423 50.0855 20.4767 49.9538 20.4337C49.8221 20.3907 49.682 20.3712 49.5417 20.3762C49.3697 20.3739 49.1987 20.4008 49.0382 20.4554C48.8944 20.5055 48.7668 20.5863 48.6669 20.6904V20.4044H48.1015V22.6459H48.6957V21.512C48.6817 21.3291 48.7499 21.1488 48.8856 21.0101C48.9533 20.9513 49.0341 20.9055 49.1229 20.8755C49.2116 20.8456 49.3065 20.8322 49.4014 20.8362C49.4836 20.8317 49.5659 20.8428 49.6429 20.8685C49.7199 20.8943 49.7898 20.9341 49.8481 20.9855C49.9622 21.1101 50.0182 21.2684 50.0049 21.4282V22.6459H50.5991V21.3608ZM54.0697 22.5247C53.995 22.5777 53.9086 22.6161 53.816 22.6377C53.713 22.6635 53.6063 22.6764 53.4992 22.6759C53.2633 22.689 53.031 22.6197 52.8524 22.4828C52.7724 22.408 52.7108 22.3194 52.6716 22.2225C52.6323 22.1256 52.6163 22.0226 52.6244 21.92V20.8416H52.2066V20.4181H52.6244V19.9062H53.2186V20.4181H53.8944V20.8379H53.2145V21.9036C53.2077 21.9942 53.2401 22.0837 53.3053 22.154C53.3394 22.1838 53.3804 22.2069 53.4254 22.2216C53.4704 22.2364 53.5184 22.2425 53.5663 22.2397C53.6859 22.2436 53.8034 22.2114 53.8995 22.1486L54.0697 22.5247ZM57.8735 21.3339C57.8735 21.0151 57.7745 20.7765 57.5764 20.618C57.379 20.4602 57.0932 20.3803 56.7191 20.3785C56.5182 20.3776 56.3182 20.4015 56.1249 20.4495C55.9519 20.4913 55.7892 20.5611 55.6452 20.6554L55.8783 21.037C55.9818 20.9637 56.1002 20.9083 56.227 20.874C56.363 20.835 56.505 20.815 56.6479 20.8148C56.8179 20.8037 56.9866 20.8484 57.1214 20.9404C57.1765 20.9872 57.2192 21.0441 57.2466 21.1071C57.2741 21.17 57.2856 21.2375 57.2803 21.3048V21.3385H56.6242C56.26 21.3385 55.9928 21.3986 55.8236 21.5206C55.7411 21.5781 55.6751 21.6519 55.6308 21.7361C55.5866 21.8202 55.5653 21.9124 55.5688 22.0052C55.567 22.1286 55.6076 22.2496 55.6854 22.3522C55.7678 22.4576 55.8822 22.5403 56.0155 22.5908C56.173 22.6509 56.3433 22.6804 56.5148 22.6773C56.6817 22.6808 56.8477 22.6545 57.0028 22.5999C57.129 22.5538 57.2367 22.4754 57.3123 22.3749V22.6482H57.8735V21.3339ZM57.2793 21.9469C57.2349 22.0556 57.1482 22.1469 57.0348 22.2046C56.9135 22.2662 56.7754 22.2973 56.6356 22.2948C56.5095 22.3015 56.3843 22.2721 56.2786 22.211C56.2376 22.1856 56.2044 22.1515 56.1821 22.1119C56.1598 22.0723 56.149 22.0284 56.1507 21.9842C56.1507 21.7857 56.3226 21.6864 56.6665 21.6864H57.2793V21.9469ZM59.8522 19.944C59.8174 19.9152 59.7895 19.8805 59.7705 19.8419C59.7515 19.8032 59.7417 19.7616 59.7417 19.7194C59.7417 19.6773 59.7515 19.6357 59.7705 19.597C59.7895 19.5584 59.8174 19.5237 59.8522 19.4949C59.9252 19.4343 60.0224 19.4015 60.1226 19.4039C60.222 19.4009 60.319 19.4316 60.3939 19.4895C60.4292 19.5159 60.4574 19.549 60.4764 19.5864C60.4953 19.6238 60.5045 19.6644 60.5032 19.7053C60.5049 19.7483 60.4966 19.7912 60.4788 19.8313C60.4611 19.8714 60.4343 19.9078 60.4001 19.9385C60.3639 19.9692 60.321 19.9932 60.274 20.0088C60.227 20.0245 60.1768 20.0315 60.1267 20.0296C60.0768 20.0319 60.0269 20.0256 59.9798 20.0109C59.9327 19.9962 59.8894 19.9735 59.8522 19.944ZM59.8234 20.4039H60.4176V22.6454H59.8234V20.4039ZM64.9062 22.3049V20.4041H64.345V20.7019C64.2448 20.5934 64.1148 20.5094 63.9674 20.4578C63.8075 20.4035 63.6374 20.3766 63.4661 20.3786C63.239 20.3757 63.0145 20.4216 62.812 20.5125C62.6215 20.599 62.4618 20.7305 62.3508 20.8923C62.24 21.0647 62.1817 21.2596 62.1817 21.4579C62.1817 21.6562 62.24 21.8511 62.3508 22.0235C62.461 22.187 62.6207 22.3202 62.812 22.4078C63.0139 22.5004 63.2386 22.5474 63.4661 22.5445C63.6299 22.546 63.7926 22.5203 63.9458 22.4689C64.0872 22.4209 64.2143 22.3448 64.3172 22.2466V22.3641C64.3172 22.5936 64.2573 22.764 64.1222 22.876C63.987 22.988 63.7817 23.0436 63.5032 23.0436C63.328 23.0433 63.1539 23.0187 62.9874 22.9707C62.8343 22.9294 62.6915 22.863 62.5665 22.7749L62.3003 23.1702C62.4605 23.2812 62.6449 23.3618 62.8419 23.407C63.068 23.4625 63.3016 23.49 63.5362 23.489C64.4496 23.489 64.9062 23.0943 64.9062 22.3049ZM64.273 21.7099C64.2356 21.79 64.1793 21.8622 64.1077 21.9215C63.9516 22.0363 63.7549 22.0992 63.5517 22.0992C63.3485 22.0992 63.1517 22.0363 62.9956 21.9215C62.9241 21.8622 62.8677 21.79 62.8304 21.7099C62.793 21.6298 62.7755 21.5436 62.779 21.457C62.776 21.3718 62.7938 21.287 62.8311 21.2084C62.8685 21.1299 62.9246 21.0593 62.9956 21.0016C63.1521 20.8874 63.3487 20.8249 63.5517 20.8249C63.7547 20.8249 63.9513 20.8874 64.1077 21.0016C64.1788 21.0593 64.2349 21.1299 64.2722 21.2084C64.3096 21.287 64.3274 21.3718 64.3244 21.457C64.3279 21.5436 64.3104 21.6298 64.273 21.7099ZM69.3329 20.4057V22.6472H68.7676V22.3612C68.6712 22.4628 68.5489 22.5428 68.4106 22.5944C68.265 22.6496 68.108 22.6775 67.9495 22.6763C67.804 22.6834 67.6583 22.665 67.5209 22.6222C67.3835 22.5794 67.2571 22.513 67.1489 22.4268C66.9543 22.2604 66.8566 22.0133 66.8559 21.6854V20.4103H67.4501V21.6189C67.4345 21.7825 67.4898 21.9453 67.6049 22.0743C67.6617 22.1256 67.7304 22.1654 67.8062 22.1912C67.8821 22.217 67.9633 22.2281 68.0444 22.2237C68.1379 22.2277 68.2313 22.2142 68.3186 22.1843C68.4059 22.1543 68.485 22.1084 68.5509 22.0497C68.6851 21.9104 68.7525 21.7303 68.7387 21.5479V20.4057H69.3329ZM72.48 21.2625H71.1729V21.6987H72.48V21.2625ZM74.3773 19.7068H75.8319C76.1595 19.701 76.4839 19.7634 76.779 19.8889C77.0446 20.0031 77.2674 20.1824 77.4207 20.4053C77.5702 20.6405 77.6487 20.9057 77.6487 21.1754C77.6487 21.4451 77.5702 21.7103 77.4207 21.9455C77.2676 22.1686 77.0448 22.348 76.779 22.4619C76.4839 22.5874 76.1595 22.6498 75.8319 22.6441H74.3773V19.7068ZM75.8041 22.1841C76.0267 22.188 76.2473 22.1456 76.4479 22.0602C76.6269 21.9827 76.7759 21.86 76.876 21.7078C76.9742 21.544 77.0255 21.3616 77.0255 21.1763C77.0255 20.9911 76.9742 20.8086 76.876 20.6449C76.7759 20.4926 76.6269 20.37 76.4479 20.2924C76.2473 20.2071 76.0267 20.1646 75.8041 20.1685H74.9953V22.1841H75.8041ZM79.8215 21.6941H81.8136C81.8198 21.6276 81.8229 21.5757 81.8229 21.5402C81.8279 21.3289 81.7715 21.1201 81.6589 20.9336C81.5538 20.7624 81.3956 20.6212 81.2029 20.5265C80.9998 20.4281 80.7712 20.3782 80.5396 20.3817C80.3041 20.3785 80.0717 20.429 79.8649 20.5283C79.6684 20.6236 79.5061 20.7656 79.3965 20.9382C79.2823 21.118 79.224 21.3213 79.2273 21.5274C79.2235 21.7355 79.2833 21.9407 79.4006 22.1213C79.5168 22.2967 79.6876 22.4389 79.8927 22.5311C80.0987 22.6176 80.3221 22.6669 80.5499 22.6762C80.7777 22.6854 81.0054 22.6544 81.2194 22.5849C81.3876 22.5274 81.5366 22.4334 81.6527 22.3116L81.3339 21.9883C81.244 22.0686 81.1364 22.1317 81.0176 22.1735C80.8988 22.2154 80.7716 22.2351 80.6437 22.2315C80.4478 22.2374 80.255 22.1866 80.0949 22.0867C79.949 21.9925 79.8508 21.8515 79.8215 21.6941ZM79.8205 21.3462C79.8419 21.1922 79.9272 21.0507 80.0599 20.9491H80.0568C80.1925 20.8483 80.3654 20.7951 80.5426 20.7997C80.7192 20.7926 80.8922 20.8451 81.0264 20.9466C81.1605 21.0482 81.2458 21.1911 81.2648 21.3462H79.8205ZM83.5033 21.2625H84.8113V21.6987H83.5033V21.2625ZM89.8572 23.1984C90.0065 23.1382 90.1387 23.0492 90.244 22.9379L89.9593 22.6419C89.8892 22.7153 89.8019 22.7743 89.7033 22.8149C89.6048 22.8555 89.4975 22.8766 89.3888 22.8769C89.2897 22.8776 89.1918 22.8576 89.103 22.8186C89.0011 22.7703 88.9096 22.7064 88.8327 22.6301C89.0714 22.5719 89.2934 22.4695 89.4837 22.3295C89.6699 22.1923 89.8193 22.0202 89.9211 21.8259C90.0266 21.6241 90.0801 21.4042 90.0779 21.1819C90.0828 20.9089 90.0021 20.6401 89.8448 20.405C89.6909 20.1767 89.4689 19.9902 89.2031 19.8658C88.9191 19.7372 88.6046 19.6701 88.2854 19.6701C87.9663 19.6701 87.6517 19.7372 87.3678 19.8658C87.1015 19.9906 86.8795 20.1778 86.7261 20.4068C86.5694 20.6415 86.4887 20.9096 86.4929 21.1819C86.4907 21.4363 86.5617 21.687 86.6993 21.9106C86.8342 22.1286 87.0308 22.3121 87.2698 22.4434C87.5189 22.5805 87.8022 22.6618 88.0951 22.6802C88.2847 22.8654 88.5044 23.0247 88.7471 23.1529C88.9397 23.2446 89.1555 23.2916 89.3743 23.2895C89.5408 23.2898 89.7054 23.2588 89.8572 23.1984ZM87.6866 22.0754C87.5112 21.9888 87.3663 21.8611 87.2677 21.7065C87.1682 21.5432 87.1161 21.3606 87.1161 21.1751C87.1161 20.9896 87.1682 20.807 87.2677 20.6437C87.367 20.4907 87.5119 20.3647 87.6866 20.2793C87.8709 20.1927 88.0766 20.1473 88.2854 20.1473C88.4943 20.1473 88.6999 20.1927 88.8843 20.2793C89.0592 20.3645 89.2041 20.4905 89.3031 20.6437C89.4027 20.807 89.4547 20.9896 89.4547 21.1751C89.4547 21.3606 89.4027 21.5432 89.3031 21.7065C89.2049 21.8613 89.0599 21.989 88.8843 22.0754C88.6999 22.1621 88.4943 22.2074 88.2854 22.2074C88.0766 22.2074 87.8709 22.1621 87.6866 22.0754ZM94.3236 20.4057V22.6472H93.7572V22.3612C93.6613 22.4628 93.5393 22.5427 93.4013 22.5944C93.2556 22.6494 93.0986 22.6773 92.9402 22.6763C92.7945 22.6834 92.6487 22.6649 92.5112 22.6221C92.3736 22.5793 92.247 22.5129 92.1386 22.4268C91.9433 22.2604 91.8459 22.0133 91.8466 21.6854V20.4103H92.4408V21.6189C92.4254 21.7824 92.4803 21.945 92.5946 22.0743C92.6516 22.1256 92.7204 22.1655 92.7964 22.1913C92.8724 22.2171 92.9538 22.2281 93.0351 22.2237C93.1286 22.2276 93.222 22.2141 93.3093 22.1842C93.3965 22.1542 93.4757 22.1084 93.5416 22.0497C93.6758 21.9104 93.7432 21.7303 93.7294 21.5479V20.4057H94.3236ZM96.6778 21.6911H98.6699C98.6761 21.6246 98.6792 21.5727 98.6792 21.5372C98.6842 21.3259 98.6278 21.117 98.5152 20.9306C98.4101 20.7594 98.2519 20.6181 98.0592 20.5234C97.8561 20.4251 97.6274 20.3752 97.3958 20.3786C97.1604 20.3754 96.928 20.4259 96.7211 20.5253C96.5247 20.6205 96.3624 20.7625 96.2528 20.9351C96.1386 21.115 96.0802 21.3183 96.0836 21.5244C96.0797 21.7325 96.1396 21.9377 96.2569 22.1182C96.3731 22.2936 96.5439 22.4359 96.749 22.5281C96.9549 22.6146 97.1784 22.6639 97.4062 22.6731C97.634 22.6824 97.8616 22.6513 98.0757 22.5818C98.2438 22.5244 98.3929 22.4304 98.509 22.3086L98.1902 21.9853C98.1003 22.0656 97.9926 22.1286 97.8739 22.1705C97.7551 22.2123 97.6278 22.2321 97.5 22.2285C97.304 22.2345 97.1113 22.1837 96.9512 22.0836C96.8053 21.9895 96.7071 21.8485 96.6778 21.6911ZM96.6757 21.3432C96.6979 21.1892 96.7835 21.0479 96.9161 20.9461C97.0507 20.8461 97.222 20.793 97.3979 20.7967C97.5744 20.7895 97.7474 20.8421 97.8816 20.9436C98.0158 21.0451 98.1011 21.188 98.12 21.3432H96.6757ZM101.909 20.3785V20.8776C101.863 20.8697 101.817 20.8654 101.771 20.8648C101.671 20.8605 101.571 20.8745 101.478 20.9058C101.385 20.9372 101.3 20.9852 101.229 21.047C101.09 21.1891 101.02 21.3741 101.034 21.5616V22.6491H100.44V20.404H101.005V20.7309C101.176 20.496 101.478 20.3785 101.909 20.3785ZM103.545 22.1196C103.662 22.2939 103.832 22.4359 104.035 22.5294C104.254 22.6301 104.499 22.6811 104.746 22.6779C104.973 22.682 105.198 22.6349 105.399 22.5413C105.584 22.4536 105.734 22.3182 105.829 22.1533L105.373 21.9183C105.307 22.0158 105.213 22.096 105.1 22.1506C104.953 22.2174 104.786 22.2424 104.623 22.2222C104.459 22.2019 104.307 22.1375 104.187 22.0376C104.047 21.8965 103.969 21.7153 103.969 21.5276C103.969 21.3399 104.047 21.1586 104.187 21.0175C104.307 20.9177 104.459 20.8532 104.622 20.833C104.785 20.8128 104.951 20.8378 105.098 20.9046C105.21 20.9594 105.305 21.0395 105.371 21.1368L105.827 20.9018C105.735 20.7368 105.586 20.6017 105.402 20.5157C105.199 20.4234 104.972 20.3774 104.744 20.3818C104.497 20.3778 104.253 20.4282 104.033 20.5284C103.831 20.6219 103.662 20.7627 103.545 20.9355C103.43 21.1164 103.37 21.3203 103.37 21.5276C103.37 21.7349 103.43 21.9387 103.545 22.1196ZM109.872 20.4054L108.683 22.8272C108.606 23.0286 108.466 23.2067 108.28 23.3409C108.111 23.4431 107.909 23.4954 107.704 23.4903C107.576 23.4901 107.45 23.4717 107.329 23.4356C107.216 23.405 107.112 23.3534 107.024 23.2844L107.262 22.8983C107.322 22.947 107.392 22.9856 107.468 23.0121C107.542 23.0392 107.622 23.0535 107.703 23.054C107.796 23.0575 107.888 23.032 107.962 22.9821C108.045 22.9164 108.11 22.8348 108.151 22.7434L108.193 22.6523L107.085 20.4027H107.704L108.504 22.0603L109.306 20.4027L109.872 20.4054Z" fill="#979FA8"/>
</svg>
