<svg width="114" height="31" viewBox="0 0 114 31" fill="none" xmlns="http://www.w3.org/2000/svg">
<path fill-rule="evenodd" clip-rule="evenodd" d="M71.8969 3.78772H71.5002L66.724 5.34945V5.42084L68.8791 6.11866L68.9515 12.9323C67.9467 12.666 66.9065 12.5316 65.8613 12.5331C60.7624 12.5331 56.7386 15.4249 56.7386 20.5457C56.7386 24.9993 59.8997 27.4919 63.204 27.4919C64.8916 27.4919 66.9821 26.7941 68.5564 25.8894L68.9153 25.6898L69.0586 27.5837L69.5969 27.7163L74.1953 26.1211V26.054L71.8245 25.7539V6.91264L71.8969 3.78772ZM65.7196 26.0905C62.3429 26.0905 59.9737 23.3982 59.9737 19.542C59.9737 15.9203 61.984 13.2936 64.7861 13.2936C67.4072 13.2936 68.9169 14.9894 68.9169 18.2789V24.7269C68.4446 25.3256 67.2277 26.0905 65.7196 26.0905ZM13.1677 5.61467C5.12179 5.61467 0.101562 10.2678 0.101562 16.6488C0.101562 23.1317 5.23671 27.5853 13.0685 27.5853C15.5431 27.6094 18.0016 27.2144 20.3226 26.4198L21.1853 22.0653L20.5383 22.0318C20.5383 22.0318 19.2789 24.6541 18.3831 25.3563C17.2339 26.2202 15.6534 26.7854 13.5345 26.7854C7.82475 26.7854 3.7648 22.498 3.7648 16.0165C3.7648 10.3348 7.1069 6.44361 12.8513 6.44361C15.6534 6.44361 17.3063 7.10939 18.4555 7.87277C19.282 8.63761 20.1085 11.1973 20.1085 11.1973H20.7901L20.7177 6.6432C18.2721 5.95826 15.7307 5.61119 13.1756 5.61322L13.1677 5.61467ZM30.6142 12.5579C28.6401 12.5579 25.9104 13.8196 24.2228 15.3492C23.8623 15.6799 23.7505 15.9145 23.7505 16.1126C23.7505 16.3792 23.93 16.6458 24.2228 16.6458L26.7416 15.814L26.9226 14.2522C27.2799 14.0191 27.8561 13.786 28.7896 13.786C30.9448 13.786 31.9853 14.816 31.9507 16.7449L31.9145 19.8421C29.6161 20.4394 26.7069 21.2378 25.0902 21.9691C24.5602 22.2058 24.1154 22.5793 23.8096 23.0446C23.5037 23.5098 23.3498 24.047 23.3664 24.5914C23.3664 26.2872 24.8383 27.5503 27.1729 27.5503C28.6102 27.5503 29.6917 27.0506 30.5496 26.6528L31.9145 26.0541H31.9507C32.4529 26.8845 33.3155 27.5838 34.7843 27.7498L37.6179 26.4533L34.6363 24.9236L34.8646 15.8183C34.8945 13.8239 33.6745 12.5579 30.6142 12.5579ZM28.9266 26.3833C27.3524 26.3833 26.3417 25.4189 26.3417 23.8907C26.3417 22.8607 26.7006 22.1629 28.0293 21.6311C28.6776 21.3731 29.5655 21.1162 30.6002 20.8168L30.6002 20.8168L30.6012 20.8165C30.7697 20.7678 30.9421 20.7179 31.1179 20.6667L31.872 20.4336L31.8011 25.1873C31.5131 25.7511 30.2568 26.3833 28.9266 26.3833ZM43.3359 12.3945H43.7673L43.7767 14.622H43.8476C44.9259 13.9576 47.44 12.4935 49.6313 12.4935C52.7561 12.4935 53.94 14.0567 53.94 16.848V25.9897L55.8086 27.1551V27.2207H49.1968V27.1551L50.9914 25.9897V17.186C50.9914 15.2586 49.4833 14.029 47.4368 14.029C45.532 14.029 44.2458 14.9541 43.7736 15.4859V25.9897L45.5698 27.1551V27.2207H39.0257V27.1551L40.8219 25.9897V14.9541L38.6306 14.2563V14.1893L43.3359 12.3945ZM74.8134 20.5406C74.8134 15.6879 78.2263 12.4974 82.4626 12.4974H82.4657C85.9873 12.4974 87.8905 14.2587 87.9614 17.117L87.6025 17.6473L77.9382 17.388C77.8365 17.9595 77.7886 18.5381 77.795 19.1173C77.795 22.6399 79.6982 25.9309 83.5771 25.9309C85.7323 25.9309 86.9177 25.0335 87.8512 24.0691L88.2101 24.595C86.6296 26.1917 84.6177 27.5538 81.6361 27.5538C77.9382 27.5538 74.8134 24.9271 74.8134 20.5406ZM81.9273 13.1617C79.8084 13.1617 78.5207 14.7234 78.0484 16.8184H84.9436V16.6843C84.9436 14.856 83.9738 13.1617 81.9273 13.1617ZM94.2494 3.78772L89.437 5.34945V5.38296L91.6283 6.11429V25.9899L89.8321 27.1525V27.2195H96.3699V27.1525L94.5737 25.9899V6.84562L94.6445 3.78772H94.2494ZM99.0939 15.3492C100.783 13.8196 103.513 12.5579 105.488 12.5579C108.539 12.5579 109.762 13.8239 109.709 15.8169L109.495 24.9236L112.476 26.4533L109.643 27.7498C108.173 27.5838 107.313 26.8845 106.809 26.0541H106.773L105.408 26.6528C104.55 27.0506 103.469 27.5503 102.031 27.5503C99.6968 27.5503 98.2249 26.2872 98.2249 24.5914C98.2091 24.0462 98.3641 23.5085 98.6714 23.0431C98.9787 22.5778 99.4251 22.2047 99.9566 21.9691C101.573 21.2378 104.483 20.4394 106.781 19.8421L106.82 16.7449C106.856 14.816 105.814 13.786 103.659 13.786C102.726 13.786 102.151 14.0191 101.792 14.2522L101.613 15.814L99.0939 16.6458C98.8011 16.6458 98.6216 16.3792 98.6216 16.1126C98.6216 15.9145 98.735 15.6799 99.0939 15.3492ZM101.214 23.8907C101.214 25.4189 102.225 26.3833 103.799 26.3833C105.13 26.3833 106.386 25.7511 106.672 25.1873L106.745 20.4336L105.991 20.6667C105.822 20.7157 105.657 20.7635 105.495 20.8103C104.45 21.1125 103.555 21.3712 102.902 21.6311C101.573 22.1629 101.214 22.8607 101.214 23.8907Z" fill="#979FA8"/>
</svg>
