<svg width="82" height="31" viewBox="0 0 82 31" fill="none" xmlns="http://www.w3.org/2000/svg">
<path d="M3.47089 8.24036H5.34671H7.22252L4.15007 20.5842H2.27425H0.398438L3.47089 8.24036Z" fill="#979FA8"/>
<path d="M26.9023 20.6055L29.9748 8.2616L38.0602 8.28234L37.5751 10.2117L37.09 12.1411L32.7724 12.1204L32.3519 13.8008L36.6695 13.8215L36.2652 15.4605L35.861 17.0994L31.5434 17.0786L30.654 20.6262H28.7782L26.9023 20.6055Z" fill="#979FA8"/>
<path d="M39.1271 8.28271H41.003H42.8788L39.8063 20.6266H37.9305H36.0547L39.1271 8.28271Z" fill="#979FA8"/>
<path d="M44.5755 20.6478H42.829H41.0664L44.1389 8.30396H46.3057H48.4726L49.168 13.8431L50.5425 8.30396H52.289H54.0516L50.9791 20.6686H49.0548H47.1305L46.2734 13.8639L44.5755 20.6478Z" fill="#979FA8"/>
<path d="M55.2332 8.3252H57.109H58.9848L55.9123 20.6691H54.0365H52.1445L55.2332 8.3252Z" fill="#979FA8"/>
<path d="M61.3452 12.2051H58.8711L59.3562 10.2757L59.8413 8.34631L68.5251 8.36706L68.0399 10.2964L67.5548 12.2258H65.0969L62.9785 20.7317H61.1027H59.2107L61.3452 12.2051Z" fill="#979FA8"/>
<path d="M69.982 17.0778L69.0117 8.3645H70.9522H72.8927L73.0706 12.41L75.2537 8.38525H77.1618H79.0538L73.6851 17.3268L72.8442 20.7291H70.9684H69.0764L69.982 17.0778Z" fill="#979FA8"/>
<path d="M15.8398 27.6385L17.182 22.369H17.7642L16.422 27.6385H15.8398Z" fill="#979FA8"/>
<path d="M17.4102 27.6385L18.7523 22.369H19.5447L20.9839 26.8502L22.132 22.369H22.698L21.3558 27.6385H20.5635L19.1404 23.1574L17.9923 27.6385H17.4102Z" fill="#979FA8"/>
<path d="M25.4307 22.3716C25.7702 22.3508 26.1098 22.3923 26.4494 22.4753C26.6758 22.5375 26.8699 22.7035 27.0154 22.9317C27.1609 23.1599 27.2418 23.4504 27.2418 23.7408C27.258 24.1765 27.2094 24.5914 27.0962 25.0063C26.9831 25.4627 26.8213 25.8777 26.595 26.2718C26.4009 26.6245 26.1422 26.9149 25.8673 27.1432C25.657 27.3299 25.4145 27.4543 25.1719 27.5166C24.8162 27.5996 24.4604 27.6411 24.0885 27.6203H22.2773L23.6195 22.3508H25.4307V22.3716ZM25.4468 23.0354H24.0238L23.0212 26.9772H24.4281C24.6545 26.9772 24.8808 26.9564 25.1072 26.8942C25.2851 26.832 25.4468 26.749 25.6085 26.6245C25.8026 26.4378 25.9805 26.2303 26.1098 25.9606C26.2715 25.6702 26.3847 25.359 26.4656 25.0063C26.5464 24.6951 26.595 24.3839 26.5788 24.0727C26.5788 23.8445 26.5303 23.5956 26.4171 23.4089C26.32 23.2637 26.2069 23.1807 26.0613 23.1184C25.8834 23.0562 25.6732 23.0354 25.4468 23.0354Z" fill="#979FA8"/>
<path d="M32.0915 22.369L31.2506 25.6676C31.105 26.29 30.7978 26.8502 30.3935 27.2236C29.9569 27.597 29.4233 27.7837 28.9058 27.763C28.3075 27.763 27.9032 27.5763 27.693 27.2236C27.4828 26.8709 27.4666 26.3523 27.6283 25.6676L28.4692 22.369H29.0513L28.2913 25.3564C28.1458 25.9373 28.1296 26.373 28.259 26.6427C28.3883 26.9124 28.6632 27.0576 29.0837 27.0576C29.4556 27.0784 29.8275 26.9331 30.1186 26.6427C30.4259 26.3108 30.6523 25.8543 30.7493 25.3564L31.5093 22.369H32.0915Z" fill="#979FA8"/>
<path d="M31.9622 25.8561H32.5767C32.5282 26.0014 32.512 26.1673 32.5282 26.3333C32.5444 26.4993 32.5929 26.6445 32.6899 26.769C32.9486 26.9972 33.2559 27.1216 33.5631 27.0594C33.8704 27.0801 34.1776 26.9972 34.4687 26.8312C34.5819 26.769 34.6789 26.686 34.7598 26.5615C34.8406 26.4578 34.9053 26.3125 34.9376 26.1673C34.97 26.0843 34.97 26.0014 34.97 25.9184C34.97 25.8354 34.9376 25.7524 34.8891 25.6902C34.7598 25.5449 34.5819 25.4412 34.4202 25.4412L33.4661 25.213C33.175 25.1715 32.8839 25.0055 32.6899 24.7359C32.6252 24.6114 32.5767 24.4454 32.5767 24.2794C32.5605 24.1135 32.5929 23.9682 32.6414 23.823C32.7707 23.3251 33.0295 22.9102 33.3852 22.6405C33.8057 22.3501 34.2908 22.2048 34.7759 22.2256C35.2934 22.2256 35.6653 22.3708 35.8755 22.6613C36.0858 22.9517 36.1181 23.3459 35.9887 23.906H35.4066C35.4389 23.7815 35.4551 23.6363 35.4389 23.5118C35.4228 23.3874 35.3742 23.2629 35.2934 23.1592C35.0832 22.9724 34.8083 22.8895 34.5495 22.9102C34.2585 22.8895 33.9674 22.9724 33.6925 23.1177C33.5955 23.1799 33.4984 23.2629 33.4338 23.3666C33.3529 23.4703 33.3044 23.5948 33.272 23.74C33.2397 23.823 33.2397 23.8853 33.2397 23.9682C33.2397 24.0512 33.272 24.1342 33.3044 24.1965C33.4499 24.3417 33.6278 24.4247 33.8057 24.4662L34.6466 24.6944C34.97 24.7358 35.2772 24.9018 35.5036 25.1923C35.5683 25.3375 35.6168 25.4827 35.6168 25.6487C35.6168 25.8146 35.6006 25.9806 35.5521 26.1258C35.4228 26.6445 35.1479 27.0801 34.7759 27.3498C34.3393 27.661 33.8542 27.8063 33.3529 27.7855C32.7384 27.7855 32.318 27.6195 32.0916 27.3084C31.849 26.9764 31.8167 26.4993 31.9622 25.8561Z" fill="#979FA8"/>
<path d="M38.7049 23.0536L37.5406 27.6385H36.9584L38.1227 23.0536H36.5703L36.7482 22.369H40.4513L40.2734 23.0536H38.7049Z" fill="#979FA8"/>
<path d="M39.5469 27.6385L40.8891 22.369H43.0398C43.5087 22.369 43.8483 22.4935 44.0262 22.7424C44.2041 22.9914 44.2364 23.3441 44.1232 23.8212C44.0424 24.1324 43.913 24.4229 43.7351 24.6511C43.5572 24.8793 43.3308 25.0245 43.0883 25.1075C43.1691 25.1075 43.2338 25.149 43.2985 25.1905C43.3632 25.232 43.4117 25.315 43.4602 25.3979C43.5249 25.6261 43.5249 25.8751 43.4602 26.0826L43.2985 26.9331C43.2662 27.0784 43.25 27.2236 43.2338 27.3688C43.2338 27.4518 43.25 27.5348 43.2662 27.6178H42.587C42.5708 27.5555 42.5708 27.4725 42.587 27.4103C42.587 27.3273 42.6193 27.2236 42.6355 27.0576L42.781 26.2693C42.8457 25.9166 42.8457 25.6676 42.7649 25.5432C42.684 25.4187 42.49 25.3564 42.1989 25.3564H40.6788L40.0967 27.6178L39.5469 27.6385ZM42.6032 23.0121H41.2933L40.8567 24.7341H42.1989C42.5061 24.7548 42.8134 24.6926 43.1045 24.5473C43.2015 24.4851 43.2985 24.3814 43.3632 24.2777C43.4279 24.1739 43.4926 24.0287 43.5249 23.8835C43.6057 23.5723 43.5734 23.3441 43.4602 23.2196C43.1853 23.0329 42.8942 22.9707 42.6032 23.0121Z" fill="#979FA8"/>
<path d="M44.0586 27.6385L45.4008 22.369H45.9829L44.6407 27.6385H44.0586Z" fill="#979FA8"/>
<path d="M45.1094 27.6385L48.392 22.369H49.0065L49.4917 27.6385H48.8933L48.7478 26.1448H46.6618L45.7239 27.6385H45.1094ZM47.0822 25.4602H48.6993L48.4891 23.2196L47.0822 25.4602Z" fill="#979FA8"/>
<path d="M49.9766 27.6385L51.3187 22.369H51.9009L50.7366 26.9124H53.2431L53.0652 27.6178H49.9766V27.6385Z" fill="#979FA8"/>
<path d="M55.4922 27.6385L56.8344 22.369H58.7264C59.2276 22.369 59.5834 22.4935 59.7613 22.7424C59.9392 22.9914 59.9715 23.3856 59.826 23.9042C59.7128 24.3814 59.4864 24.7963 59.163 25.066C58.791 25.3357 58.3706 25.4809 57.934 25.4394H56.6241L56.0743 27.597H55.4922V27.6385ZM56.7859 24.8793H57.8693C58.1927 24.9 58.5161 24.8378 58.8234 24.6718C59.0336 24.5266 59.1791 24.2777 59.26 23.9872C59.3408 23.6345 59.3247 23.4063 59.1953 23.2818C58.9366 23.1159 58.6455 23.0329 58.3706 23.0744H57.2548L56.7859 24.8793Z" fill="#979FA8"/>
<path d="M58.5469 27.6385L61.8295 22.369H62.444L62.9292 27.6385H62.3308L62.1853 26.1448H60.0993L59.1614 27.6385H58.5469ZM60.5197 25.4602H62.1368L61.9266 23.2196L60.5197 25.4602Z" fill="#979FA8"/>
<path d="M63.418 27.6385L64.7601 22.369H66.9109C67.3798 22.369 67.7194 22.4935 67.8973 22.7424C68.0752 22.9914 68.1075 23.3441 67.9943 23.8212C67.9296 24.1324 67.7841 24.4229 67.6062 24.6511C67.4283 24.8793 67.2019 25.0245 66.9594 25.1075C67.0402 25.1075 67.1211 25.149 67.1858 25.1905C67.2505 25.232 67.299 25.315 67.3475 25.3979C67.4122 25.6261 67.4122 25.8543 67.3475 26.0826L67.1858 26.9331C67.1534 27.0784 67.1373 27.2236 67.1211 27.3688C67.1211 27.4518 67.1373 27.5348 67.1534 27.6178H66.4743C66.4743 27.5555 66.4743 27.4725 66.4743 27.4103C66.4904 27.2858 66.5066 27.1821 66.5389 27.0576L66.6845 26.2693C66.7492 25.9166 66.7492 25.6676 66.6683 25.5432C66.5874 25.4187 66.3934 25.3564 66.1023 25.3564H64.5661L63.9839 27.6178L63.418 27.6385ZM66.4743 23.0121H65.1644L64.7278 24.7341H66.07C66.3772 24.7548 66.7006 24.6926 66.9755 24.5473C67.0726 24.4851 67.1696 24.3814 67.2343 24.2777C67.299 24.1739 67.3636 24.0287 67.396 23.8835C67.4768 23.5723 67.4445 23.3441 67.3313 23.2196C67.0564 23.0329 66.7653 22.9707 66.4743 23.0121Z" fill="#979FA8"/>
<path d="M67.8945 27.6385L69.2367 22.369H69.8189L69.1235 25.066L72.2121 22.369H72.956L70.4495 24.5473L71.6138 27.6178H70.9346L69.9482 24.983L68.9295 25.8543L68.4767 27.597H67.8945V27.6385Z" fill="#979FA8"/>
<path d="M5.20312 20.6686H8.61517L10.6689 12.5361L25.5784 20.6063L28.7317 8.30396L25.3681 8.3247L23.3144 16.3119L8.38878 8.34545L5.20312 20.6686Z" fill="#979FA8"/>
<path d="M8.61181 20.6694L13.6894 23.3042L15.5653 15.9601L16.8589 16.624L14.4818 25.69L5.18359 20.6487H8.61181V20.6694Z" fill="#979FA8"/>
<path d="M25.3489 8.36641L19.7376 5.50346L17.9265 12.6401L16.6328 11.9762L18.9452 3.09692L28.7609 8.34566H25.3489V8.36641Z" fill="#979FA8"/>
<path d="M81.9962 7.32815C82.0123 7.63934 81.9315 7.95054 81.8021 8.22023C81.6728 8.48993 81.4787 8.69739 81.2523 8.82187C81.0259 8.94634 80.7672 8.98784 80.5246 8.9256C80.2821 8.86336 80.0557 8.71814 79.8778 8.48993C79.6999 8.26173 79.5867 7.97128 79.5382 7.66009C79.4897 7.3489 79.5059 7.01697 79.6029 6.72652C79.6999 6.43608 79.8616 6.18712 80.0718 6.00041C80.2821 5.83444 80.5246 5.73071 80.7672 5.73071C80.9289 5.73071 81.0906 5.7722 81.2361 5.83444C81.3817 5.91743 81.5272 6.02116 81.6404 6.16638C81.7536 6.3116 81.8506 6.47757 81.9153 6.66428C81.9638 6.93398 81.9962 7.12069 81.9962 7.32815ZM79.8131 7.32815C79.8131 7.49412 79.8293 7.66009 79.8778 7.80531C79.9263 7.95054 79.991 8.09576 80.0718 8.19949C80.1689 8.32396 80.2659 8.40695 80.3791 8.46919C80.4923 8.53142 80.6217 8.57292 80.751 8.57292C80.8804 8.57292 80.9936 8.53142 81.1068 8.46919C81.22 8.40695 81.317 8.32396 81.414 8.19949C81.4949 8.07501 81.5757 7.95054 81.6081 7.80531C81.6566 7.66009 81.6728 7.49412 81.6728 7.32815C81.6889 7.16219 81.6566 6.99622 81.6242 6.851C81.5757 6.70578 81.511 6.56055 81.4302 6.43608C81.3493 6.3116 81.2361 6.22862 81.1229 6.16638C81.0098 6.10414 80.8804 6.06265 80.751 6.06265C80.6217 6.06265 80.4923 6.10414 80.3791 6.16638C80.2659 6.22862 80.1527 6.33235 80.0718 6.43608C79.991 6.56055 79.9101 6.68503 79.8778 6.851C79.8293 7.01697 79.7969 7.18293 79.8131 7.32815ZM80.557 8.15799H80.2821V6.60204C80.4438 6.56055 80.5893 6.56055 80.751 6.56055C80.8966 6.53981 81.0421 6.5813 81.1715 6.68503C81.22 6.72652 81.2523 6.76801 81.2685 6.83025C81.2847 6.89249 81.3008 6.95473 81.3008 7.01696C81.3008 7.09995 81.2685 7.18293 81.2361 7.26592C81.1876 7.32816 81.123 7.36965 81.0583 7.39039V7.41114C81.1715 7.45263 81.2361 7.57711 81.2685 7.78457C81.2847 7.90904 81.317 8.03352 81.3655 8.15799H81.0744C81.0259 8.03352 80.9936 7.90904 80.9774 7.78457C80.9451 7.6186 80.8804 7.55636 80.7187 7.55636H80.5893L80.557 8.15799ZM80.557 7.28666H80.6863C80.848 7.28666 80.9612 7.22443 80.9612 7.05846C80.9612 6.89249 80.8804 6.83025 80.6863 6.83025C80.6378 6.83025 80.5893 6.83025 80.5246 6.851L80.557 7.28666Z" fill="#979FA8"/>
</svg>
