<svg width="18" height="20" viewBox="0 0 18 20" fill="none" xmlns="http://www.w3.org/2000/svg">
<path d="M2.809 10.6547L0 9.02246C0.30211 12.2248 1.44013 15.5689 4.23204 17.192L5.37673 17.8587C5.37007 17.8508 5.36423 17.8416 5.35756 17.8333C3.71075 15.8843 3.00652 13.177 2.809 10.6547Z" fill="#979FA8"/>
<path d="M17.3366 1.87755C17.3616 1.87171 17.3866 1.86753 17.4116 1.8617L17.4187 1.85961L14.6868 0.271973C12.7038 0.800948 10.6189 0.817008 8.62793 0.318643L10.4998 1.40667C12.8416 2.08214 14.976 2.41468 17.3366 1.87755Z" fill="#979FA8"/>
<path d="M10.1024 1.68055L7.21051 0C6.08124 1.61848 1.8196 6.90228 0.109863 8.5816L2.98762 10.2534C5.68998 7.68728 8.07828 4.80954 10.1024 1.68055V1.68055Z" fill="#979FA8"/>
<path d="M10.508 1.86377C8.44167 5.05679 6.00403 7.99353 3.24609 10.6125C3.41278 12.7497 3.9449 14.9745 5.10084 16.7497C5.66863 17.6624 6.44043 18.431 7.35553 18.995C8.27064 19.559 9.3041 19.903 10.3746 20C14.5986 14.968 17.1807 8.76347 17.7737 2.22048C15.2726 2.87345 13.0011 2.57258 10.508 1.86377ZM10.0771 18.3815C10.0522 18.4126 10.0191 18.4362 9.98166 18.4498C9.94418 18.4634 9.90369 18.4664 9.8646 18.4586C5.94092 17.6768 4.90832 13.5198 4.64205 11.1117C4.63832 11.0782 4.6424 11.0443 4.65396 11.0126C4.66553 10.9809 4.68427 10.9524 4.70872 10.9292C6.99684 8.70654 9.04354 6.2482 10.8147 3.59516C10.8398 3.55827 10.8757 3.53001 10.9174 3.51421C10.9592 3.4984 11.0048 3.49583 11.048 3.50683C12.6578 3.94805 14.3346 4.09152 15.996 3.9302C16.0293 3.92631 16.0631 3.93019 16.0947 3.94154C16.1263 3.95289 16.1548 3.9714 16.1781 3.99561C16.2013 4.01983 16.2187 4.0491 16.2287 4.08112C16.2388 4.11315 16.2413 4.14708 16.236 4.18024C15.4886 9.37919 13.3619 14.2829 10.0771 18.3815V18.3815Z" fill="#979FA8"/>
<path d="M11.0889 3.96436C9.34158 6.56612 7.33078 8.98089 5.08838 11.1704C5.40966 13.9132 6.49892 17.2622 9.82131 18.0044C12.9518 14.0606 14.9997 9.36854 15.7627 4.39146C14.1919 4.50852 12.6125 4.3642 11.0889 3.96436V3.96436ZM10.313 7.07796C10.4358 6.97936 10.5854 6.92002 10.7424 6.90768C10.8994 6.89535 11.0564 6.93058 11.1931 7.00878C11.3298 7.08699 11.4397 7.20454 11.5086 7.34613C11.5775 7.48773 11.6022 7.64681 11.5794 7.80262C11.5639 8.16493 11.4611 8.51813 11.2797 8.83214C11.0983 9.14616 10.8437 9.41169 10.5376 9.60611C10.4151 9.70428 10.2659 9.7634 10.1094 9.77581C9.95295 9.78822 9.79633 9.75333 9.65988 9.6757C9.52343 9.59807 9.41344 9.48125 9.34415 9.34038C9.27485 9.19951 9.24946 9.0411 9.27125 8.88563C9.2884 8.52314 9.39188 8.16997 9.57308 7.85554C9.75428 7.54112 10.008 7.27454 10.313 7.07796V7.07796ZM12.6403 12.0159L8.45743 14.4328C8.42367 14.4501 8.3862 14.459 8.34825 14.4586C8.29052 14.4584 8.23522 14.4354 8.19439 14.3945C8.15357 14.3537 8.13054 14.2984 8.13032 14.2407V13.9927C8.17026 13.2316 8.38961 12.4908 8.77046 11.8306C9.15131 11.1704 9.68287 10.6096 10.3218 10.1941C11.6273 9.44399 12.7453 10.0807 12.7453 11.5784L12.7495 11.8226C12.7494 11.8614 12.7393 11.8996 12.7201 11.9335C12.701 11.9673 12.6735 11.9957 12.6403 12.0159V12.0159Z" fill="#979FA8"/>
</svg>
