<svg width="17" height="24" viewBox="0 0 17 24" fill="none" xmlns="http://www.w3.org/2000/svg">
<path d="M14.1357 0L0.259766 8.01115L2.64669 9.39809L16.5226 1.38694L14.1357 0Z" fill="#979FA8"/>
<path d="M0 8.46924V8.69523C0 9.45369 0.010501 12.4451 0.0389998 22.6111L2.42339 23.9966C2.41889 22.3676 2.38589 10.7831 2.38289 9.85468L0 8.46924Z" fill="#979FA8"/>
<path d="M16.787 1.84375C13.5112 3.73567 6.17399 7.97148 2.91113 9.8549C2.91113 9.64641 2.92014 12.9548 2.92014 13.0098L16.796 4.99761L16.787 1.84375ZM8.97886 8.23948L3.7636 11.2498C3.70333 11.2818 3.63298 11.2892 3.56739 11.2704C3.50179 11.2515 3.44608 11.208 3.41194 11.1489C3.37779 11.0899 3.3679 11.0198 3.38435 10.9536C3.40079 10.8874 3.44228 10.8301 3.5001 10.7939L8.7149 7.78299C8.7753 7.75014 8.84613 7.74221 8.91231 7.76088C8.97848 7.77956 9.03474 7.82335 9.06907 7.88293C9.1034 7.94251 9.11309 8.01315 9.09605 8.07976C9.07901 8.14638 9.03661 8.2037 8.97789 8.23948H8.97886ZM10.6453 7.87749C10.5598 7.94208 10.4572 7.98013 10.3503 7.98692C10.2433 7.99371 10.1367 7.96893 10.0438 7.91568C9.95078 7.86242 9.8755 7.78303 9.82725 7.68735C9.77899 7.59168 9.7599 7.48394 9.77235 7.37752C9.78384 7.15193 9.84876 6.93229 9.96176 6.73671C10.0748 6.54113 10.2326 6.37519 10.4223 6.25256C10.5078 6.18773 10.6104 6.14947 10.7174 6.14256C10.8245 6.13565 10.9311 6.16039 11.0242 6.21369C11.1173 6.267 11.1926 6.34652 11.2408 6.44234C11.289 6.53815 11.3079 6.64604 11.2953 6.75254C11.2837 6.97811 11.2188 7.19771 11.1058 7.39328C10.9928 7.58885 10.8349 7.75481 10.6453 7.87749V7.87749ZM13.0897 6.47155C13.0039 6.53664 12.9009 6.57513 12.7935 6.58223C12.686 6.58933 12.5789 6.56473 12.4853 6.51149C12.3917 6.45826 12.3158 6.37872 12.267 6.28274C12.2182 6.18676 12.1986 6.07856 12.2107 5.97157C12.22 5.74263 12.2851 5.51942 12.4002 5.32129C12.5153 5.12317 12.6769 4.95611 12.8712 4.83462C12.9567 4.76951 13.0595 4.73114 13.1667 4.72432C13.2739 4.71751 13.3807 4.74257 13.4737 4.79634C13.5667 4.85011 13.6417 4.93019 13.6893 5.0265C13.7369 5.12282 13.755 5.23106 13.7412 5.3376C13.7316 5.56504 13.6674 5.78682 13.554 5.9842C13.4406 6.18157 13.2814 6.34874 13.0897 6.47155V6.47155ZM15.5326 5.08911C15.4439 5.15582 15.3377 5.19507 15.2269 5.202C15.1162 5.20894 15.0058 5.18327 14.9095 5.12815C14.8132 5.07303 14.7352 4.99089 14.6851 4.89189C14.635 4.79289 14.615 4.68137 14.6276 4.57113C14.6385 4.33688 14.7056 4.10867 14.8231 3.90576C14.9407 3.70284 15.1053 3.53116 15.3031 3.40518C15.391 3.33721 15.4971 3.29673 15.6079 3.28882C15.7188 3.28091 15.8295 3.30592 15.9262 3.36073C16.0228 3.41553 16.1012 3.49768 16.1513 3.59686C16.2015 3.69603 16.2212 3.80781 16.2081 3.91816C16.1975 4.15316 16.1306 4.38219 16.013 4.58596C15.8955 4.78973 15.7307 4.96228 15.5326 5.08911V5.08911Z" fill="#979FA8"/>
<path d="M16.7978 5.60645L6.66021 11.4587L2.92188 13.6171L2.93185 17.117L2.95135 24.0002L16.8272 15.9895L16.7978 5.60645ZM6.28373 13.0806C6.40893 12.9811 6.56106 12.9215 6.72051 12.9093C6.87995 12.8971 7.03938 12.933 7.17822 13.0123C7.31707 13.0917 7.42895 13.2108 7.49944 13.3543C7.56992 13.4979 7.59577 13.6592 7.57365 13.8176C7.5573 14.1828 7.45339 14.5388 7.27066 14.8554C7.08792 15.172 6.83175 15.4401 6.52371 15.637C6.39848 15.7365 6.24628 15.7963 6.08678 15.8084C5.92727 15.8206 5.76778 15.7846 5.62891 15.7052C5.49004 15.6259 5.37817 15.5066 5.30773 15.363C5.23729 15.2194 5.21152 15.058 5.23376 14.8995C5.24932 14.5342 5.35291 14.178 5.53571 13.8613C5.71852 13.5447 5.97515 13.2768 6.28373 13.0806V13.0806ZM8.5296 18.2834C8.52975 18.3241 8.51905 18.3641 8.49857 18.3992C8.47809 18.4344 8.44859 18.4635 8.41312 18.4834L4.65929 20.6518C4.62394 20.6724 4.58372 20.6833 4.54278 20.6833C4.50184 20.6833 4.46165 20.6724 4.4263 20.6518C4.39062 20.6321 4.36094 20.6031 4.34042 20.5679C4.31991 20.5327 4.30935 20.4926 4.30982 20.4518L4.30481 20.2328C4.33765 19.5412 4.53555 18.8675 4.882 18.268C5.22844 17.6685 5.71336 17.1607 6.29621 16.787C7.48966 16.0965 8.5251 16.687 8.5296 18.0644V18.2834ZM8.18465 13.1086C8.14965 13.0482 8.1401 12.9763 8.1581 12.9088C8.1761 12.8412 8.22016 12.7837 8.28062 12.7486L9.58058 11.9987C9.64112 11.9637 9.71305 11.9543 9.78056 11.9724C9.84807 11.9905 9.90561 12.0346 9.94055 12.0952C9.97549 12.1557 9.98496 12.2276 9.96686 12.2951C9.94876 12.3627 9.90459 12.4202 9.84406 12.4551L8.54663 13.2051C8.51659 13.2228 8.48333 13.2343 8.4488 13.2391C8.41426 13.2438 8.37912 13.2416 8.34544 13.2326C8.31176 13.2236 8.28018 13.208 8.25258 13.1868C8.22497 13.1655 8.2019 13.1389 8.18465 13.1086ZM9.0121 15.4585C8.9948 15.4286 8.98359 15.3955 8.97908 15.3613C8.97457 15.327 8.97686 15.2922 8.98582 15.2588C8.99478 15.2254 9.01022 15.1941 9.03129 15.1667C9.05236 15.1393 9.07863 15.1163 9.10859 15.099L12.6374 13.0611C12.6674 13.0438 12.7005 13.0326 12.7348 13.0281C12.7691 13.0236 12.804 13.0259 12.8374 13.0348C12.8709 13.0438 12.9022 13.0592 12.9296 13.0803C12.9571 13.1014 12.9801 13.1276 12.9974 13.1576C13.0147 13.1876 13.026 13.2207 13.0305 13.255C13.035 13.2893 13.0327 13.3242 13.0237 13.3576C13.0148 13.391 12.9993 13.4224 12.9782 13.4498C12.9572 13.4773 12.9309 13.5003 12.9009 13.5176L9.3721 15.555C9.31172 15.5897 9.24006 15.5991 9.1728 15.5811C9.10553 15.5631 9.04811 15.5192 9.0131 15.459L9.0121 15.4585ZM11.216 17.3189L10.2186 17.8949C10.1886 17.9122 10.1555 17.9234 10.1212 17.928C10.0869 17.9325 10.052 17.9302 10.0186 17.9212C9.98513 17.9123 9.95382 17.8968 9.92636 17.8757C9.89891 17.8547 9.87586 17.8284 9.85856 17.7984C9.84126 17.7684 9.83002 17.7354 9.82551 17.701C9.82099 17.6667 9.82329 17.6319 9.83225 17.5984C9.84121 17.565 9.85668 17.5337 9.87775 17.5062C9.89882 17.4788 9.92508 17.4557 9.95505 17.4384L10.9525 16.8625C10.9825 16.8452 11.0156 16.8339 11.0499 16.8294C11.0842 16.8249 11.119 16.8272 11.1525 16.8362C11.1859 16.8451 11.2172 16.8606 11.2447 16.8816C11.2722 16.9027 11.2952 16.929 11.3125 16.959C11.3298 16.9889 11.341 17.022 11.3456 17.0563C11.3501 17.0906 11.3478 17.1255 11.3388 17.1589C11.3298 17.1924 11.3144 17.2237 11.2933 17.2512C11.2722 17.2786 11.246 17.3016 11.216 17.3189V17.3189ZM15.5838 14.7975L12.257 16.718C12.1967 16.75 12.1264 16.7573 12.0608 16.7385C11.9952 16.7197 11.9394 16.6761 11.9053 16.6171C11.8711 16.558 11.8613 16.4879 11.8777 16.4217C11.8942 16.3555 11.9357 16.2982 11.9935 16.262L15.3203 14.3411C15.3809 14.3061 15.4528 14.2967 15.5203 14.3148C15.5878 14.3329 15.6454 14.377 15.6803 14.4376C15.7152 14.4981 15.7247 14.57 15.7066 14.6375C15.6885 14.7051 15.6443 14.7626 15.5838 14.7975V14.7975ZM15.5838 11.9687L14.0339 12.8646C13.9733 12.8996 13.9014 12.909 13.8339 12.8909C13.7664 12.8728 13.7088 12.8287 13.6739 12.7681C13.6389 12.7076 13.6295 12.6357 13.6476 12.5682C13.6657 12.5006 13.7099 12.4431 13.7704 12.4082L15.3203 11.5127C15.3806 11.4807 15.4509 11.4733 15.5165 11.4922C15.5821 11.511 15.6379 11.5545 15.672 11.6136C15.7061 11.6727 15.716 11.7427 15.6996 11.8089C15.6831 11.8752 15.6416 11.9324 15.5838 11.9687V11.9687ZM15.5838 9.14029L10.7875 11.9092C10.727 11.9441 10.655 11.9536 10.5875 11.9355C10.52 11.9174 10.4625 11.8732 10.4275 11.8127C10.3926 11.7521 10.3831 11.6802 10.4012 11.6127C10.4193 11.5452 10.4635 11.4876 10.524 11.4527L15.3203 8.68381C15.3809 8.64887 15.4528 8.63941 15.5203 8.65751C15.5878 8.6756 15.6454 8.71978 15.6803 8.78031C15.7152 8.84085 15.7247 8.91278 15.7066 8.98029C15.6885 9.0478 15.6443 9.10535 15.5838 9.14029V9.14029Z" fill="#979FA8"/>
</svg>
