<svg width="26" height="26" viewBox="0 0 26 26" fill="none" xmlns="http://www.w3.org/2000/svg">
<mask id="mask0_571_29047" style="mask-type:alpha" maskUnits="userSpaceOnUse" x="0" y="0" width="26" height="26">
<circle cx="13" cy="13" r="13" fill="#D9D9D9"/>
</mask>
<g mask="url(#mask0_571_29047)">
<path d="M31.9489 2C31.2607 0.809 29.9945 0 28.5278 0H14.625V2H31.9489ZM-3.25 20H32.5V22H-3.25V20ZM14.625 12H32.5V14H14.625V12ZM14.625 8H32.5V10H14.625V8ZM-3.25 16H32.5V18H-3.25V16ZM0.722222 26H28.5278C29.9945 26 31.2607 25.191 31.9489 24H-2.69885C-2.01067 25.191 -0.744521 26 0.722222 26ZM14.625 4H32.5V6H14.625V4Z" fill="#B22334"/>
<path d="M-3.18247 22.679C-3.16559 22.772 -3.14672 22.865 -3.12388 22.956C-3.09806 23.057 -3.06628 23.154 -3.03252 23.252C-2.94414 23.511 -2.83689 23.761 -2.70183 23.995L-2.69885 24H31.9489L31.9508 23.996C32.0841 23.7602 32.1945 23.5121 32.2805 23.255C32.3459 23.0673 32.3964 22.8747 32.4315 22.679C32.4722 22.459 32.5 22.233 32.5 22H-3.25C-3.25 22.233 -3.22219 22.458 -3.18247 22.679ZM-3.25 18H32.5V20H-3.25V18ZM-3.25 14V16H32.5V14H14.625H-3.25ZM14.625 10H32.5V12H14.625V10ZM14.625 6H32.5V8H14.625V6ZM-3.12289 3.044C-3.09806 2.942 -3.06331 2.845 -3.03153 2.747C-3.06601 2.8447 -3.09649 2.94378 -3.12289 3.044ZM14.625 4H32.5C32.5 3.767 32.4722 3.541 32.4315 3.32C32.3967 3.12411 32.3459 2.93145 32.2795 2.744C32.1935 2.48581 32.0827 2.23665 31.9489 2H14.625V4Z" fill="#EEEEEE"/>
<path d="M14.625 0H0.722222C-0.331277 0 -1.34163 0.421427 -2.08656 1.17157C-2.8315 1.92172 -3.25 2.93913 -3.25 4L-3.25 14H14.625V0Z" fill="#3C3B6E"/>
<path d="M-1.26367 2.726L-0.649963 3.175L-0.884325 3.9L-0.271609 3.452L0.342099 3.9L0.107738 3.175L0.721446 2.726H-0.0372481L-0.271609 2L-0.504977 2.726H-1.26367ZM0.722439 4.726L1.33615 5.175L1.10179 5.9L1.7145 5.452L2.32821 5.9L2.09385 5.175L2.70756 4.726H1.94886L1.7145 4L1.48113 4.726H0.722439ZM4.69466 4.726L5.30837 5.175L5.07401 5.9L5.68672 5.452L6.30043 5.9L6.06607 5.175L6.67978 4.726H5.92109L5.68672 4L5.45336 4.726H4.69466ZM8.66688 4.726L9.28059 5.175L9.04623 5.9L9.65895 5.452L10.2727 5.9L10.0383 5.175L10.652 4.726H9.89331L9.65895 4L9.42558 4.726H8.66688ZM0.722439 8.726L1.33615 9.175L1.10179 9.9L1.7145 9.452L2.32821 9.9L2.09385 9.175L2.70756 8.726H1.94886L1.7145 8L1.48113 8.726H0.722439ZM4.69466 8.726L5.30837 9.175L5.07401 9.9L5.68672 9.452L6.30043 9.9L6.06607 9.175L6.67978 8.726H5.92109L5.68672 8L5.45336 8.726H4.69466ZM8.66688 8.726L9.28059 9.175L9.04623 9.9L9.65895 9.452L10.2727 9.9L10.0383 9.175L10.652 8.726H9.89331L9.65895 8L9.42558 8.726H8.66688ZM2.70855 2.726L3.32226 3.175L3.0879 3.9L3.70061 3.452L4.31432 3.9L4.07996 3.175L4.69367 2.726H3.93497L3.70061 2L3.46724 2.726H2.70855ZM6.68077 2.726L7.29448 3.175L7.06012 3.9L7.67284 3.452L8.28654 3.9L8.05218 3.175L8.66589 2.726H7.9072L7.67284 2L7.43947 2.726H6.68077ZM10.653 2.726L11.2667 3.175L11.0323 3.9L11.6451 3.452L12.2588 3.9L12.0244 3.175L12.6381 2.726H11.8794L11.6451 2L11.4117 2.726H10.653ZM-1.26367 6.726L-0.649963 7.175L-0.884325 7.9L-0.271609 7.452L0.342099 7.9L0.107738 7.175L0.721446 6.726H-0.0372481L-0.271609 6L-0.504977 6.726H-1.26367ZM3.0879 7.9L3.70061 7.452L4.31432 7.9L4.07996 7.175L4.69367 6.726H3.93497L3.70061 6L3.46724 6.726H2.70855L3.32226 7.175L3.0879 7.9ZM6.68077 6.726L7.29448 7.175L7.06012 7.9L7.67284 7.452L8.28654 7.9L8.05218 7.175L8.66589 6.726H7.9072L7.67284 6L7.43947 6.726H6.68077ZM10.653 6.726L11.2667 7.175L11.0323 7.9L11.6451 7.452L12.2588 7.9L12.0244 7.175L12.6381 6.726H11.8794L11.6451 6L11.4117 6.726H10.653ZM-1.26367 10.726L-0.649963 11.175L-0.884325 11.9L-0.271609 11.452L0.342099 11.9L0.107738 11.175L0.721446 10.726H-0.0372481L-0.271609 10L-0.504977 10.726H-1.26367ZM3.0879 11.9L3.70061 11.452L4.31432 11.9L4.07996 11.175L4.69367 10.726H3.93497L3.70061 10L3.46724 10.726H2.70855L3.32226 11.175L3.0879 11.9ZM6.68077 10.726L7.29448 11.175L7.06012 11.9L7.67284 11.452L8.28654 11.9L8.05218 11.175L8.66589 10.726H7.9072L7.67284 10L7.43947 10.726H6.68077ZM10.653 10.726L11.2667 11.175L11.0323 11.9L11.6451 11.452L12.2588 11.9L12.0244 11.175L12.6381 10.726H11.8794L11.6451 10L11.4117 10.726H10.653Z" fill="white"/>
</g>
</svg>
