<svg width="131" height="41" viewBox="0 0 131 41" fill="none" xmlns="http://www.w3.org/2000/svg">
<path fill-rule="evenodd" clip-rule="evenodd" d="M5.83021 26.8106C5.83021 26.8106 8.09627 28.8875 11.0387 28.8875C12.0718 28.8875 13.0659 28.6074 13.0659 27.9288C13.0659 26.1311 3.48514 25.9314 3.48514 19.2219C3.48514 15.3473 7.18202 12.9512 11.913 12.9512C16.6829 12.9512 19.1088 15.3072 19.1088 15.3072L16.7628 20.2206C16.7628 20.2206 14.7755 18.5423 11.913 18.5423C10.8798 18.5423 9.88566 18.8224 9.88566 19.5411C9.88566 21.099 19.4665 21.338 19.4665 27.9681C19.4665 31.4833 16.3652 34.4786 11.0786 34.4786C5.95001 34.4786 2.88867 31.4432 2.88867 31.4432L5.83021 26.8106Z" fill="white"/>
<path fill-rule="evenodd" clip-rule="evenodd" d="M23.0436 19.1817H20.4199V13.7902H23.2425V7.87891H29.9217V25.4926C29.9217 27.8084 32.266 28.1276 33.5778 28.1276C34.1352 28.1276 34.4929 28.0884 34.4929 28.0884V34.0792C34.4929 34.0792 33.7376 34.1986 32.6245 34.1986C29.3644 34.1986 23.0436 33.3202 23.0436 26.411V19.1817Z" fill="white"/>
<path fill-rule="evenodd" clip-rule="evenodd" d="M47.6829 28.7279C50.1868 28.7279 52.3338 26.8499 52.3338 23.7751C52.3338 20.6595 50.1868 18.702 47.6829 18.702C45.1791 18.702 43.0313 20.6595 43.0313 23.7751C43.0313 26.8499 45.1791 28.7279 47.6829 28.7279ZM47.6426 12.9512C54.1226 12.9512 59.2901 17.3046 59.2901 23.7751C59.2901 30.2054 54.1226 34.4786 47.6826 34.4786C41.2425 34.4786 36.0752 30.2054 36.0752 23.7751C36.0752 17.3046 41.2425 12.9512 47.6426 12.9512Z" fill="white"/>
<path fill-rule="evenodd" clip-rule="evenodd" d="M72.0962 28.7666C74.2431 28.7666 76.1115 27.0091 76.1115 23.8541C76.1115 20.7793 74.4819 18.7817 72.0962 18.7817C70.0299 18.7817 68.0818 20.2996 68.0818 23.8541C68.0818 26.3303 69.3935 28.7666 72.0962 28.7666ZM61.4043 5.44238H68.2819V13.3905C68.2819 14.4285 68.2021 15.1472 68.2021 15.1472H68.2819C68.2819 15.1472 70.1902 12.9508 73.807 12.9508C79.3728 12.9508 83.0304 17.3444 83.0304 23.7347C83.0304 30.2444 78.9353 34.4783 73.4892 34.4783C69.7136 34.4783 67.8843 32.1624 67.8843 32.1624H67.8044C67.8044 32.1624 67.8444 32.6807 67.8444 33.32V33.9986H61.4043V5.44238Z" fill="white"/>
<path fill-rule="evenodd" clip-rule="evenodd" d="M95.9026 28.7279C98.4065 28.7279 100.553 26.8499 100.553 23.7751C100.553 20.6595 98.4065 18.702 95.9026 18.702C93.398 18.702 91.2511 20.6595 91.2511 23.7751C91.2511 26.8499 93.398 28.7279 95.9026 28.7279ZM95.8624 12.9512C102.342 12.9512 107.51 17.3046 107.51 23.7751C107.51 30.2054 102.342 34.4786 95.9023 34.4786C89.4622 34.4786 84.2949 30.2054 84.2949 23.7751C84.2949 17.3046 89.4622 12.9512 95.8624 12.9512Z" fill="white"/>
<path fill-rule="evenodd" clip-rule="evenodd" d="M113.292 23.815L106.692 13.4307H114.444L116.67 18.0232C116.948 18.5421 117.307 19.3813 117.307 19.3813H117.386C117.386 19.3813 117.783 18.5421 118.022 18.0232L120.248 13.4307H128L121.44 23.815L127.88 33.9987H120.328L117.862 29.3661C117.664 29.0067 117.386 28.3273 117.386 28.3273H117.307C117.307 28.3273 117.028 29.0067 116.83 29.3661L114.404 33.9987H106.851L113.292 23.815Z" fill="white"/>
<path fill-rule="evenodd" clip-rule="evenodd" d="M29.9209 19.1815H35.2168V13.79H29.9209V19.1815Z" fill="#46B9FF"/>
</svg>
