<svg width="22" height="22" viewBox="0 0 22 22" fill="none" xmlns="http://www.w3.org/2000/svg">
<path d="M7.82961 8.56055V8.35243L6 7.31592C6 7.9944 6.03484 19.3622 6.03668 20.0406C6.02314 20.1477 6.03757 20.2564 6.07854 20.3561C6.11952 20.4559 6.18564 20.5434 6.27047 20.61L7.87499 21.5425C7.86995 21.4916 7.8672 21.4393 7.86628 21.3852C7.83878 12.0194 7.83144 9.25966 7.82961 8.56055Z" fill="#2998FF"/>
<path d="M18.6812 1.95347C18.6812 1.33826 18.2997 1.20255 17.8317 1.47394L9.52075 6.27143L9.50379 6.28156L9.48041 6.29483L9.42127 6.32919L9.43824 6.31911L9.41806 6.33103L9.39377 6.3448C9.38506 6.34984 9.38552 6.34984 9.39377 6.3448L9.38735 6.34849C9.07736 6.55363 8.81885 6.82744 8.63193 7.14874C8.445 7.47003 8.33469 7.83011 8.30957 8.20097C8.31186 8.96335 8.34441 21.0225 8.34533 21.3828C8.34533 21.9664 8.69419 22.1548 9.19343 21.8669L17.6405 16.9901C17.9531 16.783 18.2133 16.5061 18.4006 16.1813C18.5879 15.8565 18.6971 15.4926 18.7197 15.1183L18.6812 1.95347ZM13.6058 18.6633C13.5357 18.7162 13.4516 18.7474 13.364 18.7531C13.2764 18.7588 13.189 18.7388 13.1125 18.6955C13.0361 18.6522 12.974 18.5875 12.9339 18.5094C12.8937 18.4313 12.8773 18.3432 12.8866 18.2558C12.8954 18.0705 12.9483 17.8898 13.0409 17.729C13.1335 17.5681 13.263 17.4315 13.4188 17.3307C13.4894 17.2777 13.574 17.2465 13.6621 17.2411C13.7502 17.2356 13.8379 17.2561 13.9145 17.3C13.9911 17.3439 14.0531 17.4093 14.0929 17.4881C14.1328 17.5669 14.1486 17.6556 14.1385 17.7433C14.1301 17.9282 14.0774 18.1083 13.9846 18.2684C13.8919 18.4286 13.762 18.564 13.6058 18.6633ZM17.6075 14.0946L9.68212 18.6753C9.64666 18.693 9.60761 18.7024 9.56797 18.7028C9.53773 18.7033 9.5077 18.6977 9.47967 18.6863C9.45163 18.675 9.42617 18.6582 9.40479 18.6368C9.3834 18.6154 9.36653 18.5899 9.35519 18.5619C9.34385 18.5339 9.33826 18.5038 9.33875 18.4736L9.30208 7.7192C9.30153 7.67922 9.31186 7.63983 9.33197 7.60527C9.35207 7.5707 9.3812 7.54223 9.41623 7.52295L17.3416 2.94645C17.3764 2.92656 17.4156 2.91569 17.4557 2.91489C17.4957 2.91409 17.5353 2.92338 17.5708 2.94186C17.6059 2.96223 17.635 2.99153 17.6551 3.02681C17.6751 3.06209 17.6854 3.10207 17.685 3.14265L17.7217 13.897C17.7229 13.9373 17.7129 13.9772 17.6928 14.0121C17.6726 14.047 17.6431 14.0756 17.6075 14.0946V14.0946Z" fill="#2998FF"/>
<path d="M8.82895 6.16526L6.96955 5.08057C6.70182 5.28099 6.4782 5.53436 6.31258 5.82491C6.14696 6.11545 6.04289 6.43699 6.00684 6.76947L7.86991 7.82384C8.00105 7.18151 8.33768 6.59935 8.82895 6.16526V6.16526Z" fill="#2998FF"/>
<path d="M17.7454 0.980429L16.1358 0.0466057C16.0349 0.00534253 15.925 -0.00886874 15.817 0.00536235C15.7089 0.0195934 15.6064 0.0617749 15.5197 0.127749L7.43335 4.79692L9.26708 5.8655C15.5861 2.21728 17.6142 1.04002 17.7454 0.980429Z" fill="#2998FF"/>
<path d="M12.0673 11.4658C12.0998 11.5203 12.1525 11.5597 12.2139 11.5755C12.2753 11.5912 12.3405 11.5819 12.3951 11.5497L12.8077 11.3063C12.8105 11.3063 12.8137 11.3063 12.816 11.304L12.8618 11.2783V11.4823C12.8623 11.5455 12.8877 11.6059 12.9325 11.6503C12.9774 11.6948 13.038 11.7198 13.1011 11.7198C13.1325 11.7195 13.1636 11.7131 13.1925 11.7009C13.2215 11.6886 13.2477 11.6708 13.2698 11.6484C13.2918 11.626 13.3093 11.5995 13.3211 11.5704C13.3329 11.5412 13.3388 11.5101 13.3386 11.4787L13.3349 11.0033L13.6884 10.7988V11.0065C13.6888 11.0695 13.7142 11.1299 13.7589 11.1743C13.8037 11.2188 13.8641 11.2438 13.9272 11.244V11.244C13.9586 11.2437 13.9897 11.2373 14.0186 11.225C14.0476 11.2128 14.0738 11.1949 14.0959 11.1725C14.1179 11.1502 14.1354 11.1237 14.1472 11.0945C14.159 11.0654 14.1649 11.0342 14.1647 11.0028L14.161 10.5233C14.4028 10.3678 14.6036 10.1565 14.7467 9.90721C14.8897 9.65789 14.9708 9.37786 14.983 9.09068C14.9919 8.96085 14.9661 8.83097 14.9083 8.7144C14.8504 8.59782 14.7626 8.49875 14.6538 8.42732C14.6502 8.42502 14.6456 8.42457 14.6414 8.42228C14.8513 8.14239 14.969 7.80425 14.9784 7.45455C14.9784 6.96035 14.6515 6.62153 14.1619 6.74255V6.49823C14.1613 6.43516 14.1358 6.37489 14.091 6.33051C14.0462 6.28613 13.9857 6.26123 13.9226 6.26123V6.26123C13.8912 6.26141 13.8602 6.26778 13.8312 6.27998C13.8023 6.29218 13.776 6.30995 13.754 6.3323C13.7319 6.35466 13.7145 6.38115 13.7027 6.41025C13.6909 6.43936 13.6849 6.47052 13.6852 6.50192L13.6888 6.97087L13.3354 7.17491V6.97457C13.335 6.91146 13.3097 6.85107 13.2649 6.80657C13.2202 6.76208 13.1596 6.73707 13.0965 6.73707C13.0651 6.73731 13.034 6.74373 13.0051 6.75598C12.9761 6.76823 12.9499 6.78608 12.9278 6.80847C12.9058 6.83087 12.8884 6.85736 12.8766 6.88648C12.8648 6.91561 12.8588 6.94678 12.8591 6.9782L12.8627 7.44996L12.154 7.86485C12.1269 7.88087 12.1032 7.90203 12.0843 7.92719C12.0654 7.95235 12.0517 7.98099 12.0438 8.01147C12.036 8.04195 12.0342 8.07366 12.0387 8.10481C12.0431 8.13597 12.0536 8.16597 12.0696 8.19306C12.0856 8.22015 12.1068 8.24383 12.132 8.26274C12.1572 8.28164 12.1858 8.29536 12.2163 8.3032C12.2468 8.31103 12.2785 8.31283 12.3096 8.3084C12.3408 8.30397 12.3708 8.29341 12.3979 8.2774L12.4506 8.24623C12.4506 8.40943 12.4584 11.0285 12.4584 10.9579L12.154 11.138C12.0992 11.1702 12.0594 11.2227 12.0431 11.2841C12.0269 11.3455 12.0356 11.4108 12.0673 11.4658ZM13.9199 10.1139L12.9333 10.6833L12.9301 9.59864L14.1546 8.89174C14.3838 8.75879 14.5085 8.82613 14.509 9.09202C14.4962 9.29607 14.4365 9.49444 14.3345 9.67167C14.2326 9.84889 14.0912 10.0002 13.9212 10.1139H13.9199ZM14.1491 7.25695C14.3705 7.12904 14.503 7.18083 14.5035 7.45589C14.4901 7.65985 14.4301 7.85805 14.328 8.03514C14.226 8.21223 14.0846 8.36349 13.9148 8.47729V8.47729L12.9278 9.04664L12.9251 7.96385L14.1491 7.25695Z" fill="#2998FF"/>
<path d="M15.782 11.1354C15.7457 11.1142 15.7044 11.103 15.6624 11.103C15.6203 11.103 15.579 11.1142 15.5427 11.1354L11.2371 13.6228C11.2009 13.6435 11.1707 13.6734 11.1498 13.7095C11.1289 13.7455 11.1179 13.7865 11.1179 13.8282L11.1225 15.9907C11.1222 16.0222 11.1282 16.0534 11.1401 16.0826C11.152 16.1118 11.1696 16.1383 11.1919 16.1606C11.2142 16.1829 11.2407 16.2005 11.2699 16.2124C11.299 16.2243 11.3303 16.2303 11.3618 16.23C11.4034 16.2301 11.4445 16.2202 11.4815 16.2011L15.7866 13.7136C15.8235 13.6924 15.854 13.6617 15.8751 13.6247C15.8961 13.5877 15.9069 13.5458 15.9063 13.5032L15.9012 11.3458C15.9009 11.3035 15.8898 11.262 15.8689 11.2251C15.8481 11.1883 15.8182 11.1574 15.782 11.1354V11.1354Z" fill="#2998FF"/>
</svg>
