<svg width="22" height="22" viewBox="0 0 22 22" fill="none" xmlns="http://www.w3.org/2000/svg">
<path d="M15.9128 5.88623L9.64062 9.507L12.7865 11.142L15.9128 5.88623Z" fill="#2998FF"/>
<path d="M6.51402 17.2614C6.50959 17.2529 6.50691 17.2432 6.50292 17.2347C5.98568 16.0619 5.78877 14.7728 5.93226 13.499C6.28078 9.29234 9.25387 4.51321 12.7347 2.50233C12.7426 2.49745 12.7506 2.49432 12.7586 2.48945C13.7353 1.89407 14.8519 1.56721 15.9955 1.54189L14.0933 0.43866C10.0449 -1.91853 2.91041 5.68027 2.92593 12.343C2.92992 13.8063 3.29394 14.9959 3.97858 15.7865L6.51402 17.2614Z" fill="#2998FF"/>
<path d="M9.39087 9.90088L9.40551 15.0054L11.7788 11.1412L9.39087 9.90088Z" fill="#2998FF"/>
<path d="M3.97321 16.3228L3.06104 19.532L6.08048 21.2863L6.99219 18.0779L3.97321 16.3228Z" fill="#2998FF"/>
<path d="M12.9711 2.90577C9.62417 4.83728 6.72869 9.44966 6.39569 13.5477C6.27774 15.0065 6.4755 16.719 7.44081 17.8129C7.46493 17.8428 7.48185 17.8779 7.49023 17.9154C7.49861 17.9529 7.49823 17.9919 7.48914 18.0292L6.64976 20.9833L9.18342 18.8952C9.20834 18.8749 9.23721 18.8599 9.26818 18.8512C9.29916 18.8425 9.33158 18.8403 9.36345 18.8447C10.5655 18.9454 11.767 18.6447 12.78 17.9898C16.4306 15.8818 19.3908 10.7529 19.3788 6.55684C19.3669 2.49695 16.5951 0.810198 12.9711 2.90577ZM16.7019 11.7465L9.29162 16.0246C9.25615 16.0437 9.21637 16.0535 9.17606 16.0529C9.13575 16.0524 9.09624 16.0415 9.06131 16.0214C9.02638 16.0012 8.99718 15.9725 8.97649 15.9379C8.9558 15.9033 8.9443 15.864 8.94309 15.8237C8.93245 12.08 8.93555 13.2963 8.92491 9.51794C8.92664 9.47746 8.93811 9.43799 8.95833 9.40287C8.97855 9.36775 9.00695 9.33804 9.04109 9.31621L16.4514 5.03813C16.487 5.01999 16.5266 5.01106 16.5666 5.01209C16.6066 5.01312 16.6457 5.02408 16.6803 5.04403C16.715 5.06397 16.7441 5.09226 16.765 5.1263C16.786 5.16034 16.7982 5.19907 16.8004 5.23899C16.8106 8.8772 16.8079 7.87556 16.8181 11.5448C16.8177 11.5857 16.8066 11.6258 16.786 11.6612C16.7654 11.6965 16.736 11.726 16.7006 11.7465H16.7019Z" fill="#2998FF"/>
<path d="M13.0731 11.5676C13.0408 11.6164 12.9922 11.6522 12.9359 11.6684C12.8797 11.6847 12.8196 11.6804 12.7662 11.6563L12.1897 11.3579L9.85144 15.1649L16.081 11.5685L13.7263 10.4692L13.0731 11.5676Z" fill="#2998FF"/>
<path d="M13.9642 10.0667L16.3491 11.1802L16.3344 6.08057L13.9642 10.0667Z" fill="#2998FF"/>
</svg>
