<svg width="22" height="22" viewBox="0 0 22 22" fill="none" xmlns="http://www.w3.org/2000/svg">
<path d="M13.2375 16.7253C12.4135 17.1704 11.4887 17.3954 10.5524 17.3787C9.29855 17.3787 7.6948 16.9683 6.9709 15.9697L6.94043 15.9341V16.3243C6.98911 18.0626 10.8869 18.9785 13.1108 17.6835C13.7504 17.3134 14.1038 16.8325 14.1062 16.3287V16.3224V15.9626L14.0706 16.0049C13.8454 16.2998 13.5617 16.545 13.2375 16.7253V16.7253Z" fill="#2998FF"/>
<path d="M13.3173 18.0396C12.4679 18.4941 11.5159 18.7222 10.5527 18.7022C9.28621 18.7022 7.72759 18.3254 6.93799 17.3608V17.7127C6.93799 19.0616 9.10019 19.6889 10.457 19.7095C11.379 19.7357 12.2925 19.5265 13.1111 19.1015C13.7507 18.7315 14.1042 18.2506 14.1065 17.7467V17.3878C13.8847 17.6506 13.6174 17.8714 13.3173 18.0396V18.0396Z" fill="#2998FF"/>
<path d="M8.72168 19.8633C8.88752 20.1971 9.14286 20.4782 9.4592 20.6753C9.77553 20.8724 10.1404 20.9777 10.5131 20.9795C10.8858 20.9812 11.2517 20.8794 11.5699 20.6853C11.8881 20.4912 12.1461 20.2125 12.3151 19.8803C11.1384 20.2043 9.89524 20.1984 8.72168 19.8633V19.8633Z" fill="#2998FF"/>
<path d="M7.40149 14.6279C7.37695 14.5155 7.38685 14.4878 7.34609 14.2835C7.24561 14.3992 7.16893 14.5335 7.12044 14.6789C7.07194 14.8242 7.0526 14.9777 7.0635 15.1305C7.08836 15.346 7.17034 15.551 7.30096 15.7242C8.39176 16.9682 11.3499 17.2856 13.1112 16.2577C13.3436 16.1266 13.5539 15.9598 13.7345 15.7634C13.9084 15.549 13.9979 15.2785 13.9862 15.0027C13.9745 14.7269 13.8623 14.4649 13.6708 14.2661C13.6708 14.3029 13.6657 14.3393 13.6657 14.3761C13.6462 14.6735 13.5452 14.9597 13.3738 15.2034C13.2024 15.4471 12.9672 15.6389 12.694 15.7578C11.7915 16.2188 10.7651 16.3786 9.76516 16.2138C8.78637 16.0689 7.6077 15.5817 7.40149 14.6279Z" fill="#2998FF"/>
<path d="M15.8015 5.99627C15.5335 5.11569 15.0564 4.31303 14.411 3.65678C13.7656 3.00053 12.971 2.51017 12.095 2.22755C10.9332 1.88197 9.6897 1.93114 8.55886 2.36736C7.42803 2.80359 6.47365 3.60228 5.84496 4.63854C5.21627 5.67479 4.94871 6.89018 5.08414 8.09465C5.21958 9.29911 5.75036 10.4247 6.59348 11.2955C7.07872 11.7966 7.41197 12.8252 7.60116 13.5677C7.60116 13.5717 7.60591 13.5745 7.6071 13.5788C7.6538 13.7613 7.76897 14.2291 7.79747 14.4709C7.87663 15.1267 8.66821 15.5174 9.30583 15.6979V9.16734C9.30614 9.12617 9.31879 9.08604 9.34215 9.05214C9.3655 9.01823 9.3985 8.99212 9.43686 8.97716C9.47521 8.9622 9.51717 8.95908 9.55731 8.96822C9.59746 8.97736 9.63393 8.99833 9.66204 9.02842L10.4584 9.89915L11.3457 7.92456C11.3645 7.88058 11.398 7.8445 11.4405 7.8225C11.4829 7.8005 11.5317 7.79394 11.5785 7.80395C11.6253 7.81396 11.6671 7.83991 11.6968 7.87736C11.7266 7.91482 11.7424 7.96144 11.7415 8.00925V15.7006C12.0041 15.6314 12.2568 15.529 12.4935 15.3959C12.7009 15.3104 12.8812 15.1702 13.0151 14.9902C13.1489 14.8102 13.2313 14.5972 13.2534 14.374C13.2603 13.2048 13.7109 12.0819 14.514 11.2322C15.1578 10.542 15.6142 9.69841 15.8395 8.78186C16.0649 7.86532 16.0518 6.90632 15.8015 5.99627V5.99627ZM9.11268 3.49408C8.09699 3.85387 7.25621 4.58655 6.7609 5.54348C6.74843 5.56752 6.73134 5.58887 6.71062 5.6063C6.68989 5.62374 6.66593 5.63692 6.64011 5.6451C6.6143 5.65328 6.58712 5.65629 6.56014 5.65396C6.53316 5.65164 6.50689 5.64402 6.48285 5.63155C6.45881 5.61907 6.43747 5.60199 6.42003 5.58126C6.4026 5.56054 6.38941 5.53658 6.38123 5.51076C6.37306 5.48494 6.37006 5.45777 6.37238 5.43079C6.37471 5.4038 6.38231 5.37754 6.39479 5.3535C6.9383 4.30404 7.86055 3.50051 8.97455 3.10581C9.00031 3.09551 9.02789 3.09052 9.05563 3.09114C9.08337 3.09175 9.11071 3.09795 9.13599 3.10938C9.16128 3.1208 9.18399 3.13721 9.20278 3.15763C9.22158 3.17804 9.23606 3.20203 9.24536 3.22817C9.25466 3.25432 9.25859 3.28207 9.25691 3.30976C9.25523 3.33746 9.24798 3.36453 9.23559 3.38936C9.2232 3.41418 9.20593 3.43626 9.18481 3.45425C9.16369 3.47225 9.13916 3.48579 9.11268 3.49408V3.49408Z" fill="#2998FF"/>
<path d="M11.2545 15.8068C11.2802 15.8028 11.3052 15.7981 11.3305 15.7937V8.97266L10.7087 10.3579C10.6946 10.389 10.6731 10.4162 10.6459 10.4369C10.6188 10.4577 10.5869 10.4713 10.5532 10.4768C10.5195 10.4822 10.4849 10.4791 10.4527 10.4679C10.4204 10.4567 10.3914 10.4377 10.3683 10.4125L9.71924 9.70012V15.7917C9.87434 15.8192 10.0307 15.8386 10.1879 15.8499C10.5439 15.8755 10.9017 15.861 11.2545 15.8068V15.8068Z" fill="#2998FF"/>
</svg>
