<svg width="22" height="22" viewBox="0 0 22 22" fill="none" xmlns="http://www.w3.org/2000/svg">
<path d="M13.3088 1.36323C13.7874 1.123 14.0665 1.34065 14.0679 1.85995L14.0737 4.2049L13.372 4.60859L13.367 2.53593C13.3671 2.49455 13.3562 2.45387 13.3355 2.41803C13.3148 2.38218 13.2851 2.35243 13.2492 2.33177C13.2133 2.31111 13.1726 2.30028 13.1313 2.30037C13.0899 2.30046 13.0492 2.31147 13.0135 2.33228L9.40956 4.41984C9.37369 4.4406 9.34392 4.47043 9.32323 4.50634C9.30255 4.54224 9.29167 4.58296 9.2917 4.6244C9.2917 4.67227 9.29667 7.12469 9.29667 6.9698L8.59675 7.37124L8.59314 5.29858C8.61467 4.9347 8.72104 4.5809 8.90372 4.26547C9.08641 3.95003 9.34036 3.68171 9.64527 3.48195C10.5981 2.92969 13.1552 1.4409 13.3088 1.36323ZM12.9024 4.60589L12.5018 4.37424L12.4978 3.1758L12.8983 2.94369L12.9024 4.60589ZM8.7697 2.97485L12.3763 0.885933C12.4601 0.821642 12.5591 0.780257 12.6637 0.765847C12.7683 0.751438 12.8748 0.7645 12.9728 0.803749L13.1562 0.910317C13.1083 0.931992 13.0609 0.955474 13.013 0.984374L9.40595 3.07284C9.02899 3.31415 8.71546 3.6424 8.49168 4.03001C8.26789 4.41762 8.1404 4.85328 8.1199 5.30038L8.12487 7.36989L7.72298 7.13869C7.72298 7.09082 7.71847 4.63704 7.71847 4.79057C7.74096 4.42731 7.8475 4.07422 8.02968 3.75914C8.21187 3.44405 8.46473 3.17557 8.76834 2.97485H8.7697ZM7.24749 5.10396C7.24749 5.15227 7.252 7.41594 7.25155 7.27461C7.25156 7.31603 7.2625 7.35672 7.28327 7.39256C7.30405 7.4284 7.33392 7.45812 7.36986 7.47871L8.24544 7.98536C8.2827 8.00123 8.32279 8.00942 8.36329 8.00942C8.4038 8.00942 8.44389 8.00123 8.48115 7.98536L9.64979 7.31254C9.68593 7.29126 9.71594 7.26098 9.73691 7.22466C9.75788 7.18834 9.76909 7.14721 9.76945 7.10527C9.76945 7.05741 9.76358 4.60543 9.76403 4.76077L12.0268 3.45125C12.0268 3.49911 12.0304 4.56931 12.0304 4.51422C12.0304 4.55542 12.0412 4.5959 12.0618 4.63157C12.0825 4.66725 12.1121 4.69686 12.1478 4.71742L13.0198 5.22362C13.056 5.24303 13.0964 5.25318 13.1374 5.25318C13.1785 5.25318 13.2189 5.24303 13.255 5.22362L14.4291 4.54628C14.465 4.52558 14.4949 4.49577 14.5157 4.45986C14.5364 4.42395 14.5474 4.38321 14.5474 4.34172L14.5424 1.85588C14.5453 1.56573 14.4488 1.28334 14.2688 1.05572L15.4429 0.374767C15.4929 0.334654 15.5524 0.308065 15.6156 0.297549C15.6789 0.287033 15.7438 0.292941 15.8041 0.314709L19.2387 2.31015L6.55479 9.63356L2.98747 7.55999L7.24749 5.10396ZM2.07125 19.5945C2.02335 19.5532 1.98638 19.5008 1.96361 19.4418C1.94085 19.3828 1.933 19.3191 1.94075 19.2563L1.91321 9.43261L5.47557 11.5017L5.50401 21.5882L2.07125 19.5945ZM5.52298 10.9837L1.91817 8.88984C1.98373 8.47615 2.20007 8.10136 2.52552 7.8377L6.13078 9.93249C5.83684 10.2215 5.62678 10.5848 5.52298 10.9837V10.9837ZM5.94745 11.3653V11.3621C5.96343 11.1116 6.03722 10.8681 6.16304 10.6509C6.28886 10.4337 6.46329 10.2485 6.67265 10.11V10.11L19.4757 2.71791C19.7959 2.53277 19.9697 2.6574 19.9725 2.99833L19.9824 6.57062C18.65 8.45279 17.0275 10.1118 15.1755 11.4859V10.7954C15.1833 10.7114 15.1667 10.6269 15.1278 10.552C15.0889 10.4771 15.0293 10.4149 14.956 10.373C14.8828 10.331 14.7991 10.311 14.7148 10.3152C14.6305 10.3195 14.5492 10.348 14.4806 10.3971L12.9489 11.2818C12.813 11.3665 12.6999 11.4831 12.6195 11.6216C12.5391 11.76 12.4937 11.9161 12.4874 12.076L12.4901 13.0966C10.4401 14.0674 8.2216 14.6326 5.95693 14.761L5.94745 11.3653ZM14.7095 13.3287C14.7032 13.4049 14.68 13.4787 14.6418 13.5449C14.6035 13.6111 14.5511 13.668 14.4883 13.7116L12.9656 14.5849C12.9656 14.4585 12.9579 11.9207 12.9584 12.0715C12.9654 11.9949 12.9893 11.9207 13.0283 11.8544C13.0673 11.788 13.1206 11.7311 13.1841 11.6877L14.7027 10.8117L14.7095 13.3287ZM19.2743 14.4824L16.4146 16.1356L6.47035 21.8749C6.15426 22.0587 5.97364 21.9363 5.97364 21.5972L5.95603 15.2302C8.21592 15.1043 10.4322 14.556 12.4901 13.6136L12.4928 14.6107C12.4851 14.695 12.5018 14.7797 12.5411 14.8547C12.5803 14.9298 12.6403 14.9919 12.7139 15.0337C12.7875 15.0755 12.8716 15.0952 12.9562 15.0904C13.0407 15.0856 13.122 15.0565 13.1905 15.0067L14.7226 14.1221C14.8574 14.0371 14.9694 13.9205 15.049 13.7825C15.1286 13.6445 15.1734 13.4892 15.1796 13.33L15.176 12.0657C17.0136 10.7547 18.6354 9.1651 19.9828 7.35408L19.9995 13.2329C19.9838 13.4835 19.9102 13.727 19.7843 13.9442C19.6585 14.1614 19.4839 14.3464 19.2743 14.4847V14.4824Z" fill="#2998FF"/>
</svg>
