<svg width="22" height="22" viewBox="0 0 22 22" fill="none" xmlns="http://www.w3.org/2000/svg">
<g clip-path="url(#clip0_678_66765)">
<path d="M8.3829 19.7987C8.38015 20.8566 7.3026 21.1083 6.46991 20.0683L6.46534 20.0624C6.1396 19.665 5.95095 19.173 5.92748 18.6598L5.93665 15.5986C5.86919 14.4401 5.37102 13.3488 4.53998 12.5389C4.01359 12.0244 3.16164 11.493 2.53988 11.8511C2.35384 11.9881 2.20719 12.1717 2.1147 12.3834C2.0222 12.5951 1.98714 12.8274 2.01304 13.057L1.99927 17.8931L2.88057 18.4021L2.8934 13.8415C2.87523 13.6945 2.90096 13.5453 2.96734 13.4128C3.03373 13.2803 3.13781 13.1703 3.2665 13.0968C3.39519 13.0233 3.54275 12.9895 3.69061 12.9996C3.83846 13.0098 3.98003 13.0634 4.0975 13.1538C4.37715 13.3337 4.60986 13.5778 4.77636 13.8656C4.94286 14.1535 5.03835 14.4769 5.0549 14.809V14.809V14.8123L5.04619 17.8702C5.08737 18.6409 5.31 19.391 5.69598 20.0593C6.08195 20.7277 6.62035 21.2954 7.2673 21.7163C7.46957 21.867 7.70803 21.9616 7.95859 21.9905C8.20914 22.0195 8.4629 21.9819 8.69423 21.8814C8.89032 21.7294 9.04523 21.5307 9.14479 21.3035C9.24435 21.0762 9.2854 20.8277 9.26419 20.5805C9.30362 5.90121 9.29628 6.8027 9.30316 6.75455L8.42095 6.24512L8.3829 19.7987Z" fill="#2998FF"/>
<path d="M19.5798 0.509435L18.6976 0L8.66138 5.83246L9.54359 6.34144L19.5798 0.509435Z" fill="#2998FF"/>
<path d="M3.75692 13.5315C3.51436 13.4365 3.37358 13.5131 3.37221 13.8437L3.35938 18.401L4.5653 17.7022L4.57447 14.8107C4.56129 14.5448 4.47893 14.2869 4.33555 14.0626C4.19217 13.8382 3.99272 13.6551 3.75692 13.5315V13.5315Z" fill="#2998FF"/>
<path d="M9.78206 6.75647C9.7738 9.82265 9.75592 16.4241 9.74446 20.5857C9.74053 20.8376 9.70683 21.0882 9.64404 21.3322L19.2089 15.7702C19.4095 15.6233 19.5677 15.4259 19.6672 15.198C19.7668 14.9702 19.8042 14.72 19.7757 14.473L19.8169 0.926758L9.78206 6.75647ZM10.8766 7.39842L13.8914 5.65877C13.9275 5.63663 13.9689 5.62461 14.0113 5.62398C14.0536 5.62335 14.0954 5.63413 14.1321 5.65518C14.1689 5.67624 14.1993 5.7068 14.2202 5.74365C14.2411 5.7805 14.2517 5.82228 14.2509 5.86463L14.2555 8.07429C14.2566 8.11635 14.2461 8.1579 14.2249 8.19427C14.2038 8.23064 14.1729 8.26038 14.1358 8.28016L11.121 10.0249C11.0841 10.0442 11.0429 10.0539 11.0013 10.0533C10.9698 10.0536 10.9385 10.0476 10.9093 10.0357C10.8802 10.0238 10.8536 10.0062 10.8313 9.98388C10.8091 9.96159 10.7915 9.93506 10.7795 9.90588C10.7676 9.87671 10.7616 9.84547 10.7619 9.81395L10.7569 7.60429C10.7562 7.5621 10.7671 7.52056 10.7884 7.48412C10.8096 7.44767 10.8405 7.41771 10.8775 7.3975L10.8766 7.39842ZM12.409 17.8849V18.3435C12.409 18.4071 12.3837 18.4681 12.3387 18.513C12.2937 18.558 12.2328 18.5833 12.1691 18.5833C12.1055 18.5833 12.0446 18.558 11.9996 18.513C11.9546 18.4681 11.9293 18.4071 11.9293 18.3435V18.0812C11.8405 18.081 11.7531 18.058 11.6758 18.0142C11.585 17.9555 11.5115 17.8734 11.4632 17.7767C11.4148 17.6799 11.3932 17.5719 11.4007 17.464C11.4005 17.4005 11.4256 17.3395 11.4704 17.2945C11.5152 17.2494 11.576 17.224 11.6396 17.2237V17.2237C11.7029 17.2239 11.7637 17.2491 11.8085 17.2938C11.8534 17.3386 11.8787 17.3993 11.8789 17.4626C11.8789 17.5461 11.9014 17.5901 11.9156 17.6002C11.9298 17.6103 11.972 17.6107 12.0568 17.5617C12.1755 17.482 12.2743 17.3762 12.3458 17.2525C12.4174 17.1288 12.4597 16.9903 12.4695 16.8477C12.4695 16.7629 12.4466 16.7184 12.4323 16.7102C12.4181 16.7019 12.3769 16.6996 12.2948 16.7478C12.207 16.8142 12.1017 16.8534 11.9918 16.8605C11.8819 16.8675 11.7724 16.8421 11.6769 16.7875C11.5813 16.7328 11.5039 16.6513 11.4544 16.553C11.4048 16.4547 11.3851 16.344 11.3979 16.2347C11.4085 16.034 11.4616 15.8378 11.5536 15.6591C11.6456 15.4804 11.7744 15.3232 11.9316 15.198V14.7395C11.9316 14.6759 11.9569 14.6148 12.0019 14.5699C12.0468 14.5249 12.1078 14.4996 12.1714 14.4996C12.235 14.4996 12.296 14.5249 12.341 14.5699C12.386 14.6148 12.4113 14.6759 12.4113 14.7395V15.0008C12.5016 14.9988 12.5908 15.0208 12.6699 15.0645C12.7603 15.1237 12.8335 15.2058 12.8818 15.3025C12.9302 15.3991 12.952 15.5069 12.945 15.6148C12.9422 15.6775 12.9161 15.7368 12.8718 15.7813C12.8276 15.8257 12.7683 15.852 12.7056 15.855C12.6422 15.855 12.5813 15.8299 12.5364 15.7851C12.4914 15.7404 12.4661 15.6796 12.4658 15.6162C12.4658 15.5208 12.4383 15.4841 12.4287 15.4786C12.4191 15.4731 12.3723 15.4676 12.2911 15.5162C12.1724 15.5964 12.0736 15.7025 12.0021 15.8266C11.9305 15.9507 11.8883 16.0895 11.8784 16.2324C11.8784 16.3273 11.906 16.3645 11.9156 16.37C11.9252 16.3755 11.9724 16.3805 12.0564 16.3319C12.1441 16.2657 12.2494 16.2266 12.3592 16.2197C12.4689 16.2128 12.5783 16.2383 12.6737 16.293C12.7691 16.3477 12.8463 16.4292 12.8957 16.5274C12.9452 16.6257 12.9647 16.7362 12.9519 16.8455C12.9404 17.0472 12.886 17.2442 12.7924 17.4233C12.6988 17.6024 12.5681 17.7594 12.409 17.884V17.8849ZM15.0294 16.3608V16.8193C15.0267 16.881 15.0003 16.9394 14.9557 16.9821C14.9111 17.0248 14.8517 17.0487 14.7899 17.0487C14.7281 17.0487 14.6687 17.0248 14.624 16.9821C14.5794 16.9394 14.553 16.881 14.5503 16.8193V16.5566C14.4613 16.5568 14.3737 16.5339 14.2963 16.4901C14.2055 16.4312 14.1322 16.3492 14.0838 16.2524C14.0355 16.1557 14.0138 16.0478 14.0211 15.9399C14.021 15.9084 14.0271 15.8772 14.0391 15.8481C14.051 15.819 14.0686 15.7925 14.0908 15.7702C14.1129 15.7479 14.1393 15.7302 14.1684 15.7181C14.1974 15.7059 14.2286 15.6997 14.26 15.6996C14.2917 15.6989 14.3231 15.7045 14.3525 15.7162C14.3819 15.728 14.4087 15.7455 14.4311 15.7678C14.4535 15.7901 14.4712 15.8168 14.4831 15.8461C14.495 15.8754 14.5009 15.9069 14.5003 15.9385C14.5003 16.022 14.5228 16.066 14.537 16.0761C14.5512 16.0861 14.6021 16.0816 14.6782 16.038C14.7968 15.9583 14.8957 15.8525 14.9672 15.7288C15.0387 15.6051 15.081 15.4666 15.0909 15.3241C15.0909 15.2392 15.068 15.1948 15.0538 15.1865C15.0395 15.1783 14.9886 15.181 14.9162 15.2241C14.8283 15.2903 14.723 15.3294 14.6131 15.3363C14.5033 15.3432 14.3939 15.3178 14.2984 15.2631C14.2029 15.2084 14.1256 15.1269 14.076 15.0287C14.0263 14.9305 14.0066 14.8199 14.0193 14.7105C14.03 14.5099 14.0832 14.3138 14.1753 14.1351C14.2674 13.9565 14.3963 13.7994 14.5535 13.6743V13.2158C14.5562 13.154 14.5826 13.0957 14.6273 13.053C14.6719 13.0103 14.7313 12.9864 14.7931 12.9864C14.8549 12.9864 14.9143 13.0103 14.9589 13.053C15.0035 13.0957 15.03 13.154 15.0327 13.2158V13.4776C15.123 13.4756 15.2122 13.4976 15.2913 13.5413C15.3822 13.6001 15.4558 13.6821 15.5046 13.7788C15.5533 13.8755 15.5755 13.9835 15.5687 14.0915C15.5688 14.1551 15.5437 14.216 15.4989 14.2611C15.4541 14.3061 15.3933 14.3316 15.3298 14.3318V14.3318C15.2664 14.3317 15.2056 14.3065 15.1607 14.2618C15.1158 14.217 15.0903 14.1563 15.09 14.0929C15.09 14.0081 15.067 13.9632 15.0528 13.9554C15.0386 13.9476 14.9886 13.9494 14.9153 13.9925C14.7966 14.0727 14.6978 14.1789 14.6263 14.303C14.5548 14.4271 14.5125 14.5658 14.5026 14.7087C14.5026 14.7936 14.5255 14.8385 14.5397 14.8463C14.554 14.8541 14.5957 14.8568 14.681 14.8082C14.7688 14.7423 14.874 14.7036 14.9836 14.6969C15.0932 14.6902 15.2023 14.7157 15.2975 14.7704C15.3928 14.825 15.4699 14.9063 15.5194 15.0043C15.5689 15.1023 15.5886 15.2127 15.576 15.3218C15.5643 15.5238 15.5094 15.721 15.4151 15.9C15.3209 16.0791 15.1894 16.2359 15.0294 16.3599V16.3608ZM18.661 13.2625L16.4073 14.579C16.3709 14.6007 16.3292 14.6121 16.2867 14.612C16.2342 14.6118 16.1831 14.5943 16.1414 14.5623C16.0997 14.5303 16.0697 14.4854 16.056 14.4347C16.0423 14.3839 16.0457 14.3301 16.0656 14.2814C16.0855 14.2328 16.1208 14.192 16.1661 14.1654L18.4193 12.8489C18.4465 12.8313 18.4769 12.8195 18.5088 12.814C18.5406 12.8085 18.5733 12.8095 18.6048 12.817C18.6362 12.8244 18.6659 12.8382 18.6918 12.8574C18.7178 12.8767 18.7397 12.901 18.756 12.9289C18.7723 12.9568 18.7829 12.9877 18.7869 13.0198C18.791 13.0519 18.7885 13.0845 18.7796 13.1155C18.7707 13.1466 18.7556 13.1756 18.7353 13.2007C18.7149 13.2258 18.6896 13.2465 18.661 13.2616V13.2625ZM18.661 9.59065L11.0673 14.0063C11.0402 14.0253 11.0094 14.0385 10.9768 14.045C10.9443 14.0515 10.9108 14.0512 10.8784 14.0442C10.846 14.0371 10.8155 14.0234 10.7886 14.0039C10.7618 13.9844 10.7393 13.9595 10.7226 13.9309C10.7059 13.9023 10.6953 13.8705 10.6914 13.8375C10.6876 13.8046 10.6907 13.7712 10.7004 13.7395C10.7101 13.7078 10.7263 13.6785 10.748 13.6534C10.7696 13.6283 10.7962 13.6079 10.8261 13.5936L18.4203 9.17751C18.4745 9.15199 18.5363 9.14768 18.5936 9.16548C18.6508 9.18327 18.6993 9.22187 18.7295 9.27364C18.7597 9.32542 18.7694 9.38664 18.7568 9.44523C18.7441 9.50382 18.7099 9.55552 18.661 9.59017V9.59065ZM18.661 7.38283L11.0673 11.7985C11.013 11.8244 10.951 11.829 10.8934 11.8114C10.8359 11.7937 10.7871 11.7551 10.7568 11.7031C10.7264 11.6512 10.7167 11.5897 10.7295 11.5309C10.7424 11.4721 10.7769 11.4203 10.8261 11.3858L18.4203 6.97015C18.4745 6.94462 18.5363 6.94035 18.5936 6.95814C18.6508 6.97594 18.6993 7.01453 18.7295 7.06631C18.7597 7.11809 18.7694 7.17928 18.7568 7.23787C18.7441 7.29645 18.7099 7.34819 18.661 7.38283ZM18.6839 5.65877L15.6696 7.39842C15.6332 7.41961 15.5919 7.43077 15.5499 7.43077C15.5078 7.43077 15.4665 7.41961 15.4302 7.39842C15.3932 7.37842 15.3625 7.34862 15.3413 7.31231C15.3201 7.276 15.3093 7.23456 15.3101 7.19253L15.3055 4.97831C15.3046 4.93624 15.3153 4.89475 15.3364 4.85836C15.3575 4.82196 15.3882 4.79206 15.4252 4.77196L18.4349 3.03231C18.4713 3.01112 18.5127 2.99998 18.5548 2.99998C18.597 2.99998 18.6383 3.01112 18.6747 3.03231C18.7115 3.05268 18.742 3.08262 18.7631 3.11895C18.7841 3.15528 18.795 3.19665 18.7944 3.23865L18.804 5.44783C18.8034 5.49019 18.792 5.53169 18.7709 5.56843C18.7498 5.60516 18.7197 5.63593 18.6835 5.65784L18.6839 5.65877Z" fill="#2998FF"/>
<path d="M6.41691 15.5982L6.40819 18.6566C6.40452 19.7919 7.90253 20.9034 7.90253 19.7983L7.93508 8.71436L3.46216 11.3192C4.02481 11.4875 4.53024 11.8075 4.92302 12.2441C5.82097 13.1373 6.35363 14.3333 6.41691 15.5982V15.5982Z" fill="#2998FF"/>
</g>
<defs>
<clipPath id="clip0_678_66765">
<rect width="22" height="22" fill="white"/>
</clipPath>
</defs>
</svg>
