<svg width="22" height="22" viewBox="0 0 22 22" fill="none" xmlns="http://www.w3.org/2000/svg">
<g clip-path="url(#clip0_678_66772)">
<path d="M13.405 12.7406L5.621 17.2345C5.58451 17.2553 5.54322 17.2662 5.50122 17.2661C5.45922 17.266 5.41797 17.2549 5.38159 17.2339C5.3452 17.2129 5.31494 17.1828 5.29382 17.1465C5.27269 17.1102 5.26143 17.069 5.26116 17.027L5.23723 8.85966C5.23711 8.81742 5.24815 8.77589 5.26924 8.73929C5.29033 8.70268 5.32072 8.67229 5.35733 8.65121L16.6772 2.11149C16.7136 2.09059 16.7549 2.07961 16.797 2.07964C16.839 2.07967 16.8803 2.09068 16.9167 2.11163C16.9532 2.13257 16.9835 2.1627 17.0047 2.199C17.0259 2.2353 17.0372 2.27651 17.0375 2.31854L17.0513 6.87409C17.1866 6.9109 17.43 6.98084 17.8096 7.05033L17.7958 1.32506C17.7921 0.867665 17.5294 0.745745 17.1576 0.961098L5.35043 7.77921C5.09863 7.94528 4.88899 8.16773 4.73811 8.42891C4.58723 8.6901 4.49927 8.98284 4.4812 9.28393V9.28393V9.30418C4.4812 9.48824 4.48488 11.0403 4.50144 18.8593C4.50651 19.325 4.77386 19.4308 5.14014 19.2224L13.9903 14.1146C13.7319 13.6863 13.5348 13.2238 13.405 12.7406ZM11.621 14.9287L10.9427 15.3207C10.8883 15.3461 10.8264 15.3502 10.7691 15.3322C10.7118 15.3141 10.6634 15.2753 10.6333 15.2233C10.6032 15.1714 10.5937 15.1101 10.6066 15.0514C10.6195 14.9928 10.6539 14.9411 10.703 14.9066L11.3812 14.5145C11.4356 14.4891 11.4976 14.4851 11.5548 14.5031C11.6121 14.5211 11.6606 14.5599 11.6906 14.6119C11.7207 14.6638 11.7302 14.7252 11.7174 14.7838C11.7045 14.8424 11.6701 14.8941 11.621 14.9287V14.9287Z" fill="#2998FF"/>
<path d="M9.01041 8.64551L15.2543 5.04066C15.2815 5.02168 15.3124 5.00853 15.345 5.0021C15.3776 4.99566 15.4112 4.99608 15.4436 5.00328C15.476 5.01048 15.5066 5.0243 15.5334 5.04392C15.5602 5.06354 15.5827 5.08852 15.5993 5.11725C15.616 5.14598 15.6265 5.17785 15.6302 5.21086C15.634 5.24387 15.6308 5.2773 15.6209 5.30902C15.6111 5.34074 15.5948 5.37007 15.573 5.39516C15.5512 5.42025 15.5245 5.44055 15.4945 5.45478L9.25061 9.05967C9.22335 9.07865 9.19245 9.09176 9.15986 9.0982C9.12728 9.10464 9.09371 9.10425 9.06128 9.09705C9.02886 9.08985 8.99827 9.076 8.97147 9.05638C8.94466 9.03676 8.92221 9.01181 8.90555 8.98308C8.88888 8.95434 8.87836 8.92245 8.87464 8.88944C8.87092 8.85643 8.87409 8.823 8.88394 8.79128C8.8938 8.75956 8.91012 8.73023 8.93189 8.70514C8.95366 8.68005 8.9804 8.65975 9.01041 8.64551V8.64551ZM7.39756 9.71353V9.34218C7.39756 9.27847 7.42287 9.21739 7.46792 9.17235C7.51297 9.1273 7.57406 9.10199 7.63777 9.10199C7.70147 9.10199 7.76257 9.1273 7.80762 9.17235C7.85266 9.21739 7.87797 9.27847 7.87797 9.34218V9.52993C7.94822 9.53292 8.01685 9.55198 8.07859 9.58563C8.16144 9.63874 8.22859 9.71301 8.27309 9.80079C8.31758 9.88857 8.33781 9.98666 8.33168 10.0849C8.3318 10.1164 8.32569 10.1477 8.3137 10.1769C8.3017 10.2061 8.28406 10.2326 8.26179 10.255C8.23952 10.2774 8.21305 10.2951 8.1839 10.3072C8.15475 10.3193 8.1235 10.3255 8.09194 10.3255C8.02844 10.3255 7.96752 10.3004 7.92258 10.2555C7.87763 10.2106 7.85232 10.1498 7.85219 10.0863C7.85465 10.0559 7.8486 10.0255 7.83471 9.99837C7.83747 10.0025 7.8071 10.0053 7.75833 10.0333C7.66282 10.0975 7.58324 10.1826 7.52566 10.2822C7.46808 10.3818 7.43403 10.4933 7.42609 10.6081C7.42335 10.6384 7.42925 10.6689 7.44312 10.696C7.44312 10.6918 7.47165 10.6891 7.52135 10.6606C7.6014 10.6012 7.69702 10.5665 7.79649 10.5607C7.89596 10.5549 7.99495 10.5783 8.08135 10.6279C8.16775 10.6775 8.23781 10.7513 8.28292 10.8401C8.32804 10.9289 8.34626 11.029 8.33536 11.1281C8.32737 11.3017 8.28249 11.4715 8.2037 11.6264C8.12491 11.7813 8.01403 11.9176 7.87843 12.0263V12.3944C7.87843 12.4581 7.85312 12.5192 7.80807 12.5643C7.76303 12.6093 7.70193 12.6346 7.63822 12.6346C7.57452 12.6346 7.51342 12.6093 7.46838 12.5643C7.42333 12.5192 7.39802 12.4581 7.39802 12.3944V12.2044C7.32927 12.2004 7.26228 12.1811 7.202 12.1478C7.11936 12.0948 7.05235 12.0207 7.00786 11.9332C6.96338 11.8457 6.94303 11.7479 6.94891 11.6499C6.94879 11.5862 6.97392 11.5252 7.01878 11.4801C7.06364 11.4349 7.12457 11.4094 7.18819 11.4092C7.2517 11.4093 7.31259 11.4345 7.35758 11.4794C7.40258 11.5242 7.42803 11.585 7.4284 11.6485C7.42592 11.6783 7.43164 11.7082 7.44496 11.735C7.4422 11.7309 7.47303 11.7281 7.52319 11.6991C7.6176 11.6345 7.69632 11.5495 7.75358 11.4504C7.81083 11.3514 7.84517 11.2408 7.85404 11.1267C7.85645 11.0964 7.85056 11.066 7.83701 11.0388C7.83978 11.0429 7.8094 11.0457 7.76063 11.0742C7.68052 11.1337 7.58483 11.1685 7.48526 11.1744C7.38568 11.1803 7.28654 11.157 7.19997 11.1074C7.11341 11.0579 7.04317 10.9842 6.99784 10.8953C6.95252 10.8065 6.93407 10.7063 6.94477 10.6072C6.953 10.4347 6.99761 10.266 7.07564 10.112C7.15367 9.95795 7.26338 9.82216 7.39756 9.71353V9.71353ZM12.5347 11.14L7.046 14.3091C6.99155 14.3349 6.92938 14.3393 6.87182 14.3215C6.81427 14.3036 6.76554 14.2647 6.7353 14.2126C6.70507 14.1605 6.69553 14.0989 6.70859 14.04C6.72165 13.9812 6.75635 13.9294 6.80581 13.895L12.2945 10.7259C12.349 10.7001 12.4112 10.6956 12.4687 10.7135C12.5263 10.7314 12.575 10.7703 12.6052 10.8224C12.6355 10.8745 12.645 10.9361 12.632 10.995C12.6189 11.0538 12.5842 11.1056 12.5347 11.14V11.14ZM9.25061 11.048C9.22335 11.067 9.19245 11.0801 9.15986 11.0865C9.12728 11.093 9.09371 11.0926 9.06128 11.0854C9.02886 11.0782 8.99827 11.0643 8.97147 11.0447C8.94466 11.0251 8.92221 11.0001 8.90555 10.9714C8.88888 10.9427 8.87836 10.9108 8.87464 10.8778C8.87092 10.8448 8.87409 10.8114 8.88394 10.7796C8.8938 10.7479 8.91012 10.7186 8.93189 10.6935C8.95366 10.6684 8.9804 10.6481 9.01041 10.6338L15.2543 7.02899C15.2815 7.01 15.3124 6.99689 15.345 6.99045C15.3776 6.98402 15.4112 6.98441 15.4436 6.9916C15.476 6.9988 15.5066 7.01265 15.5334 7.03227C15.5602 7.05189 15.5827 7.07684 15.5993 7.10558C15.616 7.13431 15.6265 7.16621 15.6302 7.19921C15.634 7.23222 15.6308 7.26562 15.6209 7.29735C15.6111 7.32907 15.5948 7.35842 15.573 7.38351C15.5512 7.4086 15.5245 7.42891 15.4945 7.44314L9.25061 11.048Z" fill="#2998FF"/>
<path d="M4.01025 18.9059L4.02407 18.9142C4.01486 18.7012 4.01163 18.8452 4.01025 18.9059Z" fill="#2998FF"/>
<path d="M4.00176 9.28891C4.0184 8.90257 4.12782 8.52593 4.32077 8.19081C4.51372 7.8557 4.78452 7.57199 5.11027 7.36363L16.9193 0.544567C16.9377 0.533984 16.9561 0.52387 16.9749 0.514207L16.1444 0.0310486C16.067 0.0019145 15.9836 -0.00691941 15.9019 0.00540636C15.8202 0.0177321 15.743 0.0507847 15.6778 0.101431L3.86785 6.91727C3.61654 7.08449 3.4074 7.30767 3.25682 7.5693C3.10625 7.83093 3.01834 8.12391 3 8.42522L3.02439 18.0024C3.01379 18.0817 3.02342 18.1623 3.05239 18.2368C3.08135 18.3113 3.12871 18.3773 3.19005 18.4285L4.01005 18.9057C4.01097 18.7216 4.01925 17.2008 4.00176 9.28891Z" fill="#2998FF"/>
<path d="M9.38046 19.3189L9.37677 17.3352L7.18091 18.6029L10.0757 20.6382C10.2048 20.7083 10.3488 20.7466 10.4957 20.7499C10.6425 20.7532 10.7881 20.7214 10.9201 20.6571L14.9884 18.2937C15.1329 18.2178 15.1002 18.1625 14.9884 18.1004C14.7261 17.9495 13.8619 17.562 12.9177 17.1129C12.9177 17.0122 12.9218 18.6241 12.9218 18.6775C12.922 18.7198 12.9109 18.7614 12.8899 18.7981C12.8688 18.8348 12.8384 18.8652 12.8017 18.8864L10.7131 20.0952C10.6765 20.1162 10.6351 20.1273 10.593 20.1273C10.5508 20.1273 10.5094 20.1162 10.4729 20.0952L10.4687 20.0906L9.49688 19.5242C9.46145 19.5029 9.43213 19.4728 9.41173 19.4368C9.39134 19.4009 9.38057 19.3603 9.38046 19.3189Z" fill="#2998FF"/>
<path d="M16.88 7.3291C15.9492 8.75501 14.8576 10.0692 13.6267 11.2459C13.6659 11.7297 13.7535 12.2084 13.8881 12.6747C14.311 14.1104 15.2271 15.172 16.7001 15.3565C18.5527 13.127 19.7013 10.3974 20.0003 7.51407C18.961 7.71288 17.8885 7.64931 16.88 7.3291ZM17.5242 11.9371L16.3108 12.6365C16.2831 12.6534 16.2512 12.6622 16.2188 12.6618C16.1906 12.6615 16.1629 12.6546 16.1378 12.6418C16.1127 12.6291 16.0909 12.6107 16.074 12.5882C16.0571 12.5656 16.0456 12.5395 16.0404 12.5119C16.0352 12.4842 16.0364 12.4557 16.0439 12.4285L16.2694 11.6053C16.2092 11.5478 16.1621 11.478 16.1313 11.4007C16.1005 11.3233 16.0867 11.2403 16.0908 11.1571C16.1012 10.9435 16.1624 10.7355 16.2696 10.5505C16.3767 10.3654 16.5265 10.2086 16.7065 10.0933C16.7848 10.0336 16.879 9.9984 16.9772 9.9921C17.0754 9.9858 17.1733 10.0087 17.2586 10.0579C17.3439 10.107 17.4127 10.1803 17.4564 10.2685C17.5002 10.3566 17.5169 10.4558 17.5044 10.5534C17.4968 10.7699 17.4334 10.9807 17.3204 11.1654L17.5896 11.6974C17.6112 11.7382 17.6164 11.7858 17.604 11.8304C17.5917 11.875 17.5628 11.9131 17.5233 11.9371H17.5242Z" fill="#2998FF"/>
<path d="M12.436 15.5703L10.8254 16.5003L10.8333 19.4715L12.4438 18.5411C12.4443 18.7311 12.4364 15.6195 12.436 15.5703Z" fill="#2998FF"/>
<path d="M10.347 16.7783L9.85645 17.0632L9.86059 19.1799L10.3543 19.4679C10.3543 19.5996 10.3474 16.9302 10.347 16.7783Z" fill="#2998FF"/>
<path d="M9.80367 21.0343L6.72062 18.8679L6.14819 19.1974C6.16385 19.2173 6.18284 19.2345 6.20433 19.248C8.50097 20.865 9.96841 21.904 10.112 21.9988C10.2348 22.0547 10.3682 22.0836 10.5031 22.0836C10.638 22.0836 10.7714 22.0547 10.8942 21.9988C10.9403 21.9633 11.2476 21.7922 14.9804 19.6239C15.0628 19.5779 15.0812 19.5319 15.0817 19.5241L15.0844 18.791L11.1593 21.0711C10.9491 21.1817 10.7141 21.2364 10.4767 21.2299C10.2393 21.2235 10.0075 21.1561 9.80367 21.0343V21.0343Z" fill="#2998FF"/>
</g>
<defs>
<clipPath id="clip0_678_66772">
<rect width="22" height="22" fill="white"/>
</clipPath>
</defs>
</svg>
