<svg width="22" height="22" viewBox="0 0 22 22" fill="none" xmlns="http://www.w3.org/2000/svg">
<path d="M10.0664 13.8862L10.0894 13.8999L10.0664 13.8862Z" fill="#2998FF"/>
<path d="M10.9914 14.2877C10.956 14.3082 10.9158 14.319 10.8748 14.319C10.8339 14.319 10.7936 14.3082 10.7582 14.2877L10.5957 14.1932L10.6125 21.1972L13.8314 19.3389L13.8226 16.1822L13.6221 16.2979C13.5687 16.3288 13.5053 16.3371 13.4458 16.3212C13.3862 16.3053 13.3354 16.2665 13.3046 16.2131C13.2737 16.1598 13.2653 16.0963 13.2812 16.0368C13.2971 15.9772 13.336 15.9265 13.3893 15.8956L17.1532 13.7224C17.1797 13.7071 17.2089 13.6973 17.2391 13.6933C17.2694 13.6893 17.3002 13.6914 17.3296 13.6993C17.3591 13.7072 17.3868 13.7208 17.411 13.7394C17.4352 13.758 17.4555 13.7812 17.4707 13.8076C17.486 13.8341 17.4959 13.8633 17.4999 13.8936C17.5038 13.9238 17.5018 13.9546 17.4939 13.9841C17.486 14.0136 17.4723 14.0411 17.4537 14.0654C17.4351 14.0896 17.412 14.1099 17.3855 14.1251L16.9545 14.3742L16.9633 17.5309L20.1977 15.6637L20.1765 8.98389C20.1297 9.01083 11.4891 13.998 10.9914 14.2877ZM12.6377 19.2227L11.6759 19.7809C11.647 19.7975 11.6142 19.8061 11.5809 19.806C11.5476 19.8058 11.5149 19.7968 11.4862 19.78C11.4574 19.7631 11.4337 19.739 11.4173 19.71C11.4009 19.681 11.3924 19.6482 11.3928 19.6149L11.3893 18.5135C11.3892 18.4805 11.3978 18.4482 11.4143 18.4197C11.4309 18.3912 11.4547 18.3677 11.4834 18.3514L12.4452 17.7932C12.4738 17.7768 12.5062 17.7682 12.5392 17.7681C12.5721 17.7681 12.6046 17.7767 12.6332 17.7931C12.6618 17.8095 12.6856 17.8331 12.7023 17.8615C12.719 17.89 12.7279 17.9223 12.7282 17.9553L12.7318 19.0593C12.7322 19.0923 12.7236 19.1248 12.7071 19.1533C12.6905 19.1818 12.6666 19.2054 12.6377 19.2214V19.2227ZM12.6417 16.7938L11.6732 17.3525C11.644 17.3687 11.6113 17.3778 11.5779 17.379C11.5277 17.3782 11.4799 17.3579 11.4445 17.3225C11.409 17.287 11.3888 17.2392 11.388 17.1891L11.3844 16.0758C11.3848 16.0426 11.3938 16.0102 11.4104 15.9816C11.4271 15.9529 11.4508 15.9291 11.4794 15.9124L12.4478 15.3541C12.4768 15.3374 12.5096 15.3286 12.543 15.3286C12.5764 15.3286 12.6092 15.3374 12.6382 15.3541C12.6676 15.3699 12.692 15.3936 12.7088 15.4224C12.7256 15.4513 12.734 15.4842 12.7331 15.5175L12.7367 16.6269C12.7369 16.6604 12.7282 16.6934 12.7116 16.7225C12.6949 16.7516 12.6708 16.7758 12.6417 16.7925V16.7938ZM15.0542 14.0483C15.0548 14.0816 15.0463 14.1144 15.0299 14.1433C15.0134 14.1722 14.9895 14.1961 14.9606 14.2126L14.0606 14.7315C14.0321 14.7481 13.9999 14.7572 13.967 14.758C13.9177 14.7572 13.8706 14.7373 13.8358 14.7024C13.8009 14.6675 13.781 14.6205 13.7802 14.5712V13.5365C13.7803 13.5038 13.7889 13.4718 13.8054 13.4435C13.8218 13.4153 13.8454 13.3919 13.8738 13.3757L14.7738 12.8564C14.8015 12.8399 14.8332 12.8312 14.8655 12.8312C14.8977 12.8312 14.9293 12.8399 14.9571 12.8564C14.9861 12.8721 15.0104 12.8953 15.0275 12.9235C15.0446 12.9518 15.0538 12.9841 15.0542 13.0171V14.0483ZM16.9236 13.0931L16.0081 13.623C15.9786 13.6376 15.9461 13.6453 15.9132 13.6456C15.8885 13.6459 15.8639 13.6414 15.841 13.6322C15.8181 13.623 15.7972 13.6094 15.7795 13.5921C15.7619 13.5748 15.7478 13.5542 15.7382 13.5315C15.7285 13.5088 15.7235 13.4844 15.7233 13.4597L15.7198 12.4073C15.7193 12.374 15.7279 12.3412 15.7446 12.3124C15.7613 12.2837 15.7856 12.2599 15.8147 12.2439L16.7302 11.7139C16.7589 11.697 16.7917 11.6881 16.8251 11.6881C16.8585 11.6881 16.8913 11.697 16.9201 11.7139C16.9486 11.7306 16.9724 11.7543 16.989 11.7829C17.0057 11.8115 17.0146 11.8439 17.015 11.8769L17.0185 12.9257C17.018 12.9591 17.009 12.9918 16.9924 13.0207C16.9758 13.0497 16.9521 13.074 16.9236 13.0914V13.0931ZM19.4284 15.2257C19.4284 15.2601 19.4193 15.2938 19.402 15.3235C19.3847 15.3532 19.3598 15.3778 19.33 15.3948L18.3275 15.9724C18.2985 15.9917 18.2642 16.0014 18.2294 16.0002C18.1775 15.9994 18.128 15.9785 18.0912 15.9418C18.0544 15.9052 18.0334 15.8556 18.0325 15.8037V14.6555C18.0313 14.6205 18.0399 14.5857 18.0573 14.5552C18.0747 14.5247 18.1002 14.4997 18.131 14.4829L19.1334 13.9048C19.1625 13.8874 19.1958 13.8783 19.2297 13.8783C19.2636 13.8783 19.2968 13.8874 19.326 13.9048C19.3566 13.9212 19.3824 13.9456 19.4004 13.9753C19.4184 14.0051 19.4281 14.0391 19.4284 14.0739V15.2257ZM19.4284 12.7875C19.4289 12.822 19.42 12.8559 19.4026 12.8857C19.3853 12.9155 19.3602 12.94 19.33 12.9566L18.3275 13.5347C18.2984 13.5536 18.2642 13.5632 18.2294 13.5621C18.1775 13.5613 18.128 13.5404 18.0912 13.5037C18.0544 13.467 18.0334 13.4175 18.0325 13.3656V12.2174C18.0313 12.1823 18.0399 12.1476 18.0573 12.1171C18.0747 12.0866 18.1002 12.0616 18.131 12.0447L19.1334 11.4666C19.1625 11.4493 19.1958 11.4401 19.2297 11.4401C19.2636 11.4401 19.2968 11.4493 19.326 11.4666C19.3564 11.4833 19.3819 11.5078 19.3998 11.5375C19.4178 11.5672 19.4277 11.6011 19.4284 11.6358V12.7875Z" fill="#2998FF"/>
<path d="M3.37005 5.20109L3.37665 5.20465L3.30469 5.16309L3.30997 5.16621L3.37005 5.20109Z" fill="#2998FF"/>
<path d="M10.6313 11.1296L2 6.11328L2.00706 8.66491L10.6388 13.6812L10.6313 11.1296Z" fill="#2998FF"/>
<path d="M2.23047 5.70816L10.8645 10.7258L11.874 10.1428L3.3769 5.20337L3.3703 5.19986L3.31022 5.16493L3.30227 5.16008H3.30494L3.24973 5.12784L3.24089 5.12256L2.23047 5.70816ZM3.28108 5.14773L3.26782 5.14024L3.28108 5.14773Z" fill="#2998FF"/>
<path d="M3.54709 4.76189L12.2155 9.8025C12.7932 8.33237 14.5234 6.79685 15.918 5.99267C16.6349 5.55812 17.4263 5.26061 18.2519 5.11521L18.2811 5.10987L10.1801 0.402301C9.59942 0.0644659 8.37262 0.343555 7.0544 1.10887C5.40806 2.05878 3.96045 3.55941 3.52148 4.74691L3.63232 4.81138L3.54709 4.76189Z" fill="#2998FF"/>
<path d="M19.5287 5.96826C19.1175 5.04087 17.0835 5.86052 16.1512 6.39575H16.1481C14.7933 7.17785 13.0025 8.75041 12.568 10.2082C12.541 10.2603 12.5037 10.3064 12.4584 10.3438L11.0996 11.1281C11.0996 11.0804 11.1071 13.6329 11.1071 13.6806L11.1513 13.655L20.9993 7.97051L20.9917 5.41797L19.8599 6.07247C19.8318 6.08931 19.8003 6.1 19.7678 6.10384C19.7352 6.10768 19.7022 6.10458 19.6709 6.09473C19.6396 6.08488 19.6107 6.0685 19.5862 6.0467C19.5617 6.0249 19.5421 5.99819 19.5287 5.96826V5.96826ZM16.2762 9.85001V10.2086C16.2762 10.2703 16.2517 10.3295 16.208 10.3732C16.1644 10.4168 16.1052 10.4413 16.0435 10.4413C15.9818 10.4413 15.9225 10.4168 15.8789 10.3732C15.8353 10.3295 15.8107 10.2703 15.8107 10.2086V10.0245C15.7441 10.0204 15.6793 10.0015 15.6208 9.96926C15.5408 9.91805 15.4758 9.8464 15.4326 9.76171C15.3895 9.67702 15.3697 9.58237 15.3753 9.48748C15.3752 9.42579 15.3995 9.36658 15.443 9.32279C15.4864 9.27901 15.5455 9.25419 15.6072 9.25384V9.25384C15.6688 9.25384 15.7279 9.27833 15.7716 9.32188C15.8152 9.36543 15.8398 9.42449 15.8399 9.48613C15.8375 9.51479 15.8431 9.54355 15.8562 9.56915C15.8562 9.56562 15.8841 9.56296 15.9322 9.53514C16.0237 9.47247 16.1 9.39008 16.1554 9.29401C16.2108 9.19793 16.2439 9.09064 16.2523 8.98005C16.2551 8.95061 16.2493 8.921 16.2356 8.89482C16.2382 8.89923 16.2091 8.90188 16.1618 8.92926C16.0842 8.98687 15.9915 9.02058 15.895 9.0263C15.7986 9.03201 15.7025 9.00949 15.6187 8.96145C15.5348 8.91341 15.4668 8.84196 15.423 8.75584C15.3791 8.66973 15.3613 8.57267 15.3718 8.4766C15.3795 8.30924 15.4225 8.1454 15.498 7.99585C15.5735 7.84629 15.6798 7.71442 15.8098 7.60884V7.24938C15.8098 7.21882 15.8159 7.18856 15.8276 7.16033C15.8393 7.13209 15.8564 7.10641 15.878 7.0848C15.8996 7.06319 15.9253 7.04604 15.9535 7.03435C15.9818 7.02265 16.012 7.01661 16.0426 7.01661C16.0732 7.01661 16.1034 7.02265 16.1316 7.03435C16.1599 7.04604 16.1855 7.06319 16.2071 7.0848C16.2288 7.10641 16.2459 7.13209 16.2576 7.16033C16.2693 7.18856 16.2753 7.21882 16.2753 7.24938V7.43089C16.3432 7.43409 16.4094 7.45248 16.4692 7.48475C16.5498 7.53637 16.6152 7.60864 16.6584 7.69407C16.7017 7.7795 16.7213 7.87495 16.7152 7.97051C16.7153 8.03216 16.6909 8.09132 16.6475 8.13504C16.604 8.17875 16.545 8.20348 16.4833 8.20372V8.20372C16.4217 8.20372 16.3627 8.1793 16.3191 8.13585C16.2754 8.09239 16.2508 8.03343 16.2506 7.97186C16.253 7.94245 16.2471 7.91296 16.2338 7.88663C16.2365 7.89061 16.2069 7.89327 16.1596 7.92065C16.0672 7.98284 15.9901 8.06532 15.9344 8.16183C15.8787 8.25834 15.8457 8.36633 15.8381 8.47752C15.8358 8.50688 15.8415 8.53631 15.8545 8.56274C15.8518 8.55833 15.8818 8.55569 15.93 8.52787C16.0075 8.47048 16.1001 8.43691 16.1964 8.43132C16.2928 8.42572 16.3886 8.44831 16.4723 8.49633C16.556 8.54435 16.6238 8.61573 16.6676 8.70172C16.7114 8.7877 16.7291 8.88456 16.7187 8.98048C16.711 9.14853 16.6675 9.31302 16.5912 9.46295C16.5149 9.61289 16.4075 9.74483 16.2762 9.85001V9.85001Z" fill="#2998FF"/>
<path d="M19.8217 5.5577L20.7571 5.01673L12.1195 0L11.2637 0.494606L19.4949 5.27727C19.6174 5.35373 19.7275 5.44828 19.8217 5.5577Z" fill="#2998FF"/>
<path d="M14.2852 15.9149L14.294 19.068L16.4968 17.7962L16.4879 14.6431L14.2852 15.9149Z" fill="#2998FF"/>
<path d="M10.0879 13.8999L10.1131 13.9145L10.0879 13.8999Z" fill="#2998FF"/>
<path d="M10.0479 13.875L10.0668 13.886L2.80273 9.66553C2.80494 10.3827 2.82172 16.2063 2.82349 16.9389L10.1468 21.1952L10.1296 13.9227L10.0479 13.875ZM5.05762 16.7053C5.05786 16.731 5.05296 16.7564 5.04326 16.7801C5.03355 16.8038 5.01923 16.8254 5.0011 16.8435C4.98297 16.8617 4.96141 16.876 4.93768 16.8857C4.91394 16.8954 4.8885 16.9003 4.86285 16.9C4.82871 16.8982 4.79539 16.8889 4.76525 16.8727L3.85467 16.3472C3.82519 16.3292 3.80075 16.3041 3.78367 16.2741C3.7666 16.2441 3.75745 16.2103 3.75707 16.1758L3.76898 11.9871C3.7694 11.9532 3.77856 11.92 3.79558 11.8906C3.8126 11.8613 3.83692 11.8369 3.86615 11.8197C3.89574 11.8026 3.92931 11.7935 3.96351 11.7935C3.9977 11.7935 4.0313 11.8026 4.06089 11.8197L4.97194 12.3452C5.00249 12.3619 5.02776 12.3868 5.04493 12.4171C5.06209 12.4474 5.07048 12.4818 5.06911 12.5166L5.05762 16.7053ZM7.09389 17.8019C7.0932 17.8513 7.07325 17.8985 7.03828 17.9335C7.00332 17.9685 6.95609 17.9884 6.90664 17.9891C6.87351 17.9901 6.84086 17.981 6.81303 17.963L5.93686 17.4574C5.90785 17.442 5.88373 17.4187 5.86719 17.3903C5.85065 17.3619 5.84236 17.3295 5.84325 17.2966L5.85473 13.2678C5.85419 13.2344 5.86258 13.2016 5.87905 13.1726C5.89551 13.1436 5.91944 13.1197 5.94835 13.1031C5.97703 13.0873 6.00925 13.079 6.04198 13.079C6.07472 13.079 6.10691 13.0873 6.13559 13.1031L7.01176 13.6122C7.04023 13.6283 7.06391 13.6517 7.08036 13.6799C7.09681 13.7082 7.10544 13.7403 7.10537 13.773L7.09389 17.8019ZM9.14078 18.9668C9.14066 19.016 9.12109 19.0631 9.08633 19.0979C9.05157 19.1326 9.00446 19.1522 8.95531 19.1523C8.92253 19.1527 8.89033 19.1436 8.86256 19.1262L7.99833 18.6259C7.96969 18.6104 7.94586 18.5873 7.92949 18.5592C7.91313 18.5311 7.90485 18.499 7.90558 18.4664L7.91663 14.4761C7.9163 14.4436 7.92473 14.4116 7.94105 14.3836C7.95738 14.3555 7.98097 14.3324 8.00936 14.3166C8.03755 14.3003 8.06955 14.2917 8.1021 14.2917C8.13466 14.2917 8.16666 14.3003 8.19485 14.3166L9.05908 14.8138C9.08765 14.8303 9.11132 14.8541 9.12762 14.8827C9.14393 14.9114 9.15229 14.9439 9.15183 14.9768L9.14078 18.9668Z" fill="#2998FF"/>
<path d="M10.1133 13.9141L10.1286 13.9229L10.1133 13.9141Z" fill="#2998FF"/>
<path d="M19.5 8.5L14.5 11.5V10.5L15.5 7H17.5L19.5 8.5Z" fill="#2998FF"/>
</svg>
