<svg width="22" height="22" viewBox="0 0 22 22" fill="none" xmlns="http://www.w3.org/2000/svg">
<path d="M4.47461 17.705L4.48563 22.0001L7.51616 20.2501L7.50514 15.9556L4.47461 17.705Z" fill="#2998FF"/>
<path d="M12.1239 7.00488C11.5284 7.93162 10.6403 8.63285 9.60075 8.99725C9.58196 9.00229 9.56225 9.01147 9.54346 9.01605L10.8579 9.77918L13.8866 8.02971L12.1239 7.00488Z" fill="#2998FF"/>
<path d="M8.6075 9.03192C8.20737 8.93567 8.32057 8.92054 7.62207 8.54883L7.63997 15.1974L7.86634 15.329C7.90291 15.3507 7.93331 15.3815 7.95457 15.4183C7.97584 15.4551 7.98727 15.4968 7.98781 15.5393L7.9924 16.8786L10.6379 18.4172L10.6146 10.197L8.6075 9.03192Z" fill="#2998FF"/>
<path d="M14.1277 8.72764V8.45264L11.0991 10.2012L11.1216 18.4196L14.1521 16.6701C14.1365 11.3915 14.1305 9.41284 14.1287 8.75192L14.1277 8.72764Z" fill="#2998FF"/>
<path d="M4.27072 13.7969L1.23975 15.5468L4.23312 17.2884L7.2641 15.5385L4.27072 13.7969Z" fill="#2998FF"/>
<path d="M7.23081 7.76915L7.3967 7.86356C7.3967 7.85806 7.39674 7.85165 7.39261 7.84615C7.2962 7.53007 7.24599 7.20172 7.24362 6.87128C7.29143 5.70408 7.67426 4.57531 8.34637 3.61985C8.97567 2.68531 9.95056 1.74436 11.0432 1.51153L11.057 1.5074L10.9158 1.42719C10.6356 1.30623 10.3287 1.2603 10.0253 1.29389C9.72198 1.32748 9.43259 1.43944 9.18561 1.61877C8.41577 2.11945 7.775 2.79482 7.31546 3.5899C6.85592 4.38499 6.59057 5.27732 6.54102 6.19431C6.54422 6.95194 6.78943 7.50927 7.23081 7.76915Z" fill="#2998FF"/>
<path d="M1 15.9663C1 16.2262 1.01101 20.2118 1.01147 20.2591L4.00255 21.9971L3.99153 17.7048L1 15.9663Z" fill="#2998FF"/>
<path d="M10.1003 2.46722C9.61876 2.81528 9.19762 3.23998 8.85364 3.72442C8.1691 4.63547 7.77634 5.73239 7.72705 6.87089C7.73393 9.54664 10.3492 8.85821 11.847 6.55325C12.423 5.69932 12.7489 4.70145 12.788 3.67218C12.7834 1.96535 11.5642 1.45109 10.0998 2.46767L10.1003 2.46722ZM10.4967 3.49389V3.7478C10.5851 3.74648 10.6723 3.76813 10.7497 3.8106C10.8404 3.86954 10.9136 3.95156 10.962 4.04824C11.0103 4.14492 11.032 4.25274 11.0248 4.36059C11.0249 4.39231 11.0186 4.42373 11.0066 4.45306C10.9945 4.48239 10.9767 4.50906 10.9544 4.53153C10.932 4.554 10.9054 4.57184 10.8761 4.58404C10.8468 4.59623 10.8154 4.60254 10.7837 4.6026C10.7198 4.6026 10.6585 4.57727 10.6132 4.53217C10.568 4.48707 10.5424 4.42588 10.5421 4.36197C10.5421 4.27672 10.5192 4.23638 10.5082 4.22996C10.4972 4.22355 10.4487 4.22447 10.3758 4.2671C10.259 4.34554 10.1617 4.4496 10.0912 4.57136C10.0208 4.69313 9.97901 4.82938 9.9692 4.96972C9.9692 5.05451 9.99216 5.09484 10.0032 5.10126C10.0142 5.10767 10.0618 5.10721 10.1374 5.06367C10.225 4.99811 10.3298 4.95962 10.4389 4.95298C10.5481 4.94633 10.6568 4.97182 10.7516 5.02628C10.8465 5.08075 10.9233 5.16181 10.9725 5.25944C11.0218 5.35707 11.0414 5.46699 11.0289 5.57563C11.0182 5.77498 10.9652 5.96978 10.8733 6.14704C10.7815 6.3243 10.653 6.47997 10.4963 6.60368V7.05376C10.4963 7.11776 10.4709 7.17914 10.4256 7.22439C10.3804 7.26964 10.319 7.29507 10.255 7.29507C10.191 7.29507 10.1296 7.26964 10.0843 7.22439C10.0391 7.17914 10.0137 7.11776 10.0137 7.05376V6.79893C9.92665 6.79857 9.84115 6.77601 9.76527 6.73338C9.67485 6.67492 9.60168 6.59338 9.55333 6.49717C9.50499 6.40096 9.48323 6.29357 9.49028 6.18613C9.49016 6.15443 9.49626 6.12303 9.5083 6.0937C9.52033 6.06438 9.53803 6.03771 9.56038 6.01524C9.58273 5.99276 9.60929 5.9749 9.63854 5.9627C9.6678 5.9505 9.69922 5.9442 9.73092 5.94414V5.94414C9.79482 5.94414 9.85607 5.96945 9.90134 6.01455C9.94661 6.05965 9.97221 6.12086 9.97245 6.18476C9.97245 6.26864 9.99536 6.30851 10.0059 6.31447C10.0164 6.32042 10.0646 6.32043 10.1402 6.27734C10.2566 6.19914 10.3536 6.0954 10.4238 5.97403C10.494 5.85266 10.5356 5.71687 10.5454 5.577C10.5454 5.49221 10.5224 5.45143 10.511 5.44547C10.4995 5.43951 10.4532 5.43906 10.3785 5.48214C10.2911 5.54807 10.1862 5.58688 10.0769 5.59379C9.9676 5.60069 9.85864 5.57538 9.76359 5.52097C9.66854 5.46656 9.59155 5.38546 9.54214 5.28772C9.49274 5.18998 9.47313 5.07989 9.48569 4.97109C9.49643 4.77267 9.54897 4.57877 9.63989 4.40208C9.7308 4.22538 9.85803 4.06989 10.0132 3.9458V3.49479C10.0132 3.43079 10.0386 3.36942 10.0839 3.32416C10.1292 3.27891 10.1905 3.25349 10.2545 3.25349C10.3185 3.25349 10.3799 3.27891 10.4252 3.32416C10.4704 3.36942 10.4958 3.43079 10.4958 3.49479L10.4967 3.49389Z" fill="#2998FF"/>
<path d="M20.7897 12.5862L20.7608 2.15771L17.7358 3.90535C17.756 11.4046 17.7624 13.6106 17.7638 14.1683V14.277V14.3338L20.7897 12.5862Z" fill="#2998FF"/>
<path d="M17.5255 0L14.5005 1.7481L17.4944 3.48746L20.5194 1.73938L17.5255 0Z" fill="#2998FF"/>
<path d="M17.2508 3.99033V3.90599L14.2588 2.16846L14.2762 7.69779L14.4894 7.82153C14.5262 7.8432 14.5567 7.87398 14.5781 7.91091C14.5996 7.94784 14.6112 7.98968 14.6117 8.03238L14.625 12.789L17.2792 14.3326C17.2581 6.62163 17.2526 4.50779 17.2513 4.02792L17.2508 3.99033Z" fill="#2998FF"/>
</svg>
