<svg width="22" height="22" viewBox="0 0 22 22" fill="none" xmlns="http://www.w3.org/2000/svg">
<path d="M8.33955 11.6424L8.33594 13.3744L12.0641 11.2069L12.0553 9.48486L8.33955 11.6424Z" fill="#2998FF"/>
<path d="M8.32812 17.75L12.0876 15.566L12.0788 13.8833L8.33134 16.0617L8.32812 17.75Z" fill="#2998FF"/>
<path d="M2.00488 14.3363L7.9131 17.7482L7.91671 16.0623L2.00849 12.6504L2.00488 14.3363Z" fill="#2998FF"/>
<path d="M6.35791 5.47368L8.99431 6.99619L9.80153 7.46221C9.83524 7.48148 9.83243 7.48027 9.80153 7.46221L8.99431 6.99619L12.3661 8.94299C12.4223 8.98677 12.4594 9.05065 12.4696 9.12121L12.5122 17.5257L15.835 15.5954C15.835 12.5728 15.8378 10.197 15.8394 7.04115C15.3384 6.75174 15.4151 6.79709 9.73048 3.51123L6.35791 5.47368Z" fill="#2998FF"/>
<path d="M8.32645 18.2296L8.32324 19.9592L12.0964 17.766L12.0876 16.0439L8.32645 18.2296Z" fill="#2998FF"/>
<path d="M8.33516 13.8542C8.33516 13.7426 8.33194 15.5401 8.33154 15.5802L12.0758 13.4046L12.067 11.6826L8.33516 13.8542Z" fill="#2998FF"/>
<path d="M11.2863 8.79895L8.23567 10.5727C8.20413 10.591 8.16834 10.6006 8.13191 10.6006C8.09547 10.6006 8.05968 10.591 8.02814 10.5727L3.6593 8.05073C3.62788 8.03253 3.6018 8.0064 3.58367 7.97494C3.56554 7.94349 3.556 7.90781 3.556 7.87151C3.556 7.8352 3.56554 7.79954 3.58367 7.76808C3.6018 7.73663 3.62788 7.71048 3.6593 7.69228L6.50603 6.03731L5.94407 5.71338L2.2251 7.87372L8.1309 11.2856L11.8507 9.12528L11.2863 8.79895Z" fill="#2998FF"/>
<path d="M4.17627 7.87104L8.13167 10.1542L10.8736 8.55985L6.98246 6.312L6.97564 6.30839L6.98166 6.312L6.92626 6.2799L6.91904 6.27588L4.17627 7.87104ZM8.48851 7.53748C8.60892 7.58561 8.71221 7.66859 8.78515 7.7758C8.85809 7.88301 8.89736 8.00956 8.89792 8.13923C8.89848 8.2689 8.86031 8.39577 8.7883 8.50361C8.71629 8.61144 8.61372 8.69532 8.49373 8.74449C8.23529 8.87839 7.94848 8.94828 7.65742 8.94828C7.36635 8.94828 7.07954 8.87839 6.8211 8.74449C6.70067 8.6964 6.59736 8.61345 6.52438 8.50627C6.4514 8.39908 6.41209 8.27255 6.41149 8.14288C6.41089 8.01321 6.44901 7.88632 6.52099 7.77846C6.59297 7.6706 6.69551 7.58669 6.81548 7.53748C7.07399 7.40358 7.36086 7.33368 7.652 7.33368C7.94313 7.33368 8.23 7.40358 8.48851 7.53748V7.53748Z" fill="#2998FF"/>
<path d="M2.00977 12.1715L7.91878 15.5862C7.91878 15.7014 7.92199 13.8963 7.92199 13.8546L2.01418 10.4463L2.00977 12.1715Z" fill="#2998FF"/>
<path d="M16.251 13.142L19.9876 10.9745L19.9908 9.28418L16.2518 11.4554L16.251 13.142Z" fill="#2998FF"/>
<path d="M13.9743 1.14838C13.9819 1.15279 13.9807 1.15239 13.9646 1.14316L13.9715 1.14676L13.8912 1.1006L13.9466 1.13232L13.8839 1.09619L10.1421 3.27137L10.7085 3.59851L13.784 1.81229C13.8155 1.79403 13.8513 1.78442 13.8878 1.78442C13.9242 1.78442 13.96 1.79403 13.9915 1.81229L18.3547 4.32987C18.3862 4.34807 18.4122 4.37421 18.4304 4.40566C18.4485 4.43712 18.458 4.47279 18.458 4.5091C18.458 4.54541 18.4485 4.58107 18.4304 4.61252C18.4122 4.64398 18.3862 4.67013 18.3547 4.68833L15.4839 6.35895L16.0487 6.68528L19.7922 4.5097L13.9743 1.14838Z" fill="#2998FF"/>
<path d="M16.2495 15.3538L19.9825 13.1862L19.9857 11.4546L16.2499 13.6221L16.2495 15.3538Z" fill="#2998FF"/>
<path d="M16.2524 10.9757L19.9923 8.80415L19.9955 7.07812L16.2532 9.25332L16.2524 10.9757Z" fill="#2998FF"/>
<path d="M16.2544 7.0461V8.77494L19.9975 6.59934L20.0007 4.87012L16.2544 7.0461Z" fill="#2998FF"/>
<path d="M2.0127 9.96851L7.92051 13.3772L7.92372 11.6436L2.01671 8.23486L2.0127 9.96851Z" fill="#2998FF"/>
<path d="M2 16.5502L7.90821 19.9621L7.91183 18.2272L2.00361 14.8125L2 16.5502Z" fill="#2998FF"/>
<path d="M13.888 2.23096L11.1216 3.83656L15.0722 6.11933L17.839 4.5093L13.888 2.23096ZM15.2022 4.84648C14.9437 4.98038 14.6568 5.05028 14.3657 5.05028C14.0746 5.05028 13.7877 4.98038 13.5292 4.84648C13.4088 4.79835 13.3055 4.71537 13.2325 4.60816C13.1596 4.50095 13.1203 4.3744 13.1198 4.24473C13.1192 4.11507 13.1574 3.98819 13.2294 3.88035C13.3014 3.77252 13.404 3.68864 13.524 3.63947C13.7824 3.50547 14.0693 3.43553 14.3605 3.43553C14.6516 3.43553 14.9385 3.50547 15.197 3.63947C15.3174 3.6876 15.4207 3.77058 15.4936 3.87779C15.5666 3.985 15.6058 4.11155 15.6064 4.24122C15.607 4.37089 15.5688 4.49776 15.4968 4.6056C15.4248 4.71343 15.3222 4.79731 15.2022 4.84648V4.84648Z" fill="#2998FF"/>
</svg>
