<svg width="42" height="42" viewBox="0 0 42 42" fill="none" xmlns="http://www.w3.org/2000/svg">
<path fill-rule="evenodd" clip-rule="evenodd" d="M21.4523 41.0922C41.84 41.0922 41.9984 31.8935 41.9984 20.5461C41.9984 9.19865 41.84 0 21.4523 0C1.06463 0 0.90625 9.19865 0.90625 20.5461C0.90625 31.8935 1.06463 41.0922 21.4523 41.0922Z" fill="url(#paint0_linear_1529_58382)"/>
<g clip-path="url(#clip0_1529_58382)">
<path d="M11.668 30.3306L11.668 32.2875L9.711 32.2875L9.711 30.3306L11.668 30.3306Z" fill="white"/>
<path d="M13.625 26.4175L13.625 28.3744L11.6685 28.3744L11.6685 26.4175L13.625 26.4175Z" fill="white"/>
<path d="M15.582 28.374L15.582 30.3305L13.6251 30.3305L13.6251 28.374L15.582 28.374Z" fill="white"/>
<path d="M13.6236 19.5684C13.6236 14.7053 17.5661 10.7631 22.4291 10.7631C27.2921 10.7631 31.2344 14.7053 31.2344 19.5684C31.2344 24.4316 27.2923 28.374 22.4291 28.374L17.537 28.374L17.537 30.3305L22.4291 30.3305C28.373 30.3305 33.1914 25.5121 33.1914 19.5684C33.1914 13.6248 28.373 8.80615 22.4291 8.80615C16.485 8.80615 11.6668 13.6246 11.6668 19.5684L11.6668 24.4605L13.6233 24.4605L13.6233 19.5684L13.6236 19.5684Z" fill="white"/>
<path d="M29.2812 19.5683C29.2812 15.7858 26.2151 12.7197 22.4327 12.7197C18.6502 12.7197 15.5838 15.7856 15.5838 19.5683L15.5838 26.4169L22.4324 26.4169C26.2151 26.4169 29.2812 23.3508 29.2812 19.5683V19.5683ZM17.5406 24.4602L17.5406 19.5683C17.5406 16.8663 19.7307 14.6762 22.4324 14.6762C25.1342 14.6762 27.3245 16.8663 27.3245 19.5683C27.3245 22.2705 25.1344 24.4604 22.4324 24.4604L17.5406 24.4604L17.5406 24.4602Z" fill="white"/>
<path d="M22.4282 22.5035C24.0495 22.5035 25.3633 21.1895 25.3633 19.5684C25.3633 17.9473 24.0495 16.6333 22.4282 16.6333C20.8067 16.6333 19.4931 17.9471 19.4931 19.5684L19.4931 22.5035L22.4282 22.5035Z" fill="white"/>
</g>
<defs>
<linearGradient id="paint0_linear_1529_58382" x1="-0.961575" y1="35.9556" x2="48.5358" y2="-9.33913" gradientUnits="userSpaceOnUse">
<stop offset="0.275368" stop-color="#B82EFF"/>
<stop offset="1" stop-color="#D88BFF"/>
</linearGradient>
<clipPath id="clip0_1529_58382">
<rect width="23.4812" height="23.4812" fill="white" transform="translate(33.1914 8.80615) rotate(90)"/>
</clipPath>
</defs>
</svg>
