<svg width="24" height="24" viewBox="0 0 24 24" fill="none" xmlns="http://www.w3.org/2000/svg">
<path fill-rule="evenodd" clip-rule="evenodd" d="M12 23C22.9152 23 23 18.0752 23 12C23 5.92479 22.9152 1 12 1C1.08479 1 1 5.92479 1 12C1 18.0752 1.08479 23 12 23Z" fill="#20242E" stroke="white" stroke-opacity="0.17" stroke-width="0.4"/>
<path fill-rule="evenodd" clip-rule="evenodd" d="M13.8554 6.89258H16.3716V8.98683H18.2856V11.2861H16.3716V13.4749C16.3716 14.3097 16.743 14.6465 17.5857 14.6465C17.8428 14.6465 18.0713 14.6318 18.2856 14.5879V16.9165C17.8142 17.0483 17.3429 17.1069 16.8573 17.1069C15.6432 17.1069 14.7862 16.7407 14.2578 16.0231C13.8721 15.4813 13.6722 14.7929 13.6722 13.9582V11.2861H12.5438V8.98232H12.8009H13.8578V8.1956L13.8554 6.89258ZM9.01555 17.1069C7.78484 17.1069 6.68444 16.7501 5.71436 16.0514L6.88715 14.208C7.59661 14.6986 8.30608 14.9513 9.04451 14.9513C9.43544 14.9513 9.63814 14.8473 9.63814 14.6243C9.63814 14.4608 9.42096 14.2972 9.00107 14.1337L8.0165 13.7472C6.69892 13.2269 6.03289 12.3795 6.03289 11.2051C6.03289 9.76309 7.22016 8.81167 9.05898 8.81167C10.2463 8.81167 11.2453 9.13872 12.0706 9.77796L10.8688 11.5767C10.4055 11.2348 9.63814 10.9672 9.05898 10.9672C8.78389 10.9672 8.6391 11.0564 8.6391 11.22C8.6391 11.4389 8.80659 11.5145 9.15527 11.672C9.16172 11.6749 9.16824 11.6778 9.17482 11.6808L10.0146 12.0079C11.5204 12.6025 12.3023 13.3012 12.3023 14.5946C12.3023 16.1555 11.0571 17.1069 9.01555 17.1069Z" fill="white"/>
<path d="M16.3721 11.2866V8.9873H18.2858V11.2866H16.3721Z" fill="#46B9FF"/>
</svg>
