<svg width="42" height="42" viewBox="0 0 42 42" fill="none" xmlns="http://www.w3.org/2000/svg">
<path fill-rule="evenodd" clip-rule="evenodd" d="M21.4523 41.1845C41.84 41.1845 41.9984 31.9858 41.9984 20.6384C41.9984 9.29094 41.84 0.0922852 21.4523 0.0922852C1.06462 0.0922852 0.90625 9.29094 0.90625 20.6384C0.90625 31.9858 1.06462 41.1845 21.4523 41.1845Z" fill="url(#paint0_linear_1529_58392)"/>
<path fill-rule="evenodd" clip-rule="evenodd" d="M24.9207 11.0986H29.6206V15.0103H33.1955V19.305H29.6206V23.3932C29.6206 24.9524 30.3142 25.5816 31.8882 25.5816C32.3684 25.5816 32.7953 25.5542 33.1955 25.4722V29.8215C32.3151 30.0677 31.4347 30.1771 30.5277 30.1771C28.26 30.1771 26.6593 29.4933 25.6722 28.1529C24.9519 27.1408 24.5784 25.8551 24.5784 24.2959V19.305H22.4709V15.0019H22.9511H24.9253V13.5325L24.9207 11.0986ZM15.8809 30.1774C13.5821 30.1774 11.5268 29.5109 9.71484 28.2059L11.9054 24.7628C13.2306 25.6791 14.5557 26.1511 15.935 26.1511C16.6652 26.1511 17.0438 25.9567 17.0438 25.5402C17.0438 25.2348 16.6381 24.9294 15.8539 24.6239L14.0149 23.902C11.5538 22.9301 10.3098 21.3474 10.3098 19.1538C10.3098 16.4604 12.5274 14.6833 15.962 14.6833C18.1796 14.6833 20.0457 15.2942 21.5872 16.4882L19.3425 19.848C18.4771 19.2093 17.0438 18.7095 15.962 18.7095C15.4482 18.7095 15.1777 18.8761 15.1777 19.1816C15.1777 19.5905 15.4906 19.7318 16.1419 20.0259C16.1539 20.0313 16.1661 20.0368 16.1784 20.0423L17.7469 20.6532C20.5595 21.7639 22.0199 23.069 22.0199 25.4847C22.0199 28.4003 19.6941 30.1774 15.8809 30.1774Z" fill="white"/>
<path d="M29.6211 19.3054V15.0107H33.1957V19.3054H29.6211Z" fill="#46B9FF"/>
<defs>
<linearGradient id="paint0_linear_1529_58392" x1="0.906251" y1="41.1845" x2="26.9117" y2="-7.1114" gradientUnits="userSpaceOnUse">
<stop stop-color="#54D061"/>
<stop offset="0.528484" stop-color="#4876ED"/>
<stop offset="1" stop-color="#42D2FF"/>
</linearGradient>
</defs>
</svg>
