<svg width="42" height="42" viewBox="0 0 42 42" fill="none" xmlns="http://www.w3.org/2000/svg">
<path fill-rule="evenodd" clip-rule="evenodd" d="M20.5461 41.0922C40.9338 41.0922 41.0922 31.8935 41.0922 20.5461C41.0922 9.19865 40.9338 0 20.5461 0C0.158375 0 0 9.19865 0 20.5461C0 31.8935 0.158375 41.0922 20.5461 41.0922Z" fill="url(#paint0_linear_1529_58381)"/>
<path fill-rule="evenodd" clip-rule="evenodd" d="M24.0144 11.0063H28.7143V14.918H32.2892V19.2127H28.7143V23.3009C28.7143 24.8601 29.408 25.4893 30.982 25.4893C31.4622 25.4893 31.889 25.4619 32.2892 25.3799V29.7292C31.4088 29.9754 30.5285 30.0849 29.6214 30.0849C27.3538 30.0849 25.7531 29.401 24.766 28.0606C24.0457 27.0485 23.6722 25.7628 23.6722 24.2036V19.2127H21.5646V14.9096H22.0448H24.019V13.4402L24.0144 11.0063ZM14.9746 30.0851C12.6759 30.0851 10.6205 29.4187 8.80859 28.1136L10.9992 24.6705C12.3243 25.5868 13.6495 26.0588 15.0287 26.0588C15.7589 26.0588 16.1375 25.8645 16.1375 25.448C16.1375 25.1425 15.7319 24.8371 14.9476 24.5316L13.1086 23.8097C10.6476 22.8378 9.40356 21.2551 9.40356 19.0615C9.40356 16.3681 11.6212 14.591 15.0558 14.591C17.2734 14.591 19.1394 15.2019 20.6809 16.3959L18.4363 19.7557C17.5709 19.117 16.1375 18.6172 15.0558 18.6172C14.5419 18.6172 14.2715 18.7838 14.2715 19.0893C14.2715 19.4982 14.5843 19.6395 15.2356 19.9336C15.2477 19.939 15.2598 19.9445 15.2721 19.9501L16.8407 20.5609C19.6533 21.6716 21.1137 22.9767 21.1137 25.3924C21.1137 28.308 18.7879 30.0851 14.9746 30.0851Z" fill="white"/>
<path d="M28.7148 19.2132V14.9185H32.2894V19.2132H28.7148Z" fill="#46B9FF"/>
<defs>
<linearGradient id="paint0_linear_1529_58381" x1="1.30006e-06" y1="41.0922" x2="26.0055" y2="-7.20368" gradientUnits="userSpaceOnUse">
<stop stop-color="#28498E"/>
<stop offset="0.528484" stop-color="#2B62D7"/>
<stop offset="1" stop-color="#427FFF"/>
</linearGradient>
</defs>
</svg>
