<svg width="22" height="22" viewBox="0 0 22 22" fill="none" xmlns="http://www.w3.org/2000/svg">
<path d="M6.06584 9.51243C6.94756 8.39148 7.98436 7.40177 9.14507 6.57311C9.16613 6.55784 9.18635 6.54132 9.20617 6.52605L7.23809 5.40332C6.01091 6.24917 4.91899 7.27611 3.99951 8.44914L6.00062 9.59086C6.02126 9.56403 6.04479 9.53926 6.06584 9.51243Z" fill="#979FA8"/>
<path d="M6.12525 18.7822C6.28128 18.0144 6.44185 16.9961 6.51862 16.223C6.78203 14.1275 6.56535 11.9996 5.88501 10.0001L4.06885 8.96533C4.89686 11.5245 4.54848 14.7854 4.52908 15.2539C4.44653 15.9659 4.32765 16.7192 4.17121 17.4939C4.08494 18.4066 4.25005 19.0014 4.66653 19.2399L6.20779 20.1216C6.2016 20.1006 6.19912 20.0754 6.19375 20.0539C6.09954 19.6369 6.07639 19.2069 6.12525 18.7822V18.7822Z" fill="#979FA8"/>
<path d="M13.7524 3.9893L13.0619 3.59553L11.7571 2.85254C11.138 3.76599 10.9142 4.75664 10.123 5.21357C9.54476 5.48529 8.90222 5.59036 8.26758 5.51696L9.66273 6.31277C11.2242 6.65 12.7762 5.26228 13.7524 3.9893Z" fill="#979FA8"/>
<path d="M12.9897 11.0541C12.9661 11.0406 12.9401 11.0319 12.9132 11.0285C12.8862 11.0251 12.8589 11.027 12.8327 11.0342C12.8065 11.0413 12.782 11.0536 12.7606 11.0703C12.7391 11.0869 12.7212 11.1077 12.7078 11.1313L11.6024 13.0713L10.9217 12.6742C10.8982 12.6587 10.8718 12.6482 10.8442 12.6432C10.8165 12.6383 10.788 12.6391 10.7607 12.6455C10.7333 12.652 10.7075 12.6639 10.6849 12.6807C10.6623 12.6975 10.6434 12.7187 10.6293 12.743C10.6152 12.7674 10.6063 12.7943 10.603 12.8223C10.5997 12.8502 10.6022 12.8785 10.6102 12.9055C10.6183 12.9325 10.6317 12.9575 10.6498 12.979C10.6679 13.0006 10.6902 13.0182 10.7153 13.0308L11.5759 13.5328C11.5995 13.5465 11.6256 13.5555 11.6527 13.5591C11.6798 13.5627 11.7073 13.5609 11.7337 13.5538C11.7601 13.5467 11.7848 13.5345 11.8064 13.5177C11.828 13.501 11.846 13.4802 11.8595 13.4564L13.0681 11.3356C13.0815 11.312 13.09 11.2859 13.0933 11.259C13.0966 11.2321 13.0946 11.2047 13.0873 11.1786C13.08 11.1524 13.0676 11.128 13.0509 11.1066C13.0341 11.0852 13.0133 11.0674 12.9897 11.0541V11.0541Z" fill="#979FA8"/>
<path d="M16.755 2.93483L15.1398 2.01354C14.108 1.94366 13.0758 2.14516 12.146 2.59801L14.0683 3.69432C14.9086 3.27579 15.8199 3.0182 16.755 2.93483V2.93483Z" fill="#979FA8"/>
<path d="M17.3894 11.8773C17.1232 10.4276 16.6914 9.50054 16.7991 7.54113C16.8584 6.13267 17.0305 4.73123 17.3139 3.35029C16.2279 3.32952 15.1545 3.5852 14.1946 4.09328C13.7135 4.75466 13.1441 5.34698 12.5022 5.85373C11.673 6.48774 10.6468 6.92445 9.63473 6.72921C8.35889 7.60169 7.22919 8.67065 6.2876 9.89638C6.97547 11.9375 7.19484 14.1073 6.92945 16.2447C6.8408 17.1178 6.70772 17.9857 6.53071 18.8452C6.47251 19.4561 6.49357 20.2787 7.02191 20.5904C7.83465 21.0613 10.8974 20.9813 11.8385 20.928C13.7141 18.9752 15.3875 16.8378 16.833 14.5483C17.3434 13.7578 17.5417 12.8058 17.3894 11.8773V11.8773ZM15.9212 14.1475L15.9183 14.1524C14.8034 15.919 13.5106 17.5668 12.0601 19.0701C12.0243 19.1069 11.976 19.129 11.9248 19.1321C11.4323 19.1605 10.9857 19.1754 10.58 19.1754C9.87177 19.1914 9.16418 19.1235 8.47196 18.9731C7.96137 18.9211 7.34798 18.5579 7.48131 17.152C8.03194 14.4376 7.96756 12.2677 7.28732 10.497C7.27477 10.4644 7.27069 10.4292 7.27545 10.3946C7.28022 10.36 7.29366 10.3272 7.31455 10.2992C8.07364 9.29859 8.99091 8.42847 10.0302 7.72316C10.0539 7.70664 10.0809 7.69531 10.1094 7.68991C10.1378 7.6845 10.1671 7.68514 10.1953 7.69178C11.4005 7.97164 12.6178 6.82787 13.3546 5.82485C13.3744 5.79796 13.4005 5.77628 13.4305 5.76169C14.2735 5.30303 15.2302 5.09561 16.1874 5.164C16.2163 5.16721 16.2441 5.17648 16.2692 5.19121C16.2942 5.20593 16.3159 5.22578 16.3327 5.24944C16.3495 5.2731 16.3611 5.30002 16.3668 5.32847C16.3725 5.35692 16.3721 5.38625 16.3657 5.41455C15.4956 9.21655 16.2006 10.8718 16.3851 11.8777C16.5183 12.666 16.3529 13.4757 15.9212 14.1487V14.1475Z" fill="#979FA8"/>
<path d="M15.9131 5.55568C15.1257 5.55339 14.3497 5.74429 13.6532 6.11168C12.8314 7.21666 11.5444 8.36415 10.1905 8.11402C9.24701 8.76136 8.41052 9.55228 7.71143 10.4581C8.38259 12.2838 8.43956 14.4954 7.88728 17.2135C7.78202 18.3527 8.21089 18.5343 8.54276 18.5686C9.62251 18.7761 10.7263 18.829 11.8209 18.7254C13.228 17.258 14.4838 15.6526 15.5693 13.9336C15.9471 13.3479 16.0942 12.6428 15.9821 11.9548C15.7914 10.9204 15.0913 9.44891 15.9131 5.55568ZM11.9654 15.5929C10.4341 16.4763 9.15034 15.725 9.14621 13.9749C9.19492 13.0743 9.45542 12.1978 9.90655 11.4167C10.3577 10.6357 10.9867 9.97209 11.7425 9.47986C13.2615 8.60067 14.5535 9.33952 14.5576 11.0897C14.5099 11.9912 14.2503 12.8688 13.7999 13.6512C13.3496 14.4337 12.7211 15.0989 11.9654 15.5929V15.5929Z" fill="#979FA8"/>
</svg>
