<svg width="22" height="22" viewBox="0 0 22 22" fill="none" xmlns="http://www.w3.org/2000/svg">
<path d="M4.53359 16.2928C4.52533 16.2774 4.51972 16.259 4.51146 16.2432C4.14527 15.4684 3.96164 14.62 3.97467 13.7631C3.96716 10.7897 5.66988 7.28106 8.016 5.0851C9.20557 3.9706 10.8572 2.94882 12.4687 2.98974L11.3918 2.36548C8.03589 0.405623 1.98441 6.6996 1.99905 12.3881C2.00355 13.6802 2.34175 14.7173 2.97727 15.3911L4.53359 16.2928Z" fill="#979FA8"/>
<path d="M2.9765 15.8433L2.10938 18.8444L4.12928 20.0182L4.99677 17.0171L2.9765 15.8433Z" fill="#979FA8"/>
<path d="M13.9626 3.40244C14.2884 3.59959 14.5769 3.85273 14.8147 4.1502C15.5355 3.7605 16.3425 3.55798 17.1619 3.56123L16.0831 2.93397C15.2854 2.46625 14.2404 2.45949 13.1108 2.90694L13.9588 3.39906L13.9626 3.40244Z" fill="#979FA8"/>
<path d="M18.9987 12.0684C19.6356 10.7281 19.981 9.26788 20.0123 7.78423C19.9987 4.59839 17.9525 3.06497 15.0452 4.48353C15.4518 5.20535 15.6773 6.01506 15.7021 6.84316C15.7063 6.91824 15.7081 6.99819 15.7097 7.07627L18.0516 5.72491C18.074 5.71199 18.0987 5.70361 18.1243 5.70024C18.15 5.69687 18.176 5.69858 18.201 5.70528C18.2259 5.71197 18.2493 5.72352 18.2698 5.73925C18.2903 5.75498 18.3075 5.7746 18.3204 5.79698C18.3333 5.81936 18.3417 5.84406 18.3451 5.86968C18.3484 5.8953 18.3467 5.92134 18.34 5.94629C18.3333 5.97125 18.3218 5.99464 18.3061 6.01514C18.2903 6.03564 18.2707 6.05284 18.2483 6.06575L15.7074 7.53386C15.6951 7.90764 15.6581 8.28021 15.5967 8.64911C15.5217 9.09044 15.4214 9.52711 15.2964 9.95693L18.6748 8.00496C18.6971 7.99204 18.7218 7.98366 18.7475 7.98029C18.7731 7.97692 18.7991 7.97864 18.8241 7.98533C18.849 7.99202 18.8725 8.00356 18.8929 8.0193C18.9134 8.03503 18.9306 8.05465 18.9435 8.07703C18.9565 8.09941 18.9648 8.12412 18.9682 8.14974C18.9716 8.17536 18.9698 8.20138 18.9631 8.22634C18.9565 8.2513 18.9449 8.27469 18.9292 8.29519C18.9135 8.31569 18.8938 8.33289 18.8715 8.3458L15.1207 10.5144C14.8377 11.3403 14.4739 12.1363 14.0347 12.8909C13.9041 13.118 13.7629 13.3443 13.6158 13.5688L18.0963 10.9787C18.1187 10.9658 18.1434 10.9574 18.169 10.954C18.1946 10.9507 18.2207 10.9524 18.2456 10.9591C18.2706 10.9658 18.294 10.9773 18.3145 10.9931C18.335 11.0088 18.3522 11.0284 18.3651 11.0508C18.378 11.0732 18.3864 11.0979 18.3897 11.1235C18.3931 11.1491 18.3914 11.1751 18.3847 11.2001C18.378 11.2251 18.3665 11.2484 18.3507 11.2689C18.335 11.2894 18.3154 11.3066 18.293 11.3196L13.0779 14.3361C12.235 15.4772 11.1784 16.4436 9.96672 17.1815C9.96259 17.1837 9.95734 17.1815 9.95284 17.1852L9.91943 17.2036C10.9078 18.4048 12.5846 18.4874 14.4585 17.4075C15.6289 16.6952 16.6484 15.7606 17.4593 14.6563C17.4906 14.6154 17.5367 14.5884 17.5877 14.5812L19.8899 14.2434L18.9987 12.2325C18.9869 12.2067 18.9808 12.1788 18.9808 12.1505C18.9808 12.1221 18.9869 12.0942 18.9987 12.0684V12.0684Z" fill="#979FA8"/>
<path d="M13.6924 12.6942C14.4392 11.4237 14.9529 10.0301 15.2093 8.57889C15.3023 7.99444 15.3353 7.40201 15.3077 6.81085C15.0674 2.88589 11.6312 2.23949 8.27156 5.38441C6.00615 7.50643 4.36275 10.8954 4.37063 13.7663C4.37664 15.9434 5.34098 16.7317 5.37401 16.7956C5.39654 16.8222 5.41201 16.8541 5.41896 16.8882C5.42592 16.9224 5.42414 16.9578 5.41381 16.9911L4.65105 19.6315L6.6578 17.6083C6.67963 17.5858 6.70659 17.5691 6.73634 17.5594C6.7661 17.5497 6.79777 17.5474 6.82861 17.5527C7.76693 17.6524 8.71246 17.4479 9.5257 16.9694H9.52795C11.2785 15.9489 12.7182 14.4709 13.6924 12.6942ZM12.8827 7.88481C12.9897 7.79813 13.1203 7.74581 13.2576 7.7347C13.3948 7.7236 13.5322 7.75424 13.6517 7.8226C13.7712 7.89095 13.8672 7.99383 13.9272 8.11775C13.9872 8.24166 14.0083 8.38082 13.9878 8.51695C13.9701 8.84503 13.8756 9.16436 13.7119 9.44927C13.5483 9.73417 13.3201 9.9767 13.0456 10.1574C12.4507 10.4986 11.9341 10.1885 11.9311 9.52484C11.9465 9.19502 12.041 8.87373 12.2066 8.58809C12.3722 8.30245 12.6041 8.06085 12.8827 7.88368V7.88481ZM6.82072 13.7967C6.20247 14.1544 5.66567 13.8293 5.66267 13.1394C5.67953 12.7969 5.77813 12.4634 5.95021 12.1668C6.12229 11.8702 6.36284 11.619 6.6518 11.4344C7.25991 11.083 7.79709 11.3969 7.80009 12.0951C7.78134 12.4354 7.68296 12.7665 7.51285 13.0619C7.34275 13.3572 7.10568 13.6085 6.82072 13.7955V13.7967ZM9.93224 11.9614C9.33614 12.3049 8.81248 11.999 8.80947 11.3274C8.82542 10.9949 8.92079 10.6711 9.08759 10.383C9.25439 10.0949 9.48777 9.85098 9.7682 9.67161C9.87631 9.58454 10.0082 9.53216 10.1466 9.52135C10.285 9.51054 10.4235 9.5418 10.5438 9.61104C10.6641 9.68027 10.7607 9.78424 10.8209 9.90933C10.8811 10.0344 10.9022 10.1748 10.8812 10.312C10.8631 10.6419 10.7677 10.9628 10.6029 11.2491C10.4381 11.5354 10.2084 11.779 9.93224 11.9603V11.9614Z" fill="#979FA8"/>
</svg>
